<?xml version="1.0" encoding="UTF-8"?>
<svg width="931px" height="916px" viewBox="0 0 931 916" version="1.1" xmlns="http://www.w3.org/2000/svg" xmlns:xlink="http://www.w3.org/1999/xlink">
    <title>ages</title>
    <g id="Page-1" stroke="none" stroke-width="1" fill="none" fill-rule="evenodd">
        <g id="ages" transform="translate(0.663000, 0.411453)" fill="#FFFFFF" fill-rule="nonzero">
            <g id="18+">
                <path d="M457.384,914.770547 C205.18,914.770547 0,709.587547 0,457.385547 C0,205.183547 205.18,0 457.384,0 C554.616633,-0.252203152 649.360859,30.7248707 727.663,88.3705466 L682.079,150.511547 C616.978474,102.596258 538.211573,76.8531175 457.379,77.0735466 C247.672,77.0735466 77.062,247.681547 77.062,457.387547 C77.062,667.093547 247.672,837.701547 457.379,837.701547 C667.086,837.701547 837.7,667.092547 837.7,457.385547 C837.7,445.541547 837.15,433.605547 836.071,421.907547 L912.812,414.813547 C914.112,428.859547 914.77,443.184547 914.77,457.385547 C914.77,709.587547 709.586,914.770547 457.384,914.770547 Z" id="Path_13"></path>
                <path d="M852.706,130.358547 L852.705,207.845547 L930.193,207.845547 L930.193,274.859547 L852.705,274.858547 L852.706,352.347547 L785.693,352.347547 L785.692,274.858547 L708.206,274.859547 L708.206,207.845547 L785.692,207.845547 L785.693,130.358547 L852.706,130.358547 Z" id="Combined-Shape"></path>
                <path d="M361.05,649.4 L361.05,264.4 L305.5,264.4 C297.25,299.6 280.2,311.15 230.7,311.15 L212,311.15 L212,371.1 L291.75,371.1 L291.75,649.4 L361.05,649.4 Z M566.2,653.8 C650.35,653.8 702.6,608.15 702.6,543.8 C702.6,503.65 681.15,468.45 642.65,450.3 C678.95,431.6 696,399.7 696,365.05 C696,305.1 644.3,260 566.2,260 C488.1,260 436.95,305.1 436.95,365.05 C436.95,399.7 453.45,431.6 489.75,450.3 C451.8,468.45 429.8,503.65 429.8,543.8 C429.8,608.15 482.6,653.8 566.2,653.8 Z M566.2,423.9 C528.25,423.9 505.15,402.45 505.15,371.65 C505.15,340.85 527.7,318.85 566.2,318.85 C605.25,318.85 627.8,340.85 627.8,371.65 C627.8,402.45 604.7,423.9 566.2,423.9 Z M566.2,594.95 C527.15,594.95 499.1,572.4 499.1,538.3 C499.1,504.75 526.6,480 566.2,480 C605.8,480 633.85,504.75 633.85,538.3 C633.85,572.4 605.8,594.95 566.2,594.95 Z" id="18"></path>
            </g>
        </g>
    </g>
</svg>