<svg xmlns="http://www.w3.org/2000/svg" xmlns:xlink="http://www.w3.org/1999/xlink" width="16px" height="18px" viewBox="0 0 16 18" version="1.1">
    <g id="icon-set最新整理" stroke="none" stroke-width="1" fill="none" fill-rule="evenodd">
        <g id="images/h5/icon-set/index-theme-icon" transform="translate(-39.000000, -211.000000)" fill="#ff8a14" fill-rule="nonzero">
            <g id="header-appdownload-icon" transform="translate(39.000000, 211.000000)">
                <path d="M13.2,17.8 L2.6,17.8 C1.2,17.8 8.8817842e-16,16.6 8.8817842e-16,15.2 L8.8817842e-16,14.2 L8.8817842e-16,2.6 C8.8817842e-16,1.2 1.2,0 2.6,0 L5.4,0 C5.7,0 6,0.2 6,0.5 C6,0.5 6,0.5 6,0.6 C6,0.9 5.8,1.2 5.4,1.2 L5.4,1.2 L2.6,1.2 C1.8,1.2 1.2,1.8 1.2,2.6 L1.2,2.6 L1.2,15.2 C1.2,16 1.8,16.6 2.6,16.6 L2.6,16.6 L13.2,16.6 C14,16.6 14.6,16 14.6,15.2 L14.6,2.6 C14.6,1.8 14,1.2 13.2,1.2 L10.4,1.2 C10,1.2 9.8,0.9 9.8,0.6 L9.8,0.6 C9.8,0.3 10,0 10.4,0 L13.2,0 C14.6,0 15.8,1.2 15.8,2.6 L15.8,15.2 C15.7,16.5 14.6,17.8 13.2,17.8 Z" id="Path"/>
                <path d="M15.1,12 L0.6,12 C0.3,12 4.30211422e-16,11.7 0.1,11.3 C0.1,11 0.3,10.8 0.6,10.8 L15.2,10.8 C15.5,10.8 15.8,11.1 15.7,11.5 C15.6,11.8 15.4,12 15.1,12 Z" id="Path"/>
                <circle id="Oval" cx="7.9" cy="14.3" r="1"/>
                <path d="M7.9,7.7 C7.6,7.7 7.3,7.4 7.3,7.1 L7.3,0.6 C7.3,0.3 7.5,4.4408921e-16 7.9,4.4408921e-16 C8.2,4.4408921e-16 8.5,0.3 8.5,0.6 L8.5,7.1 C8.4,7.5 8.2,7.7 7.9,7.7 Z" id="Path"/>
                <path d="M7.9,7.7 C7.8,7.7 7.7,7.7 7.6,7.6 L5.3,5.9 C5.1,5.7 5,5.3 5.2,5.1 C5.4,4.9 5.8,4.8 6,5 L8.2,6.6 C8.5,6.8 8.5,7.2 8.3,7.4 C8.2,7.6 8,7.7 7.9,7.7 Z" id="Path"/>
                <path d="M7.9,7.7 C7.7,7.7 7.5,7.6 7.4,7.5 C7.2,7.2 7.2,6.8 7.5,6.6 L7.5,6.6 L9.7,5 C10,4.8 10.3,4.9 10.5,5.1 C10.7,5.4 10.6,5.7 10.4,5.9 L8.2,7.6 C8.1,7.6 8,7.7 7.9,7.7 Z" id="Path"/>
            </g>
        </g>
    </g>
</svg>