<svg xmlns="http://www.w3.org/2000/svg" xmlns:xlink="http://www.w3.org/1999/xlink" width="20px" height="18px" viewBox="0 0 20 18" version="1.1">
    <g stroke="none" stroke-width="1" fill="none" fill-rule="evenodd">
        <g transform="translate(-191.000000, -210.000000)" fill="#ff8a14" fill-rule="nonzero">
            <g  transform="translate(191.000000, 210.000000)">
                <path d="M16.875,0 C18.3581228,0 19.564802,1.20644038 19.564802,2.68980203 L19.564802,11.370847 C19.564802,12.8539698 18.3581228,14.0606491 16.875,14.0606491 L8.3415508,14.0606491 L2.6802489,18 L2.6802489,14.0606491 C1.201425,14.0553948 0,12.8508651 0,11.370847 L0,2.68980203 C0,1.20644038 1.20667922,0 2.68980203,0 L16.875,0 Z M18.4184269,11.370847 L18.4184269,2.68980203 C18.4184269,1.8386185 17.7260641,1.14637512 16.875,1.14637512 L2.68980203,1.14637512 C1.83873794,1.14637512 1.14637512,1.8386185 1.14637512,2.68980203 L1.14637512,11.370847 C1.14637512,12.2217917 1.83873794,12.914274 2.68980203,12.914274 L3.82662402,12.914274 L3.82662402,15.8057664 L7.98187558,12.914274 L16.875,12.914274 C17.7260641,12.914274 18.4184269,12.2217917 18.4184269,11.370847 Z M5.23642661,4.05064483 L14.3283754,4.05064483 L14.3283754,5.19701995 L5.23642661,5.19701995 L5.23642661,4.05064483 Z M5.23642661,6.49624508 L14.3283754,6.49624508 L14.3283754,7.6426202 L5.23642661,7.6426202 L5.23642661,6.49624508 Z M5.23642661,8.94184534 L14.3283754,8.94184534 L14.3283754,10.0882205 L5.23642661,10.0882205 L5.23642661,8.94184534 Z" id="Combined-Shape"/>
            </g>
        </g>
    </g>
</svg>