<svg xmlns="http://www.w3.org/2000/svg" fill="none" viewBox="0 0 370 65">
  <path fill="#C89400" d="M237.1 45.04c-1.08 5.54-3.96 10.24-8.64 14.12-4.69 3.87-9.8 5.82-15.33 5.84h-40.6l12.7-65h40.6c5.55 0 9.9 1.95 13.04 5.85 3.13 3.9 4.18 8.6 3.12 14.11-.77 3.97-3.39 8.15-7.86 12.54 2.75 4.4 3.74 8.58 2.97 12.54Zm-14.94 0a4.23 4.23 0 0 0-.78-3.62 4.07 4.07 0 0 0-3.35-1.49h-17.49l3.12-14.85h17.27c1.44 0 2.84-.53 3.93-1.49a6.15 6.15 0 0 0 2.2-3.62 4.23 4.23 0 0 0-.78-3.62 4.07 4.07 0 0 0-3.35-1.48h-25.68l-6.88 35.26h25.66c1.45 0 2.84-.53 3.93-1.48a6.16 6.16 0 0 0 2.2-3.6ZM292.92 65h-56l12.7-65h56l-2.9 14.87h-41.07l-2 10.21h31.74l-2.9 14.85h-31.74l-1.99 10.22h41.07L292.93 65ZM367.12 14.87H344.3L334.46 65h-14.94l9.8-50.14h-22.86L309.36 0H370l-2.88 14.87Z"/>
  <path fill="#DCDCDC" d="M70 65H55.06l5.76-29.44L39.66 65h-9.33l-9.65-29.43L14.94 65H0L12.7 0h14.95l12.23 39.93L67.75 0H82.7L70 65ZM129.74 65h-56l12.7-65h56l-2.9 14.86H98.46l-2 10.21h31.74l-2.9 14.86H93.55l-2 10.22h41.07L129.73 65ZM181.16 65h-47.7l12.7-65h14.94l-9.8 50.15h32.77L181.17 65Z"/>
</svg>
