<svg xmlns="http://www.w3.org/2000/svg" viewBox="0 0 532.42 94.01"><defs><style>.a{fill:#ffbc00;}.b{fill:#fff;}</style></defs><title>Ресурс 7</title><path class="a" d="M341.15,65.14q-2.32,12-12.43,20.41T306.66,94H248.24L266.52,0h58.41q12,0,18.77,8.46t4.5,20.41q-1.68,8.6-11.32,18.13Q342.82,56.55,341.15,65.14Zm-21.49,0a6.12,6.12,0,0,0-1.13-5.24,5.86,5.86,0,0,0-4.82-2.15H288.55L293,36.27h24.85a8.63,8.63,0,0,0,5.65-2.15,8.91,8.91,0,0,0,3.17-5.24,6.12,6.12,0,0,0-1.13-5.24,5.85,5.85,0,0,0-4.82-2.14H283.83l-9.92,51h36.93a8.61,8.61,0,0,0,5.65-2.15A8.91,8.91,0,0,0,319.66,65.14Z"/><path class="a" d="M421.48,94H340.9L359.18,0h80.57L435.58,21.5H376.49l-2.87,14.77h45.66L415.1,57.75H369.44l-2.87,14.78h59.09Z"/><path class="a" d="M528.24,21.5h-32.9L481.24,94H459.75l14.1-72.51H441L445.12,0h87.3Z"/><path class="b" d="M100.72,94H79.23l8.28-42.58L57.07,94H43.65L29.76,51.44,21.49,94H0L18.27,0H39.78L57.41,57.75,97.48,0H119Z"/><path class="b" d="M186.67,94H106.09L124.36,0h80.58l-4.18,21.49H141.67L138.8,36.26h45.66l-4.17,21.49H134.63l-2.88,14.77h59.09Z"/><path class="b" d="M260.67,94H192L210.31,0H231.8L217.7,72.52h47.15Z"/></svg>