<?xml version="1.0" encoding="utf-8"?><svg viewBox="0 0 24 24" xmlns="http://www.w3.org/2000/svg" xmlns:xlink="http://www.w3.org/1999/xlink"><style>:root>svg{display:none}:root>svg:target{display:block}</style><svg fill="none" viewBox="0 0 24 24" id="facebook" xmlns="http://www.w3.org/2000/svg"><path fill="currentColor" d="M22 12c0-5.52-4.48-10-10-10S2 6.48 2 12c0 5 3.66 9.13 8.44 9.88v-6.99H7.9V12h2.54V9.83c0-2.5 1.49-3.89 3.77-3.89 1.09 0 2.23.2 2.23.2v2.45h-1.25c-1.23 0-1.61.77-1.61 1.56v1.87h2.74l-.44 2.89h-2.3v6.99C18.34 21.13 22 17 22 12z"/></svg><svg fill="none" viewBox="0 0 24 24" id="instagram" xmlns="http://www.w3.org/2000/svg"><path fill="currentColor" d="M7 2C4.24 2 2 4.24 2 7v10c0 2.76 2.24 5 5 5h10c2.76 0 5-2.24 5-5V7c0-2.76-2.24-5-5-5H7zm10 2c1.66 0 3 1.34 3 3v10c0 1.66-1.34 3-3 3H7c-1.66 0-3-1.34-3-3V7c0-1.66 1.34-3 3-3h10zm-5 3a5 5 0 100 10 5 5 0 000-10zm0 2a3 3 0 110 6 3 3 0 010-6zm4.5-2.5a1 1 0 100 2 1 1 0 000-2z"/></svg><svg fill="none" viewBox="0 0 24 24" id="x" xmlns="http://www.w3.org/2000/svg"><path fill="currentColor" d="M22.46 6c-.77.35-1.6.58-2.46.69a4.27 4.27 0 001.88-2.36 8.47 8.47 0 01-2.7 1.03 4.24 4.24 0 00-7.22 3.87A12.01 12.01 0 013.23 4.8a4.22 4.22 0 001.31 5.65A4.21 4.21 0 012 9.7v.05a4.24 4.24 0 003.4 4.16 4.3 4.3 0 01-1.92.07 4.24 4.24 0 003.96 2.95A8.5 8.5 0 012 19.54 12 12 0 008.29 21c7.55 0 11.68-6.26 11.68-11.68 0-.18-.01-.36-.02-.54A8.35 8.35 0 0022.46 6z"/></svg></svg>