<svg xmlns="http://www.w3.org/2000/svg" fill="none" viewBox="0 0 124 22">
  <path fill="#FFBC00"
    d="M79.5 15.2a8 8 0 0 1-3 4.8 8 8 0 0 1-5 2H57.7l4.3-22h13.6c1.8 0 3.3.7 4.4 2 1 1.3 1.4 3 1 4.8a8.5 8.5 0 0 1-2.6 4.2c.9 1.5 1.2 2.9 1 4.2Zm-5 0a1.4 1.4 0 0 0-.3-1.2 1.4 1.4 0 0 0-1.1-.5h-5.9l1-5H74c.5 0 1-.2 1.4-.5.3-.3.6-.7.7-1.2a1.4 1.4 0 0 0-.3-1.2 1.4 1.4 0 0 0-1-.5H66l-2.3 11.8h8.6c.5 0 1-.1 1.3-.5.4-.3.7-.7.8-1.2ZM98.2 22H79.4l4.3-22h18.7l-1 5H87.8L87 8.6h10.7l-1 5H86l-.6 3.4H99l-1 5ZM123 5h-7.6L112 22h-5l3.3-17h-7.7l1-5H124l-1 5Z" />
  <path fill="#F9F9F9"
    d="M23.5 22h-5l1.9-10-7.1 10h-3.1L6.9 12 5 22H0L4.3 0h5l4 13.5L22.8 0h5l-4.2 22ZM43.5 22H24.7L29 0h18.7l-1 5H33l-.7 3.5H43l-1 5H31.4l-.7 3.4h13.7l-1 5ZM60.7 22h-16L49 0h5l-3.3 17h11l-1 5Z" />
</svg>