<svg width="499" height="183" viewBox="0 0 499 183" fill="none" xmlns="http://www.w3.org/2000/svg">
<g clip-path="url(#clip0_21847_76611)">
<path d="M179.407 92.3701L179.425 92.4053L172.693 59.6584C172.668 59.7182 172.658 59.7639 172.658 59.799L169.642 45.1218L166.855 31.6047C166.855 31.4887 166.844 31.3692 166.82 31.2532L163.155 13.1835C163.096 12.9269 162.97 12.7195 162.77 12.5683C162.594 12.4277 162.377 12.3574 162.121 12.3574H137.647C137.471 12.3574 137.296 12.3996 137.121 12.4804C136.956 12.5964 136.83 12.7441 136.735 12.9198L98.7785 84.8118L84.3323 68.9218C84.1219 68.6862 83.8869 68.5702 83.631 68.5702C83.3399 68.5351 83.077 68.6229 82.842 68.8339C75.3279 75.5485 67.6665 78.9831 59.8578 79.1343C59.6579 79.1343 59.4546 79.1343 59.2442 79.1343C52.8275 79.1343 47.7503 77.0531 44.009 72.8943H43.974C40.2221 68.5808 38.7845 63.2548 39.6611 56.9163C40.5272 50.2263 43.455 44.9285 48.4446 41.0263V40.9911H48.4972C51.9229 38.2842 55.7098 36.4913 59.8578 35.6124C61.7758 35.2362 63.7604 35.0499 65.8186 35.0499C73.1925 35.0499 79.8686 38.2209 85.84 44.5593C86.0504 44.7351 86.3028 44.8406 86.5939 44.8757C86.8498 44.8757 87.0953 44.7879 87.3302 44.6121L105.09 28.9857C105.325 28.8099 105.441 28.5744 105.441 28.2826C105.465 27.9908 105.388 27.7447 105.213 27.5443C96.0505 16.3404 83.4136 10.7402 67.3088 10.7402C64.7842 10.7402 62.3017 10.8703 59.8578 11.1269C53.5358 11.8546 47.5575 13.4999 41.9227 16.0662C36.9332 18.3056 32.3924 21.2692 28.3005 24.9604C28.2058 25.0554 28.1182 25.1432 28.0375 25.2241C25.8285 27.2385 23.7668 29.4532 21.8488 31.8684C19.0086 35.3593 16.7295 39.1701 15.0114 43.2938C14.2855 44.9812 13.6684 46.7284 13.153 48.5319C13.1179 48.6479 13.0899 48.7674 13.0653 48.8834C12.3991 51.274 11.8907 53.7453 11.54 56.3011C9.62207 70.3034 12.8129 81.7428 21.1124 90.6124C27.6448 97.4782 35.9444 101.697 46.0076 103.268C50.7763 103.82 55.3942 103.996 59.8578 103.796C72.8314 103.187 84.4269 99.3308 94.641 92.2295L92.2917 96.8876H92.3268L90.8892 99.7351C90.784 99.9707 90.7559 100.203 90.8015 100.438C90.8366 100.519 90.8646 100.603 90.8892 100.684C90.9488 100.835 91.054 100.973 91.2047 101.089C91.4046 101.229 91.636 101.289 91.906 101.264L117.45 99.1726C117.625 99.1375 117.801 99.0777 117.976 98.9969C118.092 98.8809 118.193 98.7332 118.274 98.5574L125.252 83.4056H152.145L154.197 100.21L180.582 98.1531L179.407 92.3701ZM138.821 61.6798H133.825L145.974 36.7549L148.622 53.6469L149.936 61.6798H138.821Z" fill="url(#paint0_linear_21847_76611)"/>
<path d="M266.506 10.7402C266.25 10.7402 266.033 10.8281 265.857 11.0039C265.657 11.1445 265.531 11.3449 265.472 11.6015L253.568 88.1867C253.396 89.2941 253.22 90.4015 253.042 91.5088C253.017 91.6916 252.989 91.8745 252.954 92.0537L251.025 103.919H278.042L292.278 11.9179C292.313 11.707 292.285 11.5207 292.19 11.3554C292.11 11.1445 291.98 10.9969 291.804 10.916C291.629 10.8 291.443 10.7402 291.243 10.7402H266.506Z" fill="url(#paint1_linear_21847_76611)"/>
<path d="M363.667 10.7402C363.446 10.7402 363.229 10.8281 363.018 11.0039C362.818 11.1445 362.703 11.3449 362.668 11.6015L355.62 55.8617L322.748 11.1797C322.632 11.0285 322.513 10.909 322.397 10.8281C322.232 10.7684 322.074 10.7402 321.924 10.7402H303.375C303.119 10.7402 302.891 10.8281 302.691 11.0039C302.481 11.1445 302.365 11.3449 302.34 11.6015L290.384 88.5383L287.789 103.848H314.034L321.398 56.3538L321.45 56.389L342.822 85.7259L355.672 103.848H373.66L377.605 83.0189L388.702 11.9179C388.737 11.707 388.727 11.5207 388.667 11.3554C388.573 11.1445 388.429 10.9969 388.229 10.916C388.078 10.8 387.903 10.7402 387.703 10.7402H363.667Z" fill="url(#paint2_linear_21847_76611)"/>
<path d="M183.756 118.895C185.614 122.505 186.151 126.734 185.369 131.586C185.334 131.586 185.316 131.603 185.316 131.638V131.673C184.275 138.518 181.056 144.34 175.656 149.145C170.232 154.057 163.892 156.785 156.634 157.337C149.176 157.899 143.433 156.025 139.4 151.712C140.126 153.107 141.038 154.419 142.135 155.649L142.188 155.684C146.22 160.054 151.978 161.949 159.457 161.362C166.399 160.834 172.525 158.314 177.83 153.803C178.065 153.603 178.297 153.406 178.531 153.206C182.213 149.912 184.885 146.14 186.543 141.886L188.454 129.371C188.044 125.328 186.48 121.837 183.756 118.895ZM171.168 127.631C170.817 126.495 170.221 125.486 169.38 124.607V124.572C167.637 122.649 165.2 121.819 162.069 122.076C158.763 122.347 155.845 123.64 153.321 125.961C150.715 128.351 149.19 131.188 148.745 134.468V134.556C148.289 137.615 148.945 140.058 150.708 141.886C151.034 142.273 151.399 142.596 151.795 142.853C151.42 141.598 151.364 140.188 151.62 138.616V138.529C152.03 135.249 153.542 132.412 156.161 130.021C158.71 127.666 161.638 126.358 164.944 126.101C167.444 125.89 169.52 126.4 171.168 127.631ZM279.182 147.124L278.691 150.147C278.666 150.348 278.698 150.552 278.778 150.763C278.873 150.928 279.017 151.086 279.217 151.237C279.392 151.318 279.595 151.36 279.83 151.36L288.105 150.763L291.366 150.499C291.601 150.439 291.815 150.334 292.015 150.182C292.19 150.007 292.296 149.806 292.331 149.585L299.203 105.008C299.203 104.808 299.161 104.611 299.08 104.411C298.986 104.235 298.852 104.087 298.677 103.971C298.477 103.855 298.274 103.806 298.064 103.831L295.89 104.006L289.49 145.56C289.431 145.795 289.315 145.999 289.14 146.175C288.965 146.315 288.765 146.403 288.544 146.438L279.182 147.124ZM238.613 109.684C238.638 109.484 238.606 109.28 238.525 109.069C238.431 108.868 238.287 108.724 238.087 108.629C237.912 108.513 237.708 108.454 237.473 108.454L235.3 108.629L228.848 150.182C228.823 150.418 228.725 150.622 228.55 150.798C228.35 150.938 228.136 151.037 227.901 151.097L218.627 151.8C218.451 151.8 218.276 151.772 218.101 151.712C217.961 151.631 217.831 151.511 217.715 151.36L201.428 130.32L198.079 152.538C198.044 152.773 197.939 152.977 197.764 153.153C197.564 153.304 197.35 153.406 197.115 153.452L188.156 154.12L187.666 157.126C187.641 157.326 187.673 157.53 187.753 157.741C187.848 157.941 187.981 158.085 188.156 158.18C188.356 158.296 188.553 158.356 188.752 158.356L199.99 157.477C200.19 157.442 200.394 157.354 200.604 157.213C200.779 157.038 200.878 156.834 200.902 156.598L204.303 134.345L220.59 155.421C220.696 155.572 220.825 155.677 220.976 155.737C221.116 155.797 221.292 155.825 221.502 155.825L230.776 155.122C230.997 155.087 231.197 154.981 231.372 154.805C231.548 154.665 231.653 154.478 231.688 154.243L238.613 109.684ZM273.782 139.495L271.608 139.671L270.468 147.001C270.444 147.236 270.346 147.44 270.17 147.616C269.995 147.792 269.792 147.89 269.557 147.915L237.386 150.358L236.948 153.382C236.923 153.582 236.941 153.779 237 153.979C237.081 154.155 237.221 154.32 237.421 154.471C237.631 154.552 237.835 154.594 238.034 154.594L272.379 151.94C272.614 151.905 272.835 151.817 273.046 151.677C273.221 151.501 273.319 151.297 273.344 151.061L274.904 140.708C274.939 140.487 274.911 140.286 274.816 140.111C274.736 139.9 274.595 139.752 274.396 139.671C274.22 139.52 274.017 139.46 273.782 139.495ZM256.285 107.065L254.111 107.241L249.448 137.087L252.972 136.824L257.407 108.243C257.407 108.042 257.365 107.856 257.284 107.68C257.225 107.469 257.092 107.322 256.881 107.241C256.681 107.1 256.485 107.04 256.285 107.065ZM108.001 163.418C110.234 165.658 113.267 166.628 117.1 166.336C120.736 166.044 123.93 164.677 126.69 162.241C129.435 159.85 131.118 156.922 131.739 153.452C132.43 149.68 131.641 146.569 129.372 144.118V144.083H129.337C129.221 143.988 129.12 143.883 129.039 143.767C129.179 144.997 129.12 146.322 128.864 147.739C128.278 151.209 126.595 154.13 123.815 156.51C121.08 158.961 117.882 160.314 114.225 160.571C110.518 160.898 107.563 159.984 105.354 157.829C105.609 160.068 106.493 161.931 108.001 163.418ZM348.836 145.911C349.011 145.992 349.211 146.034 349.432 146.034L371.417 144.347L383.268 143.468C383.468 143.433 383.671 143.327 383.882 143.151C384.047 142.986 384.145 142.789 384.18 142.554L385.74 132.517C385.775 132.306 385.733 132.113 385.618 131.937C385.523 131.737 385.397 131.596 385.232 131.515C385.021 131.364 384.818 131.304 384.618 131.339L382.444 131.515L381.357 138.529C381.322 138.74 381.207 138.943 381.007 139.144C380.831 139.284 380.628 139.372 380.393 139.407L348.783 141.816L348.345 144.821C348.285 145.022 348.317 145.226 348.433 145.437C348.527 145.612 348.66 145.771 348.836 145.911ZM348.573 100.175C348.362 100.058 348.159 99.9987 347.959 99.9987L345.733 100.175L339.298 141.728C339.263 141.949 339.165 142.15 339 142.325C338.79 142.477 338.587 142.582 338.387 142.642L329.06 143.327C328.885 143.327 328.727 143.285 328.586 143.204C328.411 143.144 328.281 143.046 328.201 142.905L311.879 121.812L308.513 144.083C308.488 144.305 308.39 144.505 308.214 144.681C308.015 144.832 307.801 144.937 307.566 144.997L298.589 145.647L298.116 148.653C298.081 148.864 298.109 149.068 298.204 149.268C298.284 149.444 298.432 149.592 298.642 149.708C298.817 149.824 299.017 149.884 299.238 149.884L310.441 149.005C310.662 148.98 310.862 148.892 311.037 148.741C311.247 148.541 311.363 148.344 311.388 148.143L314.736 125.873L331.023 146.966C331.139 147.071 331.269 147.17 331.409 147.265C331.584 147.324 331.76 147.353 331.935 147.353L341.209 146.649C341.444 146.625 341.648 146.537 341.823 146.386C342.023 146.185 342.139 145.981 342.174 145.771L349.099 101.212C349.099 101.011 349.053 100.807 348.958 100.596C348.878 100.396 348.748 100.255 348.573 100.175ZM385.705 114.219L383.531 114.395L382.444 121.285C382.444 121.521 382.339 121.725 382.129 121.9C381.953 122.076 381.75 122.182 381.515 122.217L361.669 123.746L360.81 128.896L364.369 128.632L364.509 127.754L384.355 126.224C384.59 126.2 384.804 126.112 385.004 125.961C385.179 125.76 385.284 125.556 385.32 125.345L386.827 115.449C386.862 115.214 386.834 115.01 386.74 114.834C386.659 114.634 386.519 114.49 386.319 114.395C386.108 114.254 385.905 114.194 385.705 114.219ZM390.614 96.8875C390.449 96.7715 390.281 96.7293 390.106 96.7645L387.879 96.9402L386.792 103.971C386.757 104.207 386.659 104.404 386.494 104.569C386.284 104.72 386.063 104.808 385.828 104.833L364.281 106.45V106.502L363.457 111.653L366.981 111.389L367.121 110.563V110.51L388.703 108.893C388.938 108.868 389.141 108.77 389.317 108.594C389.492 108.418 389.608 108.214 389.667 107.979L391.193 97.9949C391.252 97.7594 391.235 97.5555 391.14 97.3797C391.024 97.1687 390.877 97.0211 390.702 96.9402C390.677 96.9051 390.649 96.8875 390.614 96.8875Z" fill="#1918BE"/>
<path d="M167.871 109.069C166.504 108.988 165.049 109.005 163.506 109.121C156.342 109.638 150.017 112.314 144.536 117.154C139.077 121.925 135.84 127.754 134.824 134.644C133.772 141.57 135.269 147.23 139.312 151.624C139.336 151.659 139.364 151.687 139.399 151.712C143.432 156.025 149.175 157.899 156.633 157.337C163.891 156.785 170.231 154.057 175.655 149.145C181.055 144.34 184.274 138.518 185.315 131.673V131.638C185.315 131.603 185.333 131.586 185.368 131.586C186.15 126.734 185.613 122.505 183.755 118.895C182.994 117.443 182.019 116.072 180.827 114.781C177.521 111.326 173.201 109.42 167.871 109.069ZM169.379 124.607C170.22 125.486 170.817 126.495 171.167 127.631C171.553 128.931 171.63 130.415 171.395 132.078V132.201C170.929 135.435 169.372 138.23 166.732 140.585C166.697 140.585 166.668 140.596 166.644 140.62C164.004 142.87 161.114 144.125 157.983 144.382C155.518 144.582 153.453 144.073 151.794 142.853C151.398 142.596 151.034 142.273 150.707 141.886C148.944 140.058 148.288 137.615 148.744 134.556V134.468C149.189 131.188 150.714 128.351 153.32 125.961C155.844 123.641 158.762 122.347 162.068 122.076C165.199 121.819 167.636 122.649 169.379 124.572V124.607ZM235.246 104.569C235.046 104.463 234.85 104.411 234.65 104.411L223.412 105.325C223.177 105.325 222.974 105.395 222.798 105.536C222.599 105.711 222.483 105.929 222.448 106.186L218.924 128.72L202.339 107.364C202.223 107.223 202.076 107.125 201.9 107.065C201.76 106.984 201.602 106.952 201.427 106.977L192.626 107.68C192.37 107.68 192.153 107.768 191.977 107.944C191.802 108.12 191.686 108.32 191.627 108.541L188.454 129.371L186.543 141.886L184.789 153.065C184.765 153.276 184.796 153.48 184.877 153.68C184.972 153.881 185.115 154.039 185.315 154.155C185.526 154.25 185.729 154.296 185.929 154.296L188.155 154.12L197.114 153.452C197.349 153.406 197.563 153.304 197.763 153.153C197.938 152.977 198.043 152.773 198.079 152.538L201.427 130.32L217.714 151.36C217.83 151.511 217.96 151.631 218.1 151.712C218.275 151.772 218.451 151.8 218.626 151.8L227.9 151.097C228.135 151.037 228.349 150.938 228.549 150.798C228.724 150.622 228.822 150.418 228.847 150.183L235.299 108.629L235.772 105.624C235.772 105.423 235.73 105.219 235.649 105.008C235.555 104.833 235.421 104.685 235.246 104.569ZM241.259 104.182C241.06 104.333 240.944 104.541 240.909 104.797L234.071 149.356C234.047 149.557 234.078 149.743 234.159 149.919C234.254 150.13 234.387 150.295 234.562 150.411C234.762 150.527 234.958 150.569 235.158 150.534L237.385 150.358L269.556 147.915C269.791 147.89 269.994 147.792 270.169 147.616C270.345 147.44 270.443 147.237 270.467 147.001L271.607 139.671L272.08 136.665C272.08 136.454 272.038 136.251 271.958 136.05C271.863 135.874 271.73 135.727 271.554 135.611C271.355 135.495 271.151 135.435 270.941 135.435L252.971 136.824L249.447 137.087L254.11 107.241L254.531 104.235C254.566 103.999 254.538 103.796 254.443 103.62C254.363 103.444 254.222 103.296 254.023 103.18C253.847 103.04 253.644 102.98 253.409 103.005L241.873 103.883C241.638 103.908 241.435 104.006 241.259 104.182ZM282.705 101.563L280.566 115.397L275.867 146.087C275.843 146.323 275.874 146.526 275.955 146.702C276.036 146.903 276.165 147.061 276.341 147.177C276.551 147.293 276.754 147.335 276.954 147.3L279.181 147.124L288.543 146.439C288.764 146.403 288.964 146.315 289.139 146.175C289.314 145.999 289.43 145.795 289.49 145.56L295.889 104.006L296.327 101.001C296.362 100.79 296.334 100.586 296.239 100.385C296.124 100.185 295.976 100.041 295.801 99.946C295.601 99.83 295.405 99.7703 295.205 99.7703L283.669 100.684C283.434 100.684 283.213 100.772 283.003 100.948C282.827 101.124 282.729 101.328 282.705 101.563ZM346.223 97.1512C346.223 96.9508 346.195 96.754 346.135 96.5536C346.04 96.3778 345.896 96.2301 345.697 96.1141C345.497 95.9981 345.293 95.9489 345.083 95.9735L333.898 96.7997C333.642 96.8348 333.424 96.9227 333.249 97.0633C333.074 97.2391 332.969 97.4606 332.933 97.7313L329.374 120.248L312.789 98.909C312.674 98.7578 312.526 98.6383 312.351 98.5574C312.2 98.4976 312.042 98.4801 311.878 98.5047L303.077 99.1726C302.821 99.1972 302.614 99.2957 302.463 99.4714C302.263 99.6121 302.148 99.816 302.112 100.087L295.293 144.593C295.257 144.804 295.282 145.008 295.363 145.208C295.457 145.419 295.591 145.584 295.766 145.7C295.966 145.781 296.169 145.823 296.38 145.823L298.589 145.648L307.565 144.997C307.8 144.937 308.014 144.832 308.214 144.681C308.389 144.505 308.487 144.305 308.512 144.083L311.878 121.812L328.2 142.905C328.28 143.046 328.41 143.144 328.586 143.204C328.726 143.285 328.884 143.327 329.059 143.327L338.386 142.642C338.586 142.582 338.789 142.477 338.999 142.325C339.164 142.15 339.262 141.949 339.297 141.728L345.732 100.175L346.223 97.1512ZM387.843 92.8799C387.668 92.7639 387.475 92.7041 387.265 92.7041L353.27 95.3759C353.035 95.3759 352.832 95.4567 352.657 95.622C352.457 95.7977 352.341 96.0016 352.306 96.2372L351.044 104.569L345.469 140.761C345.444 140.997 345.476 141.2 345.556 141.376C345.651 141.577 345.795 141.735 345.995 141.851C346.17 141.967 346.373 142.009 346.608 141.974L348.782 141.816L380.392 139.408C380.627 139.372 380.83 139.284 381.006 139.144C381.206 138.943 381.321 138.74 381.356 138.529L382.443 131.515L382.917 128.492C382.917 128.292 382.871 128.088 382.776 127.877C382.696 127.711 382.556 127.571 382.356 127.455C382.18 127.339 381.977 127.279 381.742 127.279L364.368 128.633L360.809 128.896L361.668 123.746L381.514 122.217C381.749 122.182 381.952 122.076 382.128 121.9C382.338 121.725 382.443 121.521 382.443 121.285L383.53 114.395L383.969 111.389C383.993 111.178 383.962 110.974 383.881 110.774C383.786 110.598 383.643 110.45 383.443 110.334C383.267 110.218 383.075 110.159 382.864 110.159L366.98 111.389L363.456 111.653L364.28 106.502V106.45L385.827 104.833C386.062 104.808 386.283 104.72 386.493 104.569C386.658 104.404 386.756 104.207 386.791 103.971L387.878 96.9403L388.352 93.9345C388.387 93.7236 388.359 93.5197 388.264 93.3193C388.183 93.1435 388.043 92.9959 387.843 92.8799Z" fill="#36FBEF"/>
<path d="M171.396 132.201V132.078C171.631 130.415 171.554 128.932 171.168 127.631C169.52 126.4 167.444 125.891 164.944 126.102C161.638 126.358 158.71 127.666 156.161 130.021C153.541 132.412 152.03 135.249 151.62 138.529V138.617C151.364 140.188 151.42 141.598 151.795 142.853C153.454 144.073 155.519 144.583 157.984 144.382C161.115 144.126 164.004 142.871 166.645 140.621C166.669 140.596 166.697 140.585 166.732 140.585C169.373 138.23 170.929 135.435 171.396 132.201ZM102.513 104.182C99.7676 104.383 98.1898 106.011 97.7795 109.069L90.2058 169.694C89.8201 172.752 91.0052 174.183 93.7647 173.983L138.874 170.573H138.734L180.828 167.303L177.83 153.804C172.525 158.314 166.399 160.835 159.457 161.362C151.977 161.949 146.22 160.054 142.188 155.685L142.135 155.649C141.038 154.419 140.126 153.108 139.4 151.712C139.365 151.687 139.337 151.659 139.312 151.624C135.27 147.23 133.772 141.57 134.824 134.644C135.841 127.754 139.078 121.925 144.537 117.155C150.017 112.314 156.343 109.639 163.506 109.122C165.049 109.006 166.504 108.988 167.872 109.069L165.68 99.2959L102.513 104.182ZM102.478 148.97V148.917C102.944 145.191 104.571 142.051 107.352 139.496C110.168 136.964 113.478 135.551 117.275 135.259C121.167 134.943 124.228 135.973 126.462 138.353H126.514C126.514 138.388 126.525 138.406 126.549 138.406C127.941 139.942 128.769 141.728 129.039 143.767C129.119 143.883 129.221 143.988 129.337 144.083H129.372V144.119C131.641 146.569 132.429 149.68 131.739 153.452C131.118 156.922 129.435 159.85 126.69 162.241C123.93 164.677 120.736 166.045 117.1 166.336C113.267 166.628 110.234 165.658 108.001 163.419C106.493 161.932 105.609 160.068 105.353 157.829C105.294 157.794 105.238 157.748 105.178 157.688C102.969 155.544 102.068 152.637 102.478 148.97ZM348.783 141.816L346.609 141.974C346.374 142.009 346.171 141.967 345.995 141.851C345.795 141.735 345.652 141.577 345.557 141.376C345.476 141.201 345.445 140.997 345.469 140.761L351.045 104.569L341.384 85.814L275.342 90.8763L280.567 115.397L282.705 101.563C282.73 101.328 282.828 101.124 283.003 100.948C283.214 100.772 283.435 100.685 283.67 100.685L295.206 99.7705C295.405 99.7705 295.602 99.8303 295.802 99.9463C295.977 100.041 296.124 100.185 296.24 100.386C296.335 100.586 296.363 100.79 296.328 101.001L295.889 104.007L298.063 103.831C298.274 103.806 298.477 103.856 298.677 103.972C298.852 104.088 298.985 104.235 299.08 104.411C299.161 104.611 299.203 104.808 299.203 105.009L292.33 149.585C292.295 149.807 292.19 150.007 292.015 150.183C291.815 150.334 291.601 150.439 291.366 150.499L288.105 150.763L289.806 158.866L375.519 152.327L371.417 144.347L349.432 146.034C349.211 146.034 349.011 145.992 348.835 145.911C348.66 145.771 348.527 145.613 348.432 145.437C348.317 145.226 348.285 145.022 348.345 144.822L348.783 141.816ZM346.136 96.5538C346.195 96.7542 346.223 96.9511 346.223 97.1515L345.732 100.175L347.959 99.999C348.159 99.999 348.362 100.059 348.573 100.175C348.748 100.256 348.878 100.396 348.958 100.597C349.053 100.808 349.098 101.011 349.098 101.212L342.173 145.771C342.138 145.982 342.023 146.186 341.823 146.386C341.647 146.537 341.444 146.625 341.209 146.65L331.935 147.353C331.759 147.353 331.584 147.325 331.409 147.265C331.269 147.17 331.139 147.072 331.023 146.966L314.736 125.873L311.387 148.144C311.363 148.344 311.247 148.541 311.037 148.741C310.862 148.893 310.662 148.98 310.441 149.005L299.238 149.884C299.017 149.884 298.817 149.824 298.642 149.708C298.431 149.592 298.284 149.445 298.204 149.269C298.109 149.068 298.081 148.864 298.116 148.654L298.589 145.648L296.38 145.824C296.17 145.824 295.966 145.781 295.767 145.701C295.591 145.585 295.458 145.419 295.363 145.208C295.283 145.008 295.258 144.804 295.293 144.593L302.113 100.087C302.148 99.8162 302.264 99.6123 302.464 99.4717C302.615 99.2959 302.821 99.1975 303.077 99.1729L311.878 98.5049C312.043 98.4803 312.201 98.4979 312.352 98.5577C312.527 98.6385 312.674 98.758 312.79 98.9092L329.375 120.248L332.934 97.7315C332.969 97.4608 333.074 97.2393 333.25 97.0636C333.425 96.9229 333.642 96.8351 333.898 96.7999L345.084 95.9738C345.294 95.9491 345.497 95.9984 345.697 96.1144C345.897 96.2304 346.041 96.378 346.136 96.5538Z" fill="#3836FA"/>
<path d="M280.566 115.397L275.341 90.876L239.787 93.6708C238.886 94.3387 237.928 94.9786 236.912 95.5867V95.6219C229.418 100.343 220.477 102.706 210.088 102.706C201.417 102.706 193.93 101.018 187.63 97.6433L165.68 99.2956L167.871 109.069C173.201 109.42 177.521 111.326 180.827 114.781C182.019 116.072 182.994 117.443 183.755 118.895C186.479 121.837 188.043 125.328 188.454 129.371L191.627 108.541C191.686 108.32 191.802 108.12 191.977 107.944C192.153 107.768 192.37 107.68 192.626 107.68L201.427 106.977C201.602 106.952 201.76 106.984 201.9 107.065C202.076 107.125 202.223 107.223 202.339 107.364L218.924 128.72L222.448 106.186C222.483 105.929 222.599 105.711 222.798 105.536C222.974 105.395 223.177 105.325 223.412 105.325L234.65 104.411C234.85 104.411 235.046 104.463 235.246 104.569C235.421 104.685 235.555 104.833 235.649 105.008C235.73 105.219 235.772 105.423 235.772 105.624L235.299 108.629L237.473 108.453C237.708 108.453 237.911 108.513 238.086 108.629C238.286 108.724 238.43 108.868 238.524 109.069C238.605 109.28 238.637 109.484 238.612 109.684L231.687 154.243C231.652 154.478 231.547 154.665 231.371 154.805C231.196 154.981 230.996 155.087 230.775 155.122L221.501 155.825C221.291 155.825 221.115 155.797 220.975 155.737C220.824 155.677 220.695 155.572 220.589 155.421L204.302 134.345L200.901 156.598C200.877 156.834 200.778 157.038 200.603 157.213C200.393 157.354 200.189 157.442 199.989 157.477L188.752 158.356C188.552 158.356 188.355 158.296 188.155 158.18C187.98 158.085 187.847 157.941 187.752 157.741C187.672 157.53 187.64 157.326 187.665 157.126L188.155 154.12L185.929 154.296C185.729 154.296 185.526 154.25 185.315 154.155C185.115 154.039 184.972 153.881 184.877 153.68C184.796 153.48 184.765 153.276 184.789 153.065L186.543 141.886C184.884 146.14 182.212 149.912 178.531 153.206C178.296 153.406 178.064 153.603 177.829 153.803L180.827 167.303L289.805 158.866L288.105 150.763L279.829 151.36C279.595 151.36 279.391 151.318 279.216 151.237C279.016 151.086 278.872 150.928 278.778 150.763C278.697 150.552 278.665 150.348 278.69 150.147L279.181 147.124L276.954 147.3C276.754 147.335 276.551 147.293 276.341 147.177C276.165 147.061 276.036 146.903 275.955 146.702C275.874 146.526 275.843 146.322 275.867 146.087L280.566 115.397ZM240.909 104.797C240.944 104.541 241.06 104.333 241.259 104.182C241.435 104.006 241.638 103.908 241.873 103.883L253.409 103.004C253.644 102.98 253.847 103.04 254.023 103.18C254.222 103.296 254.363 103.444 254.443 103.62C254.538 103.795 254.566 103.999 254.531 104.235L254.11 107.241L256.284 107.065C256.484 107.04 256.68 107.1 256.88 107.241C257.091 107.321 257.224 107.469 257.284 107.68C257.364 107.856 257.406 108.042 257.406 108.243L252.971 136.824L270.941 135.435C271.151 135.435 271.355 135.495 271.554 135.611C271.73 135.727 271.863 135.874 271.958 136.05C272.038 136.251 272.08 136.454 272.08 136.665L271.607 139.671L273.781 139.495C274.016 139.46 274.219 139.52 274.395 139.671C274.594 139.752 274.735 139.9 274.815 140.111C274.91 140.286 274.938 140.487 274.903 140.708L273.343 151.061C273.318 151.297 273.22 151.501 273.045 151.677C272.834 151.817 272.613 151.905 272.378 151.94L238.034 154.594C237.834 154.594 237.63 154.552 237.42 154.471C237.22 154.32 237.08 154.155 236.999 153.979C236.94 153.779 236.922 153.582 236.947 153.382L237.385 150.358L235.158 150.534C234.958 150.569 234.762 150.527 234.562 150.411C234.387 150.295 234.254 150.13 234.159 149.919C234.078 149.743 234.047 149.557 234.071 149.356L240.909 104.797Z" fill="url(#paint3_radial_21847_76611)"/>
<path d="M102.477 148.917V148.97C102.067 152.636 102.968 155.544 105.177 157.688C105.237 157.748 105.293 157.794 105.352 157.829C107.561 159.984 110.517 160.898 114.223 160.571C117.881 160.314 121.078 158.961 123.813 156.511C126.594 154.131 128.277 151.209 128.863 147.739C129.119 146.323 129.178 144.997 129.038 143.767C128.768 141.728 127.94 139.942 126.548 138.406C126.524 138.406 126.513 138.388 126.513 138.353H126.461C124.227 135.973 121.166 134.943 117.274 135.259C113.477 135.551 110.167 136.964 107.351 139.496C104.57 142.051 102.943 145.191 102.477 148.917Z" fill="#FB4EA2"/>
<path d="M391 81.9995C390.947 82.0135 390.891 82.0171 390.825 82.0171C389.804 82.0979 388.784 82.1753 387.756 82.2456L341.385 85.8138L351.045 104.569L352.307 96.2373C352.342 96.0017 352.458 95.7978 352.658 95.622C352.833 95.4568 353.036 95.376 353.271 95.376L387.266 92.7042C387.476 92.7042 387.669 92.7639 387.844 92.88C388.044 92.996 388.184 93.1436 388.265 93.3194C388.36 93.5198 388.388 93.7237 388.353 93.9346L387.879 96.9404L390.106 96.7646C390.281 96.7294 390.449 96.7716 390.614 96.8876C390.649 96.8876 390.677 96.9052 390.702 96.9404C390.877 97.0212 391.024 97.1689 391.14 97.3798C391.235 97.5556 391.252 97.7595 391.193 97.995L389.667 107.979C389.608 108.215 389.492 108.418 389.317 108.594C389.141 108.77 388.938 108.868 388.703 108.893L367.122 110.51V110.563L366.981 111.389L382.865 110.159C383.075 110.159 383.268 110.218 383.444 110.334C383.643 110.45 383.787 110.598 383.882 110.774C383.963 110.974 383.994 111.178 383.97 111.389L383.531 114.395L385.705 114.219C385.905 114.194 386.108 114.254 386.319 114.395C386.519 114.49 386.659 114.634 386.74 114.834C386.834 115.01 386.862 115.214 386.827 115.449L385.32 125.346C385.285 125.557 385.179 125.76 385.004 125.961C384.804 126.112 384.59 126.2 384.355 126.224L364.509 127.754L364.369 128.633L381.743 127.279C381.978 127.279 382.181 127.339 382.357 127.455C382.557 127.571 382.697 127.712 382.777 127.877C382.872 128.088 382.918 128.292 382.918 128.492L382.444 131.515L384.618 131.34C384.818 131.304 385.022 131.364 385.232 131.515C385.397 131.596 385.523 131.737 385.618 131.937C385.733 132.113 385.775 132.306 385.74 132.517L384.18 142.554C384.145 142.79 384.047 142.986 383.882 143.152C383.672 143.327 383.468 143.433 383.268 143.468L371.417 144.347L375.519 152.327L392.893 150.921C395.639 150.72 397.217 149.11 397.627 146.087L403.938 95.499L405.06 84.0736C405.474 82.2034 404.678 81.2296 402.676 81.1558L391.543 81.9643L391 81.9995Z" fill="url(#paint4_linear_21847_76611)"/>
<path d="M256.319 19.8981C256.238 19.6977 256.119 19.5395 255.968 19.4235C246.631 12.4733 236.157 9 224.551 9C214.162 9 205.435 11.3273 198.376 15.9783H198.341C191.258 20.573 187.079 26.9888 185.806 35.2256C185.746 35.658 185.69 36.0799 185.631 36.4912C185.34 39.163 185.438 41.6168 185.929 43.8562C186.279 45.519 186.816 47.0975 187.542 48.5845C187.601 48.6654 187.64 48.7673 187.664 48.8833C189.617 52.7504 192.871 56.1534 197.43 59.0959H197.465L197.517 59.1486C200.557 61.0013 204.775 63.209 210.175 65.7753C210.235 65.7999 210.28 65.8105 210.315 65.8105C212.945 66.9249 214.569 67.6561 215.189 68.0077C217.479 69.1326 219.018 70.1345 219.8 71.0134C220.547 71.9169 220.842 72.9364 220.677 74.0719V74.1071C220 77.1655 217.153 78.6948 212.139 78.6948C208.397 78.6948 204.712 77.6929 201.076 75.689C197.805 73.8258 195.063 71.5407 192.854 68.8338C192.703 68.6826 192.556 68.5772 192.415 68.5174C192.216 68.4577 192.03 68.4471 191.854 68.4823C191.644 68.5069 191.469 68.5772 191.328 68.6932L174.656 83.5462C173.839 84.295 173.839 85.1703 174.656 86.1652C176.048 88.1093 177.573 89.8846 179.232 91.4912C181.721 93.9274 184.519 95.9805 187.629 97.6433C193.93 101.018 201.416 102.706 210.088 102.706C220.477 102.706 229.418 100.343 236.911 95.6219V95.5868C237.928 94.9786 238.885 94.3388 239.786 93.6708C240.127 93.379 240.47 93.0837 240.821 92.7919C246.08 88.1058 249.299 82.5443 250.481 76.1109C250.516 75.9457 250.544 75.7769 250.569 75.6011V75.4605C252.227 66.2394 248.665 58.6037 239.874 52.557H239.822L239.786 52.5043C236.641 50.2649 231.213 47.5475 223.499 44.3484V44.2956C219.372 42.4922 216.662 41.1246 215.365 40.2001C215.33 40.1649 215.302 40.1473 215.277 40.1473L215.224 40.1122C213.973 39.2333 213.464 38.1154 213.699 36.7549C213.699 36.7197 213.717 36.7021 213.752 36.7021C214.148 33.8546 216.89 32.4308 221.974 32.4308C227.549 32.4308 233.685 34.4698 240.383 38.5478C240.593 38.6884 240.828 38.7411 241.084 38.706C241.34 38.6603 241.575 38.5302 241.785 38.3193L256.196 20.9527C256.277 20.7769 256.337 20.6012 256.372 20.4254C256.431 20.225 256.414 20.0492 256.319 19.8981Z" fill="white"/>
<path d="M481.745 28.6341C480.518 26.6302 479.108 24.7073 477.52 22.8687C469.385 13.6686 458.077 9.07031 443.596 9.07031C432.28 9.07031 422.038 11.8651 412.862 17.4548C410.664 18.7661 408.532 20.2672 406.463 21.9546C399.159 27.8009 393.875 34.7862 390.614 42.907C389.107 46.6334 388.037 50.6059 387.406 54.8245C385.958 64.341 387.027 72.7888 390.614 80.1713C390.905 80.7935 391.217 81.3912 391.544 81.9642C392.841 84.295 394.391 86.5097 396.189 88.6085C398.514 91.2803 401.098 93.5759 403.939 95.4989C408.847 98.7578 414.57 100.867 421.102 101.827C423.006 102.119 424.977 102.308 427.01 102.389C428.027 102.424 429.044 102.442 430.061 102.442C440.45 102.442 449.9 100.111 458.41 95.4461C458.491 95.4004 458.592 95.3477 458.708 95.288C461.723 93.6005 464.627 91.6213 467.421 89.3468C468.379 88.5628 469.29 87.7578 470.156 86.9386C470.447 86.682 470.742 86.4043 471.033 86.1125C471.268 85.9367 471.464 85.7504 471.629 85.55C474.599 82.6075 477.127 79.4506 479.22 76.0757C481.966 71.6216 483.996 66.7772 485.304 61.5392C485.714 59.9115 486.047 58.2416 486.303 56.5296C488.046 45.9585 486.524 36.66 481.745 28.6341ZM439.511 34.6632C445.868 34.6632 450.829 36.667 454.395 40.6747C457.937 44.7526 459.216 49.6849 458.235 55.4749C457.909 57.6299 457.323 59.6513 456.481 61.5392C455.791 63.086 454.939 64.5273 453.922 65.8632C452.789 67.294 451.467 68.6475 449.96 69.9236C445.261 73.7309 439.791 75.6363 433.55 75.6363C431.165 75.6363 428.984 75.3621 427.01 74.8102C424.812 74.202 422.845 73.2282 421.102 71.8923C420.261 71.2244 419.461 70.4404 418.7 69.5369C415.218 65.5187 413.925 60.5829 414.826 54.7367C415.587 49.7552 417.676 45.5507 421.102 42.116C421.768 41.4832 422.463 40.875 423.188 40.288C425.047 38.7763 427.035 37.581 429.149 36.7021C432.34 35.3416 435.794 34.6632 439.511 34.6632Z" fill="url(#paint5_linear_21847_76611)"/>
</g>
<defs>
<linearGradient id="paint0_linear_21847_76611" x1="-28.706" y1="195.005" x2="126.134" y2="40.5677" gradientUnits="userSpaceOnUse">
<stop stop-color="#E0D0DB"/>
<stop offset="1" stop-color="white"/>
</linearGradient>
<linearGradient id="paint1_linear_21847_76611" x1="273.536" y1="94.3212" x2="271.837" y2="61.4588" gradientUnits="userSpaceOnUse">
<stop stop-color="#E0D0DB"/>
<stop offset="1" stop-color="white"/>
</linearGradient>
<linearGradient id="paint2_linear_21847_76611" x1="339.96" y1="90.8831" x2="338.261" y2="58.0206" gradientUnits="userSpaceOnUse">
<stop stop-color="#E0D0DB"/>
<stop offset="1" stop-color="white"/>
</linearGradient>
<radialGradient id="paint3_radial_21847_76611" cx="0" cy="0" r="1" gradientUnits="userSpaceOnUse" gradientTransform="translate(221.536 97.5906) scale(52.031 52.1665)">
<stop stop-color="#1918BE"/>
<stop offset="0.97" stop-color="#3836FA"/>
</radialGradient>
<linearGradient id="paint4_linear_21847_76611" x1="378.188" y1="105.444" x2="397.138" y2="80.9011" gradientUnits="userSpaceOnUse">
<stop stop-color="#3836FA"/>
<stop offset="1" stop-color="#1918BE"/>
</linearGradient>
<linearGradient id="paint5_linear_21847_76611" x1="530.487" y1="-38.178" x2="420.744" y2="71.2834" gradientUnits="userSpaceOnUse">
<stop stop-color="#E0D0DB"/>
<stop offset="1" stop-color="white"/>
</linearGradient>
<clipPath id="clip0_21847_76611">
<rect width="476" height="165" fill="white" transform="translate(11 9)"/>
</clipPath>
</defs>
</svg>
