<svg width="200" height="95" viewBox="0 0 200 95" fill="none" xmlns="http://www.w3.org/2000/svg">
<path d="M129.685 11.2909C132.998 11.2909 135.709 14.0017 135.709 17.315V77.685C135.709 80.9983 132.998 83.7091 129.685 83.7091H69.315C66.0017 83.7091 63.2909 80.9983 63.2909 77.685V17.315C63.2909 14.0017 65.9587 11.2909 69.315 11.2909H129.685ZM129.685 10H69.315C65.2702 10 62 13.2702 62 17.315V77.685C62 81.7298 65.2702 85 69.315 85H129.685C133.73 85 137 81.7298 137 77.685V17.315C137 13.2702 133.73 10 129.685 10Z" fill="white"/>
<path fill-rule="evenodd" clip-rule="evenodd" d="M129.685 11.291H69.3151C65.9588 11.291 63.291 13.9588 63.291 17.3151V77.6852C63.291 80.9984 66.0019 83.7093 69.3151 83.7093H129.685C132.998 83.7093 135.709 80.9984 135.709 77.6852V17.3151C135.709 14.0019 132.998 11.291 129.685 11.291ZM103.738 35.3444V48.2962L107.353 47.4356V40.2927C107.353 38.6576 107.998 37.5388 109.246 37.0655C109.806 36.8074 110.408 36.6783 111.01 36.6783V33.4511C110.709 33.365 110.365 33.408 110.064 33.4941C107.998 34.0104 107.138 36.248 107.138 36.248V34.5268L103.738 35.3444ZM85.8811 52.5129C85.8811 52.5129 85.3217 51.6954 85.3217 48.7694V42.272L83.6006 42.7023V40.0345L85.3648 39.6042V36.7212L88.9792 35.8606V38.7436L91.518 38.1412V40.809L88.9792 41.4114V47.9949C88.9792 50.9639 89.7538 51.5663 89.7538 51.5663L85.8811 52.5129ZM92.8949 39.4752C92.2064 40.7661 91.8622 42.4442 91.8622 44.7678C91.8622 48.5544 92.981 51.1792 97.3699 50.1895C101.888 49.1138 102.232 46.0156 102.275 44.7678V44.2084L99.0051 44.9829C99.0051 44.9829 98.962 45.3702 98.962 45.4993C98.876 46.4459 98.5317 47.1774 97.3269 47.4356C95.95 47.7368 95.4767 46.7041 95.4767 44.5096V44.3805L102.447 42.7454V41.0673C102.49 37.9261 101.07 35.6026 97.1118 36.5062C95.0894 36.9365 93.7125 37.9261 92.8949 39.4752ZM95.4767 42.186C95.4767 40.2927 96.0791 39.174 97.2409 38.9158C98.5317 38.6576 98.962 39.3891 98.962 40.8091V41.3685L95.4767 42.186ZM123.144 37.1947C123.015 33.236 124.048 30.0949 128.437 29.1052C131.234 28.4597 132.31 29.1912 132.869 29.9227C133.385 30.6112 133.601 31.5148 133.601 32.7627V32.9778L130.158 33.7954V33.3221C130.158 31.816 129.728 31.2566 128.652 31.5148C127.361 31.8591 126.802 33.0639 126.802 35.5596V36.7214C126.802 39.2171 127.146 40.3789 128.652 40.0346C129.943 39.7764 130.115 38.6147 130.158 37.625V36.9795L133.601 36.162V36.6783C133.601 39.9486 131.879 42.014 128.609 42.7885C124.134 43.8212 123.274 41.2394 123.144 37.1947ZM115.614 37.7109C112.99 38.7866 111.225 39.7333 111.225 42.7453C111.225 44.9398 112.602 46.5319 115.184 45.9295C117.637 45.3271 118.368 43.5198 118.368 43.5198C118.454 43.9071 118.627 44.2943 118.799 44.6815L118.799 44.6816L122.069 43.9071C122.069 43.9071 121.553 43.5198 121.553 40.7229V35C121.553 32.5474 120.391 30.9983 116.819 31.8159C114.065 32.4613 112.473 33.6661 111.957 35.4734C111.785 36.1188 111.699 36.8073 111.742 37.4527L115.098 36.6782C115.098 36.5706 115.109 36.463 115.12 36.3555C115.13 36.2479 115.141 36.1403 115.141 36.0327C115.141 35.2152 115.744 34.5267 116.561 34.3546C117.766 34.0534 118.067 34.6558 118.067 35.3873C118.067 36.2479 117.981 36.7212 115.614 37.7109ZM116.303 39.6472C116.948 39.346 117.508 39.0018 118.067 38.6145V40.4217C118.067 41.7987 117.336 42.7883 116.26 43.0465C115.27 43.3047 114.711 42.7023 114.711 41.8417C114.711 40.852 115.227 40.1635 116.303 39.6472ZM67.0347 61.5922C65.8729 61.5922 64.9693 60.6456 64.9693 59.5268C64.9693 59.1396 65.0984 58.7523 65.3135 58.4081L65.3565 58.365H65.3996L70.3049 57.2032V60.9038H70.2188C70.0331 60.9466 69.8414 60.9907 69.6497 61.0347L69.6472 61.0353L69.647 61.0354L69.6465 61.0355C68.6847 61.2565 67.7231 61.4775 67.508 61.5492C67.4219 61.5492 67.3466 61.56 67.2713 61.5707C67.196 61.5815 67.1207 61.5922 67.0347 61.5922ZM64.9693 64.26C64.9693 65.3787 65.8729 66.3254 67.0347 66.3254H67.0347C67.2068 66.3254 67.3359 66.3254 67.508 66.2824C67.7231 66.2106 68.6854 65.9895 69.6476 65.7684C69.84 65.7242 70.0324 65.68 70.2188 65.6369H70.3049V61.9364L65.3996 63.0982H65.3565L65.3135 63.1412C65.0984 63.4855 64.9693 63.8727 64.9693 64.26ZM67.0347 71.1016C65.8729 71.1016 64.9693 70.155 64.9693 69.0362C64.9693 68.6489 65.0984 68.2617 65.3135 67.9174L65.3565 67.8744L70.3049 66.7126V70.4131H70.2188C69.6245 70.5672 68.9851 70.7101 68.4735 70.8243L68.4735 70.8243L68.4731 70.8244C67.9848 70.9335 67.6131 71.0166 67.508 71.0586C67.3359 71.1016 67.2068 71.1016 67.0347 71.1016ZM66.4749 36.205V57.0312L70.2615 56.1276V35.3444L66.4749 36.205ZM75.9414 55.2669C75.9414 53.976 74.9087 52.9433 73.6178 52.9433C72.3269 52.9433 71.2942 53.976 71.2942 55.2669V74.7161C71.2942 78.2015 74.1341 81.0414 77.6195 81.0414H84.246V72.9089V63.8727C84.246 62.84 83.7297 61.8934 82.8691 61.334L76.931 57.3323V66.4545C76.931 66.7127 76.7159 66.9708 76.4147 66.9708C76.1565 66.9708 75.8983 66.7557 75.8983 66.4545C75.9414 66.3254 75.9414 56.4717 75.9414 55.2669ZM75.7266 43.3909C76.415 42.057 77.6199 41.1103 79.0829 40.7661C81.7937 40.1206 82.6543 41.7127 82.6973 43.9502V53.2015L79.0829 54.0621V45.2841C79.0829 43.9072 78.4374 43.649 77.6629 43.8212C76.6302 44.0793 75.8987 45.1981 75.8987 46.6611V52.6852C74.909 51.7816 73.489 51.5664 72.2842 52.0397V42.7024L75.7266 41.9279V43.3909ZM131.363 27.4269C130.115 27.4269 129.126 26.4373 129.126 25.1894C129.126 23.9416 130.115 22.9519 131.363 22.9519C132.611 22.9519 133.601 23.9416 133.601 25.1894C133.558 26.4373 132.568 27.4269 131.363 27.4269ZM131.363 23.2531C130.287 23.2531 129.427 24.1137 129.427 25.1894C129.427 26.2651 130.287 27.1257 131.363 27.1257C132.439 27.1257 133.299 26.2651 133.299 25.1894C133.299 24.1567 132.439 23.2531 131.363 23.2531ZM131.493 23.8986H130.546V26.5664H130.976V25.4046H131.32C131.622 25.4046 131.708 25.5337 131.708 25.8349V26.3513C131.708 26.4374 131.751 26.5234 131.794 26.6095H132.267C132.181 26.5664 132.138 26.4804 132.138 26.3943V25.8349C132.138 25.4477 131.966 25.3186 131.708 25.2756C132.009 25.1895 132.181 24.9313 132.181 24.5871V24.458C132.138 24.1138 131.837 23.8556 131.493 23.8986ZM131.751 24.7592C131.751 24.9744 131.536 25.1034 131.32 25.1034H130.933V24.2429H131.32C131.622 24.2429 131.751 24.3719 131.751 24.6732V24.7592Z" fill="white"/>
</svg>
