<svg width="200" height="95" viewBox="0 0 200 95" fill="none" xmlns="http://www.w3.org/2000/svg">
<path d="M36.5878 72.2056L36.3158 74.0189C36.3158 74.2002 36.3158 74.3815 36.3158 74.5629C36.4064 74.7442 36.4971 74.9255 36.5878 75.1069C36.6784 75.2882 36.8598 75.3788 37.0411 75.4695C37.2224 75.5602 37.4037 75.6508 37.5851 75.6508H96.8794C97.0607 75.6508 97.242 75.6508 97.4234 75.5602C97.6047 75.4695 97.786 75.3788 97.8767 75.1975C98.058 75.0162 98.1487 74.9255 98.2393 74.7442C98.33 74.5629 98.33 74.3815 98.33 74.2002C98.33 74.1095 98.33 74.1096 98.33 74.0189L98.058 72.2056C97.9673 71.4803 98.2393 70.8456 98.602 70.3017C99.0553 69.7577 99.69 69.395 100.325 69.395C100.687 69.395 100.959 69.395 101.322 69.4857C101.685 69.5763 101.957 69.7577 102.229 69.939C102.501 70.1203 102.682 70.3923 102.863 70.755C103.045 71.027 103.135 71.3896 103.135 71.7523L103.407 73.5656C103.861 77.5548 101.594 81 97.6047 81H36.8598C32.8705 81 30.6039 77.4641 31.0573 73.5656L31.3292 71.7523C31.3292 71.3896 31.4199 71.1176 31.6012 70.755C31.7826 70.483 31.9639 70.211 32.2359 70.0297C32.5079 69.8483 32.7799 69.667 33.1425 69.5763C33.5052 69.4857 33.7772 69.4857 34.1398 69.4857C34.8651 69.5763 35.4091 69.939 35.8625 70.483C36.4971 70.8456 36.6784 71.4803 36.5878 72.2056Z" fill="white"/>
<path d="M91.1604 58.4247C92.4297 58.5154 93.699 58.0621 94.6963 57.1554C95.6936 56.2488 96.2376 55.0701 96.3282 53.8008C96.3282 53.7102 96.3282 53.6195 96.3282 53.5289C96.2376 50.7183 93.699 48.8143 90.7977 48.8143H84.9952C84.3606 48.8143 83.7259 48.5423 83.2726 48.089C82.8193 47.6357 82.5473 47.001 82.5473 46.3664C82.5473 45.7317 82.8193 45.0971 83.2726 44.6438C83.7259 44.1905 84.3606 43.9185 84.9952 43.9185H88.8938C91.523 43.8278 93.5177 42.1958 93.6083 39.7479C93.699 37.1187 91.4324 35.1241 88.7125 35.1241H79.3741V58.3341L91.1604 58.4247ZM98.3229 39.8386C98.3229 40.8359 98.1415 41.8332 97.7789 42.8305C97.4162 43.7371 96.7816 44.6438 96.0563 45.3691L95.8749 45.5504L96.0563 45.6411C97.5069 46.4571 98.6855 47.545 99.5015 48.9957C100.317 50.3556 100.861 51.9876 100.861 53.6195C100.861 56.1581 99.9548 58.6967 98.1415 60.51C96.3282 62.3233 93.8803 63.4112 91.3417 63.5019H76.8355C76.2008 63.5019 75.5662 63.2299 75.0222 62.6859C74.5689 62.2326 74.2969 61.5073 74.2969 60.8726V32.9481C74.2969 32.5855 74.3875 32.2228 74.4782 31.9508C74.5689 31.6788 74.7502 31.3162 75.0222 31.1348C75.2942 30.8628 75.5662 30.6815 75.8382 30.5908C76.1102 30.5002 76.4728 30.4095 76.8355 30.4095H88.6218C91.0697 30.3189 93.5177 31.2255 95.2403 32.9481C97.0536 34.6707 98.0509 37.028 98.1415 39.4759V39.8386" fill="white"/>
<path d="M52.2677 53.8913L52.3583 54.0726L52.449 53.8913C53.0836 52.078 53.8996 49.9927 54.7156 47.8168C55.5316 45.6408 56.4382 43.2836 57.3448 41.1076C58.2515 39.0224 59.0675 37.0277 59.8834 35.3051C60.4274 34.0358 61.0621 32.8572 61.7874 31.7692C62.15 31.3159 62.6034 30.9533 63.1473 30.6813C63.6913 30.4093 64.2353 30.3186 64.87 30.3186H65.5046C66.1393 30.3186 66.8646 30.4999 67.4086 30.9533C67.7712 31.3159 68.0432 31.7692 68.1339 32.3132L71.8511 61.1444C71.8511 61.507 71.8511 61.779 71.6698 62.051C71.5791 62.323 71.3978 62.595 71.2164 62.867C70.6725 63.3203 70.0378 63.5017 69.4032 63.411C68.7685 63.411 68.0432 63.2297 67.4992 62.867C67.2272 62.6857 67.0459 62.5044 66.9552 62.2324C66.7739 61.9604 66.6832 61.6884 66.6832 61.4164C66.5926 60.4191 66.4113 59.4218 66.3206 58.2431C66.2299 57.0645 65.5953 52.078 65.4139 50.8087C65.2326 49.5394 64.2353 41.3796 63.8727 38.3877V38.1157L62.694 40.6543C62.3314 41.4703 61.8781 42.5583 61.4247 43.7369C60.9714 44.9155 60.4274 46.1848 59.9741 47.5448C59.5208 48.9047 57.1635 55.4326 57.1635 55.4326C56.9822 56.0672 56.5289 57.2458 56.1662 58.3338C55.8036 59.4218 55.4409 60.4191 55.3502 60.6004C54.9876 61.4164 54.2623 61.9604 53.4463 62.2324C52.6303 62.5044 51.7237 62.4137 50.9077 62.051C50.273 61.6884 49.7291 61.2351 49.4571 60.6004C49.3664 60.4191 49.0038 59.4218 48.6411 58.3338C48.2784 57.2458 47.9158 56.0672 47.6438 55.4326C47.6438 55.4326 45.3772 48.8141 44.8332 47.5448C44.2892 46.2755 43.8359 44.9155 43.3826 43.7369C42.9293 42.5583 42.4759 41.4703 42.1133 40.6543L40.9346 38.2064V38.4784C40.572 41.3796 39.5747 49.5394 39.3934 50.8993C39.212 52.1686 38.668 57.1552 38.4867 58.3338C38.3054 59.4218 38.2147 60.5097 38.1241 61.4164C38.1241 61.6884 38.0334 61.9604 37.8521 62.2324C37.6707 62.5044 37.4894 62.6857 37.3081 62.867C36.7641 63.2297 36.1295 63.411 35.4948 63.411C34.8602 63.411 34.2255 63.2297 33.6815 62.867C33.5002 62.595 33.3189 62.323 33.2282 62.051C33.1375 61.779 33.0469 61.4164 33.0469 61.1444L36.6734 32.4039C36.7641 31.8599 37.0361 31.4066 37.3988 31.1346C37.9427 30.6813 38.5774 30.4999 39.3027 30.4999H39.9373C40.4813 30.4999 41.116 30.5906 41.66 30.8626C42.2039 31.1346 42.6573 31.4972 43.0199 31.9506C43.7452 33.0385 44.4705 34.2172 44.9239 35.4865C45.7398 37.2091 46.5558 39.113 47.4625 41.289C48.3691 43.4649 49.1851 45.6408 50.0917 47.9981C50.817 49.9927 51.633 51.9873 52.2677 53.8913Z" fill="white"/>
<path d="M45.103 13.0018H89.9818C94.243 13.0018 96.3282 16.1751 96.7816 20.4363L96.9629 21.7963C97.0536 22.5216 96.8722 23.1562 96.4189 23.7002C95.9656 24.2442 95.3309 24.6068 94.6963 24.6975C94.0616 24.7882 93.3363 24.5162 92.7924 24.0629C92.2484 23.6095 91.9764 22.9749 91.8857 22.3402L91.6137 20.9803C91.4324 19.3483 90.7977 18.1697 89.1658 18.1697H45.8284C44.1964 18.1697 43.5618 19.439 43.3804 20.9803L43.1991 22.2496C43.1084 22.9749 42.8364 23.6095 42.2925 23.9722C41.7485 24.4255 41.1138 24.6068 40.3885 24.6068C40.0259 24.6068 39.7539 24.4255 39.3912 24.3349C39.1192 24.1535 38.8472 23.9722 38.5752 23.7002C38.3939 23.4282 38.2126 23.1562 38.1219 22.7936C38.0312 22.4309 38.0312 22.0682 38.0312 21.7963L38.2126 20.4363C38.7566 16.1751 40.8418 12.9112 45.103 13.0018Z" fill="white"/>
<path d="M125.707 34.036C125.435 35.2146 125.072 36.4839 124.709 37.9346C124.347 39.3852 124.075 40.6545 123.712 41.8331C123.44 43.0117 123.078 44.1904 122.715 45.097C122.534 45.7317 122.262 46.457 121.99 47.0916C121.808 47.3636 121.536 47.6356 121.174 47.8169C120.811 47.9983 120.448 48.0889 120.086 47.9983C119.723 47.9983 119.451 47.9076 119.088 47.8169C118.907 47.7263 118.726 47.6356 118.544 47.5449C118.363 47.3636 118.272 47.1823 118.182 47.001C117.91 46.3663 117.638 45.641 117.456 45.0064C117.184 44.009 116.822 42.8304 116.459 41.5611C116.096 40.2012 115.824 38.8412 115.462 37.3906C115.099 35.9399 114.827 34.58 114.555 33.3107C114.283 32.0414 114.102 30.9534 113.92 30.0468C113.739 29.1401 113.648 28.5962 113.648 28.4148C113.648 28.3242 113.648 28.2335 113.648 28.2335V28.1428C113.648 27.9615 113.648 27.7802 113.739 27.5988C113.83 27.4175 113.92 27.3269 114.102 27.2362C114.374 26.9642 114.736 26.8735 115.19 26.8735C115.552 26.8735 115.824 26.9642 116.187 27.1455C116.459 27.3269 116.64 27.6895 116.731 28.0522C116.731 28.0522 116.822 28.4148 116.912 29.0495C117.003 29.6841 117.184 30.4094 117.366 31.3161C117.547 32.2227 117.728 33.3107 118 34.3987C118.182 35.5773 118.454 36.6653 118.726 37.8439C118.998 39.0225 119.27 40.1105 119.451 41.1985C119.723 42.2864 119.904 43.2837 120.176 44.009C120.358 43.2837 120.63 42.3771 120.902 41.4705C121.174 40.4731 121.446 39.4758 121.718 38.5692C121.99 37.5719 122.262 36.4839 122.443 35.4866C122.715 34.4893 122.896 33.492 123.077 32.676C123.259 31.7694 123.44 31.0441 123.621 30.3188C123.803 29.5935 123.893 29.1401 123.984 28.7775C124.075 28.4148 124.256 28.0522 124.619 27.7802C124.891 27.5082 125.253 27.3269 125.707 27.3269C126.16 27.3269 126.523 27.4175 126.885 27.6895C127.157 27.9615 127.429 28.3242 127.429 28.6868C127.701 29.7748 127.973 30.9534 128.245 32.3134C128.517 33.6733 128.789 34.9426 129.152 36.3026C129.515 37.6626 129.787 39.0225 130.149 40.2918C130.512 41.5611 130.784 42.7397 131.147 43.7371C131.328 42.9211 131.6 42.0144 131.872 40.9265C132.144 39.8385 132.325 38.6599 132.597 37.5719C132.869 36.3933 133.141 35.3053 133.323 34.1267C133.595 32.948 133.776 31.9507 133.957 31.0441C134.139 30.1374 134.32 29.4121 134.411 28.8681C134.501 28.3242 134.592 27.9615 134.592 27.9615C134.682 27.5988 134.864 27.3269 135.136 27.1455C135.408 26.9642 135.77 26.8735 136.133 26.8735C136.496 26.8735 136.858 26.9642 137.221 27.2362C137.312 27.3269 137.493 27.5082 137.584 27.5988C137.674 27.7802 137.674 27.9615 137.674 28.1428V28.2335C137.674 28.3242 137.674 28.4148 137.674 28.5055C137.674 28.6868 137.584 29.2308 137.402 30.1374C137.221 31.0441 137.04 32.1321 136.768 33.3107C136.496 34.58 136.224 35.9399 135.861 37.3906C135.498 38.8412 135.226 40.2012 134.864 41.5611C134.592 42.9211 134.229 44.009 133.867 45.0064C133.685 45.7317 133.413 46.3663 133.141 47.001C132.96 47.4543 132.597 47.7263 132.144 47.9076C131.872 47.9983 131.509 48.0889 131.147 48.0889C131.056 48.0889 130.875 48.0889 130.784 48.0889C130.603 48.0889 130.421 47.9983 130.24 47.9983C130.059 47.9076 129.877 47.8169 129.696 47.7263C129.515 47.5449 129.333 47.3636 129.243 47.1823C128.971 46.5476 128.699 45.8223 128.517 45.097C128.245 44.0997 127.973 43.0117 127.611 41.8331C127.248 40.6545 126.976 39.2945 126.613 38.0252C126.251 36.7559 125.979 35.2146 125.707 34.036Z" fill="white"/>
<path d="M142.934 41.833C142.572 42.921 142.3 43.8276 142.028 44.7343C141.756 45.6409 141.574 46.3662 141.302 46.9102C141.212 47.2729 141.03 47.6355 140.758 47.9075C140.486 48.1795 140.033 48.2702 139.67 48.1795C139.308 48.0889 138.945 47.9075 138.673 47.6355C138.401 47.3635 138.311 46.9102 138.401 46.5476C138.401 46.3662 138.401 46.2756 138.492 46.0942L138.855 44.7343C139.127 44.009 139.398 43.0117 139.761 41.833C140.124 40.6544 140.577 39.4758 141.03 38.1158C141.484 36.7558 141.937 35.3959 142.39 34.1266C142.844 32.7666 143.388 31.588 143.841 30.4094C144.204 29.4121 144.657 28.5054 145.11 27.5988C145.292 27.2361 145.473 26.9641 145.836 26.8735C146.198 26.6921 146.652 26.6921 147.014 26.6921C147.468 26.6921 147.83 26.7828 148.284 26.8735C148.465 26.9641 148.556 27.0548 148.737 27.2361C148.828 27.3268 148.918 27.5081 149.009 27.6894C149.281 28.3241 149.644 29.2307 150.097 30.3187C150.55 31.4067 151.003 32.5853 151.457 33.9453C151.91 35.2146 152.454 36.5745 152.817 37.8438C153.27 39.1131 153.723 40.3824 154.086 41.561C154.449 42.7397 154.811 43.737 155.083 44.4623C155.355 45.2783 155.537 45.8223 155.627 46.0036C155.718 46.1849 155.718 46.2756 155.718 46.4569C155.718 46.6382 155.718 46.8196 155.627 47.0009C155.537 47.1822 155.446 47.3635 155.355 47.4542C155.174 47.6355 154.993 47.7262 154.811 47.7262C154.63 47.8169 154.449 47.8169 154.177 47.8169C153.905 47.8169 153.542 47.7262 153.361 47.5449C153.179 47.3635 152.998 47.0916 152.907 46.8196C152.726 46.2756 152.454 45.5503 152.091 44.6436C151.819 43.737 151.457 42.7397 151.094 41.7424L142.934 41.833ZM150.188 39.0225C149.734 37.5718 149.281 36.3025 148.918 35.1239C148.465 33.9453 148.102 32.8573 147.649 31.6787C147.558 31.4067 147.468 31.1347 147.286 30.8627C147.196 30.5 147.105 30.4094 147.105 30.3187C147.014 30.5 146.924 30.6814 146.924 30.8627C146.833 31.2253 146.652 31.4973 146.561 31.7693C146.108 32.8573 145.745 33.9453 145.292 35.2146C144.929 36.3932 144.476 37.7532 144.022 39.1131H150.188V39.0225Z" fill="white"/>
<path d="M161.248 39.6572C161.157 39.5665 161.066 39.3852 160.976 39.2945L160.613 38.8412C160.341 38.3879 159.979 37.8439 159.616 37.2093C159.253 36.5746 158.891 35.94 158.528 35.2146C158.165 34.58 157.803 33.764 157.531 33.1294C157.168 32.4041 156.896 31.7694 156.624 31.1348C156.352 30.5908 156.08 29.9561 155.899 29.5028C155.717 29.2308 155.627 28.8682 155.536 28.5055C155.536 28.4148 155.445 28.3242 155.445 28.2335C155.445 28.2335 155.445 28.1429 155.445 27.9615C155.445 27.7802 155.445 27.5989 155.536 27.4175C155.627 27.2362 155.717 27.0549 155.808 26.9642C155.989 26.7829 156.171 26.6922 156.352 26.6922C156.533 26.6016 156.715 26.6016 156.987 26.6016C157.168 26.6016 157.349 26.6016 157.531 26.6922C157.712 26.7829 157.893 26.8736 157.984 26.9642C158.165 27.1455 158.256 27.4175 158.347 27.5989L158.709 28.3242C158.891 28.6868 159.072 29.1402 159.344 29.6841C159.616 30.2281 159.888 30.8628 160.16 31.4974C160.432 32.1321 160.794 32.7667 161.157 33.492L162.064 35.3053C162.336 35.7586 162.608 36.3026 162.88 36.7559C163.333 35.94 163.786 35.2146 164.24 34.308C164.693 33.3107 165.237 32.4041 165.6 31.4974C165.962 30.5908 166.416 29.6841 166.778 29.0495L167.322 27.6895C167.413 27.4175 167.594 27.2362 167.685 27.0549C167.776 26.9642 167.957 26.8736 168.138 26.7829C168.32 26.6922 168.501 26.6922 168.682 26.6922C168.864 26.6922 169.136 26.6922 169.317 26.7829C169.498 26.8736 169.68 26.9642 169.861 27.1455C169.952 27.2362 170.133 27.4175 170.133 27.5989C170.224 27.7802 170.224 27.9615 170.224 28.1429C170.224 28.2335 170.224 28.3242 170.224 28.4148L170.133 28.6868L169.77 29.6841C169.589 30.1375 169.317 30.6814 169.045 31.3161C168.773 31.9507 168.501 32.5854 168.138 33.3107C167.776 33.9454 167.413 34.7613 167.05 35.396C166.688 36.1213 166.325 36.7559 165.962 37.3906C165.6 37.9346 165.237 38.5692 164.965 39.0225C164.784 39.2945 164.602 39.5665 164.33 39.7479V46.5477C164.33 46.729 164.33 46.9103 164.24 47.0916C164.149 47.273 164.058 47.4543 163.968 47.6356C163.696 47.9076 163.333 48.0889 162.97 48.0889C162.608 48.0889 162.245 47.9076 161.882 47.6356C161.701 47.4543 161.61 47.273 161.52 47.0916C161.429 46.9103 161.429 46.729 161.429 46.457V39.6572" fill="white"/>
<path d="M121.448 59.5126C121.448 60.1473 121.357 60.6006 121.267 61.1446C121.176 61.6886 120.995 62.0512 120.723 62.3232C120.451 62.6859 120.179 62.9579 119.816 63.1392C119.453 63.3205 119 63.4112 118.547 63.4112C118.365 63.4112 118.184 63.4112 118.003 63.3205C117.821 63.3205 117.64 63.2299 117.549 63.1392C117.368 63.0485 117.277 62.9579 117.096 62.8672C116.915 62.7765 116.824 62.5952 116.643 62.5046V65.6778C116.643 65.7685 116.643 65.7685 116.643 65.7685C116.643 65.7685 116.552 65.8591 116.461 65.8591C116.371 65.8591 116.28 65.9498 116.189 65.9498C116.099 65.9498 115.917 65.9498 115.736 65.9498C115.555 65.9498 115.373 65.9498 115.283 65.9498C115.192 65.9498 115.101 65.9498 115.011 65.8591C114.92 65.7685 114.92 65.7685 114.829 65.7685C114.739 65.7685 114.829 65.6778 114.829 65.6778V56.2487C114.829 56.1581 114.829 56.1581 114.829 56.1581L114.92 56.0674C115.011 56.0674 115.101 56.0674 115.192 55.9767C115.283 55.9767 115.464 55.9767 115.555 55.9767C115.736 55.9767 115.827 55.9767 115.917 55.9767C116.008 55.9767 116.099 55.9767 116.189 56.0674C116.28 56.0674 116.28 56.1581 116.28 56.1581V56.2487V57.0647C116.461 56.8834 116.643 56.7021 116.824 56.5207C117.005 56.3394 117.187 56.2487 117.368 56.1581C117.549 56.0674 117.731 55.9767 118.003 55.8861C118.275 55.7954 118.456 55.7954 118.637 55.7954C119.091 55.7954 119.544 55.8861 119.907 56.0674C120.269 56.2487 120.541 56.5207 120.723 56.8834C120.904 57.246 121.085 57.6087 121.176 58.062C121.448 58.5153 121.448 59.0593 121.448 59.5126ZM119.544 59.694C119.544 59.422 119.544 59.15 119.453 58.878C119.453 58.606 119.363 58.4247 119.272 58.1527C119.181 57.9714 119 57.79 118.909 57.6994C118.819 57.6087 118.547 57.518 118.275 57.518C118.184 57.518 118.003 57.518 117.912 57.6087C117.821 57.6087 117.64 57.6994 117.549 57.79C117.459 57.8807 117.277 57.9714 117.187 58.1527C117.096 58.2433 116.915 58.4247 116.733 58.6967V60.8726C117.005 61.2353 117.277 61.5072 117.459 61.6886C117.64 61.8699 117.912 61.9606 118.184 61.9606C118.456 61.9606 118.637 61.8699 118.819 61.7792C119 61.6886 119.091 61.5072 119.272 61.3259C119.363 61.1446 119.453 60.8726 119.544 60.6006C119.453 60.1473 119.544 59.8753 119.544 59.694Z" fill="white"/>
<path d="M128.704 62.9579C128.704 63.0485 128.704 63.0485 128.614 63.1392C128.523 63.1392 128.523 63.2299 128.342 63.2299C128.251 63.2299 128.07 63.2299 127.888 63.2299C127.707 63.2299 127.526 63.2299 127.435 63.2299C127.344 63.2299 127.254 63.1392 127.254 63.1392C127.254 63.1392 127.163 63.0485 127.163 62.9579V62.4139C126.891 62.6859 126.619 62.9579 126.256 63.1392C125.894 63.3205 125.531 63.4112 125.078 63.4112C124.715 63.4112 124.352 63.3205 124.08 63.2299C123.808 63.1392 123.536 62.9579 123.264 62.7765C122.992 62.5952 122.902 62.3232 122.72 62.1419C122.63 61.8699 122.539 61.5979 122.539 61.2353C122.539 60.8726 122.63 60.5099 122.811 60.238C122.992 59.966 123.174 59.694 123.536 59.5126C123.808 59.3313 124.171 59.15 124.624 59.0593C125.078 58.9687 125.622 58.9687 126.166 58.9687H126.8V58.606C126.8 58.4247 126.8 58.2433 126.71 58.062C126.619 57.8807 126.619 57.79 126.528 57.6994C126.438 57.6087 126.347 57.518 126.166 57.4274C125.984 57.3367 125.803 57.3367 125.531 57.3367C125.259 57.3367 124.896 57.3367 124.715 57.4274C124.534 57.518 124.262 57.6087 124.08 57.6994C123.899 57.79 123.718 57.8807 123.627 57.9713C123.536 58.062 123.355 58.062 123.355 58.062C123.264 58.062 123.264 58.062 123.174 57.9713C123.174 57.9713 123.083 57.8807 123.083 57.79C123.083 57.6994 122.992 57.6087 122.992 57.518C122.992 57.4274 122.992 57.3367 122.992 57.246C122.992 57.0647 122.992 56.974 122.992 56.8834C122.992 56.7927 123.083 56.7021 123.174 56.6114C123.264 56.5207 123.355 56.4301 123.536 56.3394C123.718 56.2487 123.899 56.1581 124.171 56.0674C124.443 55.9767 124.624 55.8861 124.896 55.8861C125.168 55.7954 125.44 55.7954 125.712 55.7954C126.256 55.7954 126.71 55.8861 127.072 55.9767C127.435 56.0674 127.707 56.2487 127.979 56.4301C128.251 56.6114 128.432 56.8834 128.523 57.246C128.614 57.6087 128.704 57.9713 128.704 58.4247V62.9579ZM126.8 60.1473H126.075C125.803 60.1473 125.531 60.1473 125.259 60.238C125.078 60.238 124.896 60.3286 124.715 60.4193C124.624 60.5099 124.443 60.6006 124.443 60.7819C124.352 60.8726 124.352 61.0539 124.352 61.2353C124.352 61.5072 124.443 61.7792 124.624 61.8699C124.806 62.0512 125.078 62.1419 125.35 62.1419C125.622 62.1419 125.894 62.0512 126.075 61.9606C126.256 61.8699 126.528 61.5979 126.71 61.3259V60.1473H126.8Z" fill="white"/>
<path d="M134.139 63.2296L133.324 65.5869C133.324 65.6775 133.142 65.7682 132.961 65.8589C132.78 65.9495 132.508 65.9495 132.054 65.9495C131.873 65.9495 131.692 65.9495 131.601 65.9495C131.51 65.9495 131.42 65.8589 131.329 65.8589C131.238 65.8589 131.238 65.7682 131.238 65.6775C131.238 65.5869 131.238 65.5869 131.238 65.4962L132.145 63.2296C132.054 63.2296 132.054 63.1389 131.964 63.0483C131.873 62.9576 131.873 62.9576 131.873 62.8669L129.606 56.7018C129.516 56.5205 129.516 56.4298 129.516 56.3391C129.516 56.2485 129.516 56.1578 129.606 56.1578C129.697 56.0671 129.788 56.0671 129.878 56.0671C130.06 56.0671 130.241 56.0671 130.422 56.0671C130.604 56.0671 130.785 56.0671 130.966 56.0671C131.057 56.0671 131.148 56.0671 131.238 56.1578C131.329 56.2485 131.329 56.2485 131.42 56.3391C131.42 56.4298 131.51 56.5205 131.51 56.6111L133.052 61.0537L134.502 56.5205C134.502 56.4298 134.593 56.3391 134.593 56.2485C134.683 56.2485 134.683 56.1578 134.865 56.1578C134.955 56.1578 135.137 56.1578 135.409 56.1578C135.59 56.1578 135.771 56.1578 135.953 56.1578C136.134 56.1578 136.225 56.2485 136.225 56.2485C136.315 56.3391 136.315 56.3391 136.315 56.4298C136.315 56.5205 136.315 56.6111 136.225 56.7925L134.139 63.2296Z" fill="white"/>
<path d="M148.189 62.9578C148.189 63.0484 148.189 63.0484 148.189 63.0484C148.189 63.0484 148.098 63.1391 148.008 63.1391C147.917 63.1391 147.826 63.1391 147.736 63.2298C147.645 63.2298 147.464 63.2298 147.282 63.2298C147.101 63.2298 146.92 63.2298 146.829 63.2298C146.738 63.2298 146.648 63.2298 146.557 63.1391C146.466 63.0484 146.466 63.0484 146.376 63.0484V62.9578V58.9686C146.376 58.7872 146.376 58.5152 146.285 58.3339C146.285 58.1526 146.194 57.9713 146.104 57.8806C146.013 57.7899 145.922 57.6086 145.741 57.6086C145.65 57.5179 145.469 57.5179 145.288 57.5179C145.106 57.5179 144.834 57.6086 144.562 57.7899C144.29 57.9713 144.109 58.2433 143.837 58.5152V62.9578C143.837 63.0484 143.837 63.0484 143.837 63.0484C143.837 63.0484 143.746 63.1391 143.656 63.1391C143.565 63.1391 143.474 63.1391 143.384 63.2298C143.293 63.2298 143.112 63.2298 142.93 63.2298C142.749 63.2298 142.568 63.2298 142.477 63.2298C142.386 63.2298 142.296 63.2298 142.205 63.1391C142.114 63.1391 142.114 63.0484 142.024 63.0484V62.9578V58.9686C142.024 58.7872 142.024 58.5152 141.933 58.3339C141.933 58.1526 141.842 57.9713 141.752 57.8806C141.661 57.7899 141.57 57.6086 141.389 57.6086C141.298 57.5179 141.117 57.5179 140.936 57.5179C140.664 57.5179 140.482 57.6086 140.21 57.7899C139.938 57.9713 139.757 58.2433 139.485 58.5152V62.9578C139.485 63.0484 139.485 63.0484 139.485 63.0484C139.485 63.0484 139.394 63.1391 139.304 63.1391C139.213 63.1391 139.123 63.1391 139.032 63.2298C138.941 63.2298 138.76 63.2298 138.579 63.2298C138.397 63.2298 138.216 63.2298 138.125 63.2298C138.035 63.2298 137.944 63.2298 137.853 63.1391C137.763 63.0484 137.763 63.0484 137.672 63.0484V62.9578V56.2486C137.672 56.158 137.672 56.158 137.672 56.158L137.763 56.0673C137.853 56.0673 137.944 56.0673 138.035 55.9766C138.125 55.886 138.307 55.9766 138.397 55.9766C138.579 55.9766 138.669 55.9766 138.76 55.9766C138.851 55.9766 138.941 55.9766 139.032 56.0673C139.123 56.0673 139.122 56.158 139.122 56.158V56.2486V57.0646C139.485 56.702 139.848 56.3393 140.21 56.158C140.573 55.9766 140.936 55.886 141.389 55.886C141.661 55.886 141.933 55.886 142.114 55.9766C142.296 56.0673 142.568 56.158 142.658 56.2486C142.84 56.3393 143.021 56.5206 143.112 56.6113C143.202 56.7926 143.384 56.8833 143.384 57.1553C143.565 56.974 143.746 56.7926 143.928 56.6113C144.109 56.43 144.29 56.3393 144.472 56.2486C144.653 56.158 144.834 56.0673 145.016 56.0673C145.197 55.9766 145.378 55.9766 145.56 55.9766C146.013 55.9766 146.376 56.0673 146.648 56.158C146.92 56.3393 147.192 56.5206 147.373 56.7926C147.554 57.0646 147.736 57.3366 147.736 57.6993C147.826 58.0619 147.826 58.4246 147.826 58.7872V62.9578H148.189Z" fill="white"/>
<path d="M156.176 59.4219C156.176 59.6939 156.086 59.7845 155.995 59.9659C155.904 60.0565 155.723 60.1472 155.542 60.1472H151.462C151.462 60.4192 151.462 60.6912 151.552 60.9632C151.643 61.2352 151.734 61.4165 151.915 61.5978C152.096 61.7792 152.278 61.8698 152.459 61.9605C152.731 62.0511 153.003 62.0511 153.275 62.0511C153.638 62.0511 153.91 62.0511 154.182 61.9605C154.454 61.8698 154.635 61.8698 154.816 61.7792C154.998 61.6885 155.179 61.6885 155.27 61.5978C155.36 61.5072 155.451 61.5072 155.542 61.5072H155.632L155.723 61.5978C155.723 61.5978 155.723 61.6885 155.723 61.7792C155.723 61.8698 155.723 61.9605 155.723 62.0511C155.723 62.1418 155.723 62.2325 155.723 62.3231C155.723 62.4138 155.723 62.5045 155.723 62.5045C155.723 62.5951 155.723 62.5951 155.723 62.6858L155.632 62.7765C155.632 62.7765 155.542 62.8671 155.36 62.9578C155.179 63.0484 154.998 63.0484 154.816 63.1391C154.635 63.2298 154.363 63.2298 154 63.3204C153.728 63.3204 153.366 63.4111 153.094 63.4111C152.459 63.4111 152.006 63.3204 151.552 63.2298C151.099 63.1391 150.736 62.8671 150.464 62.5045C150.192 62.2325 149.92 61.7792 149.83 61.3258C149.648 60.8725 149.648 60.3285 149.648 59.6939C149.648 59.0592 149.739 58.6059 149.92 58.0619C150.102 57.6086 150.283 57.1553 150.555 56.8833C150.827 56.5206 151.19 56.3393 151.643 56.158C152.096 55.9766 152.55 55.886 153.094 55.886C153.638 55.886 154.091 55.9766 154.544 56.158C154.907 56.3393 155.27 56.5206 155.542 56.8833C155.814 57.2459 155.995 57.5179 156.086 57.8806C156.176 58.2432 156.267 58.6966 156.267 59.1499V59.4219H156.176ZM154.363 58.8779C154.363 58.3339 154.272 57.9713 154 57.6086C153.728 57.3366 153.456 57.1553 152.912 57.1553C152.64 57.1553 152.459 57.1553 152.278 57.2459C152.096 57.3366 151.915 57.4273 151.824 57.6086C151.734 57.7899 151.643 57.9713 151.552 58.1526C151.462 58.3339 151.462 58.6059 151.462 58.7872H154.363V58.8779Z" fill="white"/>
<path d="M164.15 62.9579C164.15 63.0486 164.15 63.0486 164.15 63.0486C164.15 63.0486 164.059 63.1393 163.968 63.1393C163.878 63.1393 163.787 63.1393 163.696 63.2299C163.606 63.2299 163.424 63.2299 163.243 63.2299C163.062 63.2299 162.88 63.2299 162.79 63.2299C162.699 63.2299 162.608 63.2299 162.518 63.1393C162.427 63.1393 162.427 63.0486 162.336 63.0486V62.9579V59.15C162.336 58.7874 162.336 58.6061 162.246 58.4247C162.155 58.2434 162.155 58.0621 162.064 57.9714C161.974 57.8808 161.883 57.6994 161.702 57.6994C161.52 57.6088 161.43 57.6088 161.248 57.6088C160.976 57.6088 160.795 57.6994 160.523 57.8808C160.251 58.0621 159.979 58.3341 159.798 58.6061V63.0486C159.798 63.1393 159.798 63.1393 159.798 63.1393C159.798 63.1393 159.707 63.2299 159.616 63.2299C159.526 63.2299 159.435 63.2299 159.344 63.3206C159.254 63.3206 159.072 63.3206 158.891 63.3206C158.71 63.3206 158.528 63.3206 158.438 63.3206C158.347 63.3206 158.256 63.3206 158.166 63.2299C158.075 63.1393 158.075 63.1393 157.984 63.1393V63.0486V56.3395C157.984 56.2488 157.984 56.2488 157.984 56.2488L158.075 56.1581C158.075 56.1581 158.256 56.1581 158.347 56.0675C158.438 56.0675 158.619 56.0675 158.71 56.0675C158.891 56.0675 158.982 56.0675 159.072 56.0675C159.163 56.0675 159.254 56.0675 159.344 56.1581C159.435 56.2488 159.435 56.2488 159.435 56.2488V56.3395V57.1554C159.798 56.7928 160.16 56.4301 160.523 56.2488C160.886 56.0675 161.339 55.9768 161.702 55.9768C162.155 55.9768 162.518 56.0675 162.88 56.1581C163.152 56.3395 163.424 56.5208 163.606 56.7928C163.787 57.0648 163.968 57.3368 164.059 57.6994C164.15 58.0621 164.15 58.4247 164.15 58.9687V62.9579Z" fill="white"/>
<path d="M169.772 62.3232C169.772 62.5045 169.772 62.6858 169.772 62.8671C169.772 62.9578 169.682 63.0485 169.682 63.1391C169.682 63.2298 169.591 63.2298 169.5 63.2298C169.41 63.2298 169.319 63.3205 169.228 63.3205C169.138 63.3205 168.956 63.4111 168.866 63.4111C168.775 63.4111 168.594 63.4111 168.412 63.4111C168.05 63.4111 167.687 63.3205 167.415 63.2298C167.143 63.1391 166.871 62.9578 166.69 62.7765C166.508 62.5952 166.418 62.3232 166.327 62.0512C166.236 61.7792 166.236 61.4165 166.236 60.9632V57.518H165.42C165.33 57.518 165.239 57.4273 165.239 57.3366C165.148 57.246 165.148 57.0646 165.148 56.7927C165.148 56.6113 165.148 56.5207 165.148 56.43C165.148 56.3393 165.148 56.2487 165.239 56.158C165.33 56.0673 165.33 56.0673 165.33 56.0673H165.42H166.236V54.6167C166.236 54.5261 166.236 54.5261 166.236 54.5261C166.236 54.5261 166.327 54.4354 166.418 54.4354C166.508 54.4354 166.599 54.3447 166.69 54.3447C166.78 54.3447 166.962 54.3447 167.143 54.3447C167.324 54.3447 167.506 54.3447 167.596 54.3447C167.687 54.3447 167.778 54.3447 167.868 54.4354C167.959 54.5261 167.959 54.5261 168.05 54.5261V54.6167V56.0673H169.5C169.591 56.0673 169.591 56.0673 169.591 56.0673L169.682 56.158C169.682 56.2487 169.682 56.3393 169.772 56.43C169.772 56.5207 169.772 56.6113 169.772 56.7927C169.772 57.0646 169.772 57.246 169.682 57.3366C169.591 57.4273 169.591 57.518 169.5 57.518H168.05V60.6912C168.05 61.0539 168.14 61.3259 168.231 61.5072C168.322 61.6885 168.594 61.7792 168.866 61.7792C168.956 61.7792 169.047 61.7792 169.138 61.7792C169.228 61.7792 169.319 61.7792 169.319 61.6885C169.41 61.6885 169.41 61.6885 169.5 61.5979H169.591H169.682L169.772 61.6885C169.772 61.7792 169.772 61.7792 169.772 61.8698C169.772 62.0512 169.772 62.1418 169.772 62.3232Z" fill="white"/>
</svg>
