<svg width="200" height="95" viewBox="0 0 200 95" fill="none" xmlns="http://www.w3.org/2000/svg">
<path d="M173.213 36.8822C171.288 35.6274 168.349 35 164.499 35H154.416L150.667 54.3533H137.493L138.355 49.9614H146.309L147.272 45.0386H139.317L140.179 40.6467H148.336L149.451 35H132.832L129.285 53.3398H123.205L126.803 35H118.139L114.592 53.3398H108.664L112.16 35H103.496L99.7467 54.3533H86.472L87.3333 49.9614H95.288L96.2507 45.0386H88.296L89.1573 40.6467H97.416L98.4293 35H46.648L43.7093 50.3475L37.8827 35H28.864L24 60H32.6133L35.552 44.2664L41.2267 60H72.0827L75.832 40.6467H80.6453L76.896 60H158.013L160.344 47.7896L164.144 60H172.757L168.805 50.0097L169.717 49.8166C171.693 49.4305 173.264 48.5618 174.328 47.2104C175.392 45.9073 175.949 44.2181 175.949 42.1429C176 39.8745 175.088 38.1371 173.213 36.8822ZM64.584 54.3533H51.4107L52.272 49.9614H60.5307L61.4427 45.0386H53.2853L54.096 40.695H67.2693L64.584 54.3533ZM166.12 45.9073C165.259 46.4865 163.992 46.7761 162.269 46.7761H160.547L161.864 40.0676H163.131C164.549 40.0676 165.613 40.3089 166.323 40.7432C166.88 41.0811 167.539 41.7568 167.539 43.0598C167.539 44.6525 166.779 45.473 166.12 45.9073Z" fill="white"/>
</svg>
