<svg width="200" height="95" viewBox="0 0 200 95" fill="none" xmlns="http://www.w3.org/2000/svg">
<path d="M69.0859 43.4998V28.2271H75.7081C76.8714 28.2271 77.8484 28.3837 78.6388 28.6969C79.4343 29.0101 80.0334 29.4525 80.4361 30.0243C80.8438 30.596 81.0476 31.2697 81.0476 32.0452C81.0476 32.607 80.9233 33.1191 80.6747 33.5815C80.4311 34.0438 80.0881 34.4316 79.6456 34.7448C79.2031 35.053 78.6861 35.2668 78.0945 35.3861V35.5353C78.7507 35.5601 79.3473 35.7267 79.8842 36.0349C80.4212 36.3382 80.8487 36.7583 81.1669 37.2952C81.4851 37.8272 81.6442 38.4536 81.6442 39.1745C81.6442 40.0097 81.4254 40.753 80.9879 41.4043C80.5554 42.0555 79.9389 42.5676 79.1385 42.9405C78.3381 43.3133 77.3835 43.4998 76.2749 43.4998H69.0859ZM73.2322 40.1887H75.1712C75.8672 40.1887 76.3892 40.0594 76.7372 39.8009C77.0852 39.5374 77.2592 39.1496 77.2592 38.6376C77.2592 38.2796 77.1772 37.9763 77.0131 37.7278C76.8491 37.4792 76.6154 37.2903 76.3121 37.161C76.0138 37.0317 75.6534 36.9671 75.2308 36.9671H73.2322V40.1887ZM73.2322 34.4018H74.9325C75.2955 34.4018 75.6161 34.3446 75.8945 34.2302C76.1729 34.1159 76.3892 33.9518 76.5433 33.7381C76.7024 33.5193 76.782 33.2533 76.782 32.9401C76.782 32.4678 76.6129 32.1074 76.2749 31.8588C75.9368 31.6052 75.5092 31.4785 74.9922 31.4785H73.2322V34.4018Z" fill="white"/>
<path d="M112.792 28.2271V43.4998H109.331L103.813 35.4757H103.723V43.4998H99.5771V28.2271H103.097L108.526 36.2214H108.645V28.2271H112.792Z" fill="white"/>
<path d="M115.83 43.4998V28.2271H119.976V34.4018H120.185L124.779 28.2271H128.92L123.444 35.1493L128.92 43.4998H124.779L120.185 36.9236H119.976V39.5429V43.4998H115.83Z" fill="white"/>
<path fill-rule="evenodd" clip-rule="evenodd" d="M86.5811 43.4998H82.1067L87.1479 28.2271H92.8155L97.8567 43.4998H93.3823L92.4998 40.5765H94.1578V37.4743H91.5632L90.0414 32.4331H89.922L88.4002 37.4743H85.7459V40.5765H87.4636L86.5811 43.4998ZM87.4636 40.5765L88.4002 37.4743H91.5632L92.4998 40.5765H87.4636Z" fill="white"/>
<path d="M85.7459 37.4743V40.5765H87.4636L88.4002 37.4743H85.7459Z" fill="white"/>
<path d="M94.1578 40.5765V37.4743H91.5632L92.4998 40.5765H94.1578Z" fill="white"/>
<path d="M67.9844 54.3292V51.1474H80.6264V54.3292H76.2514V65.6928H72.3594V54.3292H67.9844Z" fill="white"/>
<path d="M82.9126 65.6928V51.1474H89.191C90.2705 51.1474 91.2151 51.3438 92.0248 51.7368C92.8344 52.1298 93.4642 52.6956 93.914 53.4343C94.3638 54.1729 94.5887 55.0583 94.5887 56.0905C94.5887 57.1322 94.3567 58.0105 93.8927 58.7255C93.4334 59.4404 92.7871 59.9802 91.9538 60.3448C91.1252 60.7094 90.1569 60.8917 89.0489 60.8917H85.2989V57.8235H88.2535C88.7175 57.8235 89.1129 57.7667 89.4396 57.653C89.771 57.5347 90.0243 57.3476 90.1995 57.092C90.3794 56.8363 90.4694 56.5025 90.4694 56.0905C90.4694 55.6739 90.3794 55.3353 90.1995 55.0749C90.0243 54.8098 89.771 54.6156 89.4396 54.4925C89.1129 54.3647 88.7175 54.3008 88.2535 54.3008H86.8614V65.6928H82.9126ZM91.4353 59.0167L95.0717 65.6928H90.7819L87.2308 59.0167H91.4353Z" fill="white"/>
<path d="M100.85 65.6928H96.589L101.39 51.1474H106.788L111.589 65.6928H107.328L104.146 55.153H104.032L100.85 65.6928ZM100.055 59.9542H108.066V62.9087H100.055V59.9542Z" fill="white"/>
<path d="M126.375 51.1474V65.6928H123.08L117.824 58.0508H117.739V65.6928H113.79V51.1474H117.142L122.313 58.761H122.426V51.1474H126.375Z" fill="white"/>
<path d="M136.884 55.6928C136.846 55.2193 136.669 54.85 136.351 54.5849C136.039 54.3197 135.563 54.1871 134.924 54.1871C134.517 54.1871 134.183 54.2368 133.922 54.3363C133.667 54.431 133.477 54.5612 133.354 54.7269C133.231 54.8926 133.167 55.082 133.162 55.2951C133.153 55.4703 133.184 55.6289 133.255 55.7709C133.33 55.9082 133.449 56.0337 133.61 56.1474C133.771 56.2563 133.977 56.3557 134.228 56.4456C134.479 56.5356 134.777 56.6161 135.123 56.6871L136.316 56.9428C137.121 57.1133 137.81 57.3382 138.383 57.6175C138.955 57.8969 139.424 58.2259 139.789 58.6047C140.153 58.9788 140.421 59.4002 140.591 59.8689C140.767 60.3377 140.856 60.8491 140.861 61.403C140.856 62.3595 140.617 63.1691 140.144 63.832C139.67 64.4949 138.993 64.9991 138.113 65.3448C137.237 65.6904 136.183 65.8633 134.952 65.8633C133.688 65.8633 132.585 65.6762 131.642 65.3022C130.705 64.9281 129.976 64.3528 129.455 63.5763C128.939 62.7951 128.678 61.796 128.674 60.5792H132.424C132.447 61.0242 132.559 61.3983 132.758 61.7013C132.956 62.0044 133.236 62.234 133.596 62.3902C133.96 62.5465 134.393 62.6246 134.895 62.6246C135.317 62.6246 135.669 62.5725 135.954 62.4684C136.238 62.3642 136.453 62.2198 136.6 62.0351C136.747 61.8505 136.822 61.6398 136.827 61.403C136.822 61.1805 136.749 60.9864 136.607 60.8206C136.47 60.6502 136.242 60.4987 135.925 60.3661C135.608 60.2288 135.179 60.1009 134.64 59.9826L133.191 59.6701C131.903 59.3907 130.887 58.9243 130.144 58.2709C129.405 57.6128 129.038 56.7155 129.043 55.5792C129.038 54.6559 129.285 53.8486 129.782 53.1573C130.284 52.4613 130.977 51.9191 131.863 51.5309C132.753 51.1426 133.773 50.9485 134.924 50.9485C136.098 50.9485 137.114 51.145 137.971 51.538C138.828 51.931 139.488 52.4849 139.952 53.1999C140.421 53.9101 140.658 54.7411 140.662 55.6928H136.884Z" fill="white"/>
<path d="M143.163 65.6928V51.1474H153.391V54.3292H147.112V56.8292H152.766V60.011H147.112V65.6928H143.163Z" fill="white"/>
<path d="M155.643 65.6928V51.1474H166.126V54.3292H159.592V56.8292H165.586V60.011H159.592V62.511H166.098V65.6928H155.643Z" fill="white"/>
<path d="M168.884 65.6928V51.1474H175.163C176.242 51.1474 177.187 51.3438 177.997 51.7368C178.806 52.1298 179.436 52.6956 179.886 53.4343C180.336 54.1729 180.561 55.0583 180.561 56.0905C180.561 57.1322 180.329 58.0105 179.865 58.7255C179.405 59.4404 178.759 59.9802 177.926 60.3448C177.097 60.7094 176.129 60.8917 175.021 60.8917H171.271V57.8235H174.225C174.689 57.8235 175.085 57.7667 175.411 57.653C175.743 57.5347 175.996 57.3476 176.171 57.092C176.351 56.8363 176.441 56.5025 176.441 56.0905C176.441 55.6739 176.351 55.3353 176.171 55.0749C175.996 54.8098 175.743 54.6156 175.411 54.4925C175.085 54.3647 174.689 54.3008 174.225 54.3008H172.833V65.6928H168.884ZM177.407 59.0167L181.044 65.6928H176.754L173.203 59.0167H177.407Z" fill="white"/>
<path fill-rule="evenodd" clip-rule="evenodd" d="M22.9609 26.8745C20.7518 26.8745 18.9609 28.6654 18.9609 30.8745V64.1255C18.9609 66.3346 20.7518 68.1255 22.9609 68.1255H56.1065C58.3156 68.1255 60.1065 66.3346 60.1065 64.1255V30.8745C60.1065 28.6654 58.3156 26.8745 56.1065 26.8745H22.9609ZM31.0859 34.9636V37.9966H48.2263V34.9636H31.0859ZM31.0859 42.763H34.9383L39.5602 52.8253L44.5191 42.763H48.2263L39.5602 60.5285L31.0859 42.763Z" fill="white"/>
</svg>
