<?xml version="1.0" encoding="UTF-8"?> <svg xmlns="http://www.w3.org/2000/svg" width="183" height="19" viewBox="0 0 183 19" fill="none"><path d="M16.9721 9.0589C17.7714 9.41415 18.3842 9.90262 18.8105 10.5243C19.2546 11.1282 19.4766 11.8565 19.4766 12.7091C19.4766 14.6808 18.6596 16.1639 17.0254 17.1586C15.409 18.1533 13.3219 18.6507 10.7641 18.6507H0L3.73014 0H13.615C15.7998 0 17.4606 0.390776 18.5974 1.17233C19.7342 1.93612 20.3026 3.02852 20.3026 4.44952C20.3026 5.49751 20.0095 6.42116 19.4234 7.22048C18.8372 8.00203 18.0201 8.61484 16.9721 9.0589ZM9.03226 4.39623L8.47274 7.16719H11.67C13.0555 7.16719 13.7482 6.62543 13.7482 5.54192C13.7482 5.1689 13.6061 4.8847 13.3219 4.68931C13.0377 4.49393 12.6292 4.39623 12.0963 4.39623H9.03226ZM11.1105 14.2544C11.7499 14.2544 12.265 14.1123 12.6558 13.8281C13.0466 13.5262 13.242 13.0999 13.242 12.5492C13.242 12.1585 13.091 11.8565 12.789 11.6434C12.5048 11.4302 12.1407 11.3236 11.6966 11.3236H7.64678L7.06062 14.2544H11.1105Z" fill="#FFCE06"></path><path d="M29.8261 4.7426L29.3998 6.9274H37.2864L36.3805 11.4568H28.4673L27.9877 13.9081H37.3397L36.3805 18.6507H20.8738L24.6039 0H39.7642L38.8051 4.7426H29.8261Z" fill="#FFCE06"></path><path d="M45.8617 4.87582H40.3997L41.3856 0H58.5975L57.6117 4.87582H52.1497L49.4054 18.6507H43.1174L45.8617 4.87582Z" fill="#FFCE06"></path><path d="M94.0819 0L84.3835 18.6507H77.6426L76.5769 8.81911L71.4613 18.6507H64.7204L62.4823 0H68.6903L69.8893 10.6309L75.4312 0H81.2129L82.2787 10.7908L87.9005 0H94.0819Z" fill="white"></path><path d="M95.7446 0H102.033L98.3024 18.6507H92.0145L95.7446 0Z" fill="white"></path><path d="M123.71 0L119.98 18.6507H114.811L109.456 9.96479L107.724 18.6507H101.596L105.326 0H110.495L115.85 8.68589L117.582 0H123.71Z" fill="white"></path><path d="M145.391 0L141.66 18.6507H136.492L131.136 9.96479L129.404 18.6507H123.276L127.006 0H132.175L137.531 8.68589L139.263 0H145.391Z" fill="white"></path><path d="M153.909 4.7426L153.483 6.9274H161.369L160.463 11.4568H152.55L152.071 13.9081H161.422L160.463 18.6507H144.957L148.687 0H163.847L162.888 4.7426H153.909Z" fill="white"></path><path d="M183 6.12808C183 7.78 182.556 9.22765 181.668 10.471C180.797 11.6966 179.563 12.6114 177.964 13.2153L181.082 18.6507H174.554L171.916 13.9614H170.371L169.438 18.6507H163.15L166.881 0H175.247C177.698 0 179.599 0.541758 180.948 1.62527C182.316 2.69103 183 4.19196 183 6.12808ZM176.632 6.74089C176.632 5.47975 175.851 4.84918 174.288 4.84918H172.183L171.303 9.21877H173.888C174.758 9.21877 175.433 9.00562 175.913 8.57931C176.392 8.13525 176.632 7.52244 176.632 6.74089Z" fill="white"></path></svg> 