<?xml version="1.0" encoding="utf-8"?><svg viewBox="0 0 36 36" xmlns="http://www.w3.org/2000/svg" xmlns:xlink="http://www.w3.org/1999/xlink"><style>:root>svg{display:none}:root>svg:target{display:block}</style><svg viewBox="0 0 36 36" id="5-lucky-lions" xmlns="http://www.w3.org/2000/svg"><path fill="#31373D" d="M36 27a4 4 0 01-4 4H4a4 4 0 01-4-4V9a4 4 0 014-4h28a4 4 0 014 4v18z"/><path fill="#CCD6DD" d="M11 24c0 2.209-.791 3-3 3H4c-2.209 0-3-.791-3-3V12c0-2.209.791-3 3-3h4c2.209 0 3 .791 3 3v12zm12 0c0 2.209-.791 3-3 3h-4c-2.209 0-3-.791-3-3V12c0-2.209.791-3 3-3h4c2.209 0 3 .791 3 3v12zm12 0c0 2.209-.791 3-3 3h-4c-2.209 0-3-.791-3-3V12c0-2.209.791-3 3-3h4c2.209 0 3 .791 3 3v12z"/><path fill="#E1E8ED" d="M1 13h10v10H1zm12 0h10v10H13zm12 0h10v10H25z"/><path fill="#BE1931" d="M30.795 15.685h-2.816c-.594 0-.813-.385-.813-.759 0-.385.209-.759.813-.759h3.983c.561 0 .792.506.792.792 0 .22-.121.451-.253.726l-2.729 5.545c-.308.615-.429.836-.925.836-.604 0-.912-.463-.912-.781 0-.133.033-.232.109-.385l2.751-5.215zm-12 0h-2.816c-.594 0-.814-.385-.814-.759 0-.385.209-.759.814-.759h3.983c.561 0 .792.506.792.792 0 .22-.121.451-.253.726l-2.729 5.545c-.308.615-.429.836-.924.836-.605 0-.913-.463-.913-.781 0-.133.033-.232.11-.385l2.75-5.215zm-12 0H3.979c-.594 0-.814-.385-.814-.759 0-.385.209-.759.814-.759h3.983c.561 0 .792.506.792.792 0 .22-.121.451-.253.726L5.772 21.23c-.308.615-.429.836-.924.836-.605 0-.913-.463-.913-.781 0-.133.033-.232.11-.385l2.75-5.215z"/><path fill="#9266CC" d="M3.061 9A2.08 2.08 0 003 9.5C3 10.881 4.343 12 6 12s3-1.119 3-2.5a2.08 2.08 0 00-.061-.5H3.061zm12 0a2.08 2.08 0 00-.061.5c0 1.381 1.343 2.5 3 2.5 1.656 0 3-1.119 3-2.5 0-.171-.021-.338-.06-.5h-5.879zM27.06 9c-.039.162-.06.329-.06.5 0 1.381 1.344 2.5 3 2.5s3-1.119 3-2.5a2.08 2.08 0 00-.061-.5H27.06z"/><path fill="#F4900C" d="M8.816 27A.868.868 0 009 26.5c0-.828-1.343-1.5-3-1.5s-3 .672-3 1.5c0 .176.072.343.184.5h5.632zm12 0a.868.868 0 00.184-.5c0-.828-1.344-1.5-3-1.5-1.657 0-3 .672-3 1.5 0 .176.072.343.184.5h5.632zm12 0a.868.868 0 00.184-.5c0-.828-1.344-1.5-3-1.5s-3 .672-3 1.5c0 .176.072.343.184.5h5.632z"/></svg><svg viewBox="0 0 36 36" id="app-footer" xmlns="http://www.w3.org/2000/svg"><path fill="#DD2E44" d="M11.626 7.488a1.413 1.413 0 00-.268.395l-.008-.008L.134 33.141l.011.011c-.208.403.14 1.223.853 1.937.713.713 1.533 1.061 1.936.853l.01.01L28.21 24.735l-.008-.009c.147-.07.282-.155.395-.269 1.562-1.562-.971-6.627-5.656-11.313-4.687-4.686-9.752-7.218-11.315-5.656z"/><path fill="#EA596E" d="M13 12L.416 32.506l-.282.635.011.011c-.208.403.14 1.223.853 1.937.232.232.473.408.709.557L17 17l-4-5z"/><path fill="#A0041E" d="M23.012 13.066c4.67 4.672 7.263 9.652 5.789 11.124-1.473 1.474-6.453-1.118-11.126-5.788-4.671-4.672-7.263-9.654-5.79-11.127 1.474-1.473 6.454 1.119 11.127 5.791z"/><path fill="#AA8DD8" d="M18.59 13.609a.99.99 0 01-.734.215c-.868-.094-1.598-.396-2.109-.873-.541-.505-.808-1.183-.735-1.862.128-1.192 1.324-2.286 3.363-2.066.793.085 1.147-.17 1.159-.292.014-.121-.277-.446-1.07-.532-.868-.094-1.598-.396-2.11-.873-.541-.505-.809-1.183-.735-1.862.13-1.192 1.325-2.286 3.362-2.065.578.062.883-.057 1.012-.134.103-.063.144-.123.148-.158.012-.121-.275-.446-1.07-.532a.998.998 0 01-.886-1.102.997.997 0 011.101-.886c2.037.219 2.973 1.542 2.844 2.735-.13 1.194-1.325 2.286-3.364 2.067-.578-.063-.88.057-1.01.134-.103.062-.145.123-.149.157-.013.122.276.446 1.071.532 2.037.22 2.973 1.542 2.844 2.735-.129 1.192-1.324 2.286-3.362 2.065-.578-.062-.882.058-1.012.134-.104.064-.144.124-.148.158-.013.121.276.446 1.07.532a1 1 0 01.52 1.773z"/><path fill="#77B255" d="M30.661 22.857c1.973-.557 3.334.323 3.658 1.478.324 1.154-.378 2.615-2.35 3.17-.77.216-1.001.584-.97.701.034.118.425.312 1.193.095 1.972-.555 3.333.325 3.657 1.479.326 1.155-.378 2.614-2.351 3.17-.769.216-1.001.585-.967.702.033.117.423.311 1.192.095a1 1 0 11.54 1.925c-1.971.555-3.333-.323-3.659-1.479-.324-1.154.379-2.613 2.353-3.169.77-.217 1.001-.584.967-.702-.032-.117-.422-.312-1.19-.096-1.974.556-3.334-.322-3.659-1.479-.325-1.154.378-2.613 2.351-3.17.768-.215.999-.585.967-.701-.034-.118-.423-.312-1.192-.096a1 1 0 11-.54-1.923z"/><path fill="#AA8DD8" d="M23.001 20.16a1.001 1.001 0 01-.626-1.781c.218-.175 5.418-4.259 12.767-3.208a1 1 0 11-.283 1.979c-6.493-.922-11.187 2.754-11.233 2.791a.999.999 0 01-.625.219z"/><path fill="#77B255" d="M5.754 16a1 1 0 01-.958-1.287c1.133-3.773 2.16-9.794.898-11.364-.141-.178-.354-.353-.842-.316-.938.072-.849 2.051-.848 2.071a1 1 0 11-1.994.149c-.103-1.379.326-4.035 2.692-4.214 1.056-.08 1.933.287 2.552 1.057 2.371 2.951-.036 11.506-.542 13.192a1 1 0 01-.958.712z"/><circle fill="#5C913B" cx="25.5" cy="9.5" r="1.5"/><circle fill="#9266CC" cx="2" cy="18" r="2"/><circle fill="#5C913B" cx="32.5" cy="19.5" r="1.5"/><circle fill="#5C913B" cx="23.5" cy="31.5" r="1.5"/><circle fill="#FFCC4D" cx="28" cy="4" r="2"/><circle fill="#FFCC4D" cx="32.5" cy="8.5" r="1.5"/><circle fill="#FFCC4D" cx="29.5" cy="12.5" r="1.5"/><circle fill="#FFCC4D" cx="7.5" cy="23.5" r="1.5"/></svg><svg viewBox="0 0 36 36" id="aviator" xmlns="http://www.w3.org/2000/svg"><path fill="#66757F" d="M30 23.828a.997.997 0 01-1.414 0l-1.414-1.414a.997.997 0 010-1.414L30 18.172a.999.999 0 011.414 0l1.414 1.414a.997.997 0 010 1.414L30 23.828zm-15-15a.997.997 0 01-1.414 0l-1.414-1.414a.997.997 0 010-1.414L15 3.172a.999.999 0 011.414 0l1.414 1.414a.997.997 0 010 1.414L15 8.828z"/><path fill="#55ACEE" d="M2 22c2 0 11 1 11 1s1 9 1 11-2 2-3 1-4-6-4-6-5-3-6-4-1-3 1-3zM4 6.039C7 6 29 7 29 7s.924 22 .962 25c.038 3-2.763 4.002-3.862.001S21 15 21 15 7.045 10.583 3.995 9.898C0 9 .999 6.077 4 6.039z"/><path fill="#CCD6DD" d="M27 3c2-2 7-3 8-2s0 6-2 8-19 18-19 18-6.5 4.5-8 3 3-8 3-8S25 5 27 3z"/><path fill="#66757F" d="M14 22s.5.5-4 5-5 4-5 4-.5-.5 4-5 5-4 5-4zM29 4a3 3 0 013 3h.805c.114-.315.195-.645.195-1a3 3 0 00-3-3c-.355 0-.685.081-1 .195V4z"/></svg><svg viewBox="0 0 36 36" id="baccarat" xmlns="http://www.w3.org/2000/svg"><path fill="#DD2E44" d="M32 28H4V4a4 4 0 014-4h20a4 4 0 014 4v24z"/><path d="M8 36h20a4 4 0 004-4v-4c-4.117-2.744-21.139-8.233-28 0v4a4 4 0 004 4z"/><circle fill="#FFF" cx="15.276" cy="12.495" r="7.578"/></svg><svg viewBox="0 0 36 36" id="bonus-footer" xmlns="http://www.w3.org/2000/svg"><path fill="#DD2E44" d="M11.626 7.488a1.413 1.413 0 00-.268.395l-.008-.008L.134 33.141l.011.011c-.208.403.14 1.223.853 1.937.713.713 1.533 1.061 1.936.853l.01.01L28.21 24.735l-.008-.009c.147-.07.282-.155.395-.269 1.562-1.562-.971-6.627-5.656-11.313-4.687-4.686-9.752-7.218-11.315-5.656z"/><path fill="#EA596E" d="M13 12L.416 32.506l-.282.635.011.011c-.208.403.14 1.223.853 1.937.232.232.473.408.709.557L17 17l-4-5z"/><path fill="#A0041E" d="M23.012 13.066c4.67 4.672 7.263 9.652 5.789 11.124-1.473 1.474-6.453-1.118-11.126-5.788-4.671-4.672-7.263-9.654-5.79-11.127 1.474-1.473 6.454 1.119 11.127 5.791z"/><path fill="#AA8DD8" d="M18.59 13.609a.99.99 0 01-.734.215c-.868-.094-1.598-.396-2.109-.873-.541-.505-.808-1.183-.735-1.862.128-1.192 1.324-2.286 3.363-2.066.793.085 1.147-.17 1.159-.292.014-.121-.277-.446-1.07-.532-.868-.094-1.598-.396-2.11-.873-.541-.505-.809-1.183-.735-1.862.13-1.192 1.325-2.286 3.362-2.065.578.062.883-.057 1.012-.134.103-.063.144-.123.148-.158.012-.121-.275-.446-1.07-.532a.998.998 0 01-.886-1.102.997.997 0 011.101-.886c2.037.219 2.973 1.542 2.844 2.735-.13 1.194-1.325 2.286-3.364 2.067-.578-.063-.88.057-1.01.134-.103.062-.145.123-.149.157-.013.122.276.446 1.071.532 2.037.22 2.973 1.542 2.844 2.735-.129 1.192-1.324 2.286-3.362 2.065-.578-.062-.882.058-1.012.134-.104.064-.144.124-.148.158-.013.121.276.446 1.07.532a1 1 0 01.52 1.773z"/><path fill="#77B255" d="M30.661 22.857c1.973-.557 3.334.323 3.658 1.478.324 1.154-.378 2.615-2.35 3.17-.77.216-1.001.584-.97.701.034.118.425.312 1.193.095 1.972-.555 3.333.325 3.657 1.479.326 1.155-.378 2.614-2.351 3.17-.769.216-1.001.585-.967.702.033.117.423.311 1.192.095a1 1 0 11.54 1.925c-1.971.555-3.333-.323-3.659-1.479-.324-1.154.379-2.613 2.353-3.169.77-.217 1.001-.584.967-.702-.032-.117-.422-.312-1.19-.096-1.974.556-3.334-.322-3.659-1.479-.325-1.154.378-2.613 2.351-3.17.768-.215.999-.585.967-.701-.034-.118-.423-.312-1.192-.096a1 1 0 11-.54-1.923z"/><path fill="#AA8DD8" d="M23.001 20.16a1.001 1.001 0 01-.626-1.781c.218-.175 5.418-4.259 12.767-3.208a1 1 0 11-.283 1.979c-6.493-.922-11.187 2.754-11.233 2.791a.999.999 0 01-.625.219z"/><path fill="#77B255" d="M5.754 16a1 1 0 01-.958-1.287c1.133-3.773 2.16-9.794.898-11.364-.141-.178-.354-.353-.842-.316-.938.072-.849 2.051-.848 2.071a1 1 0 11-1.994.149c-.103-1.379.326-4.035 2.692-4.214 1.056-.08 1.933.287 2.552 1.057 2.371 2.951-.036 11.506-.542 13.192a1 1 0 01-.958.712z"/><circle fill="#5C913B" cx="25.5" cy="9.5" r="1.5"/><circle fill="#9266CC" cx="2" cy="18" r="2"/><circle fill="#5C913B" cx="32.5" cy="19.5" r="1.5"/><circle fill="#5C913B" cx="23.5" cy="31.5" r="1.5"/><circle fill="#FFCC4D" cx="28" cy="4" r="2"/><circle fill="#FFCC4D" cx="32.5" cy="8.5" r="1.5"/><circle fill="#FFCC4D" cx="29.5" cy="12.5" r="1.5"/><circle fill="#FFCC4D" cx="7.5" cy="23.5" r="1.5"/></svg><svg viewBox="0 0 36 36" id="bonuses" xmlns="http://www.w3.org/2000/svg"><path fill="#FDD888" d="M33 31c0 2.2-1.8 4-4 4H7c-2.2 0-4-1.8-4-4V14c0-2.2 1.8-4 4-4h22c2.2 0 4 1.8 4 4v17z"/><path fill="#FDD888" d="M36 11c0 2.2-1.8 4-4 4H4c-2.2 0-4-1.8-4-4s1.8-4 4-4h28c2.2 0 4 1.8 4 4z"/><path fill="#FCAB40" d="M3 15h30v2H3z"/><path fill="#DA2F47" d="M19 3h-2a3 3 0 00-3 3v29h8V6a3 3 0 00-3-3z"/><path fill="#DA2F47" d="M16 7c1.1 0 1.263-.516.361-1.147L9.639 1.147a1.795 1.795 0 00-2.631.589L4.992 5.264C4.446 6.219 4.9 7 6 7h10zm4 0c-1.1 0-1.263-.516-.361-1.147l6.723-4.706a1.796 1.796 0 012.631.589l2.016 3.527C31.554 6.219 31.1 7 30 7H20z"/></svg><svg viewBox="0 0 36 36" id="boosted-odds" xmlns="http://www.w3.org/2000/svg"><path fill="#A0041E" d="M1 17l8-7 16 1 1 16-7 8s.001-5.999-6-12-12-6-12-6z"/><path fill="#FFAC33" d="M.973 35s-.036-7.979 2.985-11S15 21.187 15 21.187 14.999 29 11.999 32c-3 3-11.026 3-11.026 3z"/><circle fill="#FFCC4D" cx="8.999" cy="27" r="4"/><path fill="#55ACEE" d="M35.999 0s-10 0-22 10c-6 5-6 14-4 16s11 2 16-4c10-12 10-22 10-22z"/><path d="M26.999 5a3.996 3.996 0 00-3.641 2.36A3.969 3.969 0 0124.999 7a4 4 0 014 4c0 .586-.133 1.139-.359 1.64A3.993 3.993 0 0030.999 9a4 4 0 00-4-4z"/><path fill="#A0041E" d="M8 28s0-4 1-5 13.001-10.999 14-10-9.001 13-10.001 14S8 28 8 28z"/></svg><svg viewBox="0 0 36 36" id="cashback" xmlns="http://www.w3.org/2000/svg"><path fill="#FDD888" d="M31.898 23.938C31.3 17.32 28 14 28 14l-6-8h-8l-6 8s-1.419 1.433-2.567 4.275C3.444 18.935 2 20.789 2 23a4.97 4.97 0 001.609 3.655A4.943 4.943 0 003 29c0 1.958 1.136 3.636 2.775 4.456C7.058 35.378 8.772 36 10 36h16c1.379 0 3.373-.779 4.678-3.31C32.609 31.999 34 30.17 34 28a4.988 4.988 0 00-2.102-4.062zM18 6c.55 0 1.058-.158 1.5-.416.443.258.951.416 1.5.416 1.657 0 4-2.344 4-4 0 0 0-2-2-2-.788 0-1 1-2 1s-1-1-3-1-2 1-3 1-1.211-1-2-1c-2 0-2 2-2 2 0 1.656 2.344 4 4 4 .549 0 1.057-.158 1.5-.416.443.258.951.416 1.5.416z"/><path fill="#BF6952" d="M24 6a1 1 0 01-1 1H13a1 1 0 010-2h10a1 1 0 011 1z"/><path fill="#67757F" d="M23.901 24.542c0-4.477-8.581-4.185-8.581-6.886 0-1.308 1.301-1.947 2.811-1.947 2.538 0 2.99 1.569 4.139 1.569.813 0 1.205-.493 1.205-1.046 0-1.284-2.024-2.256-3.965-2.592V12.4c0-.773-.65-1.4-1.454-1.4-.805 0-1.456.627-1.456 1.4v1.283c-2.116.463-3.937 1.875-3.937 4.176 0 4.299 8.579 4.125 8.579 7.145 0 1.047-1.178 2.093-3.111 2.093-2.901 0-3.867-1.889-5.045-1.889-.574 0-1.087.464-1.087 1.164 0 1.113 1.938 2.451 4.603 2.824l-.001.01v1.398c0 .772.652 1.4 1.456 1.4.804 0 1.455-.628 1.455-1.4v-1.398c0-.017-.008-.03-.009-.045 2.398-.43 4.398-1.932 4.398-4.619z"/></svg><svg viewBox="0 0 36 36" id="check" xmlns="http://www.w3.org/2000/svg"><path fill="#DD2E44" d="M11.626 7.488a1.413 1.413 0 00-.268.395l-.008-.008L.134 33.141l.011.011c-.208.403.14 1.223.853 1.937.713.713 1.533 1.061 1.936.853l.01.01L28.21 24.735l-.008-.009c.147-.07.282-.155.395-.269 1.562-1.562-.971-6.627-5.656-11.313-4.687-4.686-9.752-7.218-11.315-5.656z"/><path fill="#EA596E" d="M13 12L.416 32.506l-.282.635.011.011c-.208.403.14 1.223.853 1.937.232.232.473.408.709.557L17 17l-4-5z"/><path fill="#A0041E" d="M23.012 13.066c4.67 4.672 7.263 9.652 5.789 11.124-1.473 1.474-6.453-1.118-11.126-5.788-4.671-4.672-7.263-9.654-5.79-11.127 1.474-1.473 6.454 1.119 11.127 5.791z"/><path fill="#AA8DD8" d="M18.59 13.609a.99.99 0 01-.734.215c-.868-.094-1.598-.396-2.109-.873-.541-.505-.808-1.183-.735-1.862.128-1.192 1.324-2.286 3.363-2.066.793.085 1.147-.17 1.159-.292.014-.121-.277-.446-1.07-.532-.868-.094-1.598-.396-2.11-.873-.541-.505-.809-1.183-.735-1.862.13-1.192 1.325-2.286 3.362-2.065.578.062.883-.057 1.012-.134.103-.063.144-.123.148-.158.012-.121-.275-.446-1.07-.532a.998.998 0 01-.886-1.102.997.997 0 011.101-.886c2.037.219 2.973 1.542 2.844 2.735-.13 1.194-1.325 2.286-3.364 2.067-.578-.063-.88.057-1.01.134-.103.062-.145.123-.149.157-.013.122.276.446 1.071.532 2.037.22 2.973 1.542 2.844 2.735-.129 1.192-1.324 2.286-3.362 2.065-.578-.062-.882.058-1.012.134-.104.064-.144.124-.148.158-.013.121.276.446 1.07.532a1 1 0 01.52 1.773z"/><path fill="#77B255" d="M30.661 22.857c1.973-.557 3.334.323 3.658 1.478.324 1.154-.378 2.615-2.35 3.17-.77.216-1.001.584-.97.701.034.118.425.312 1.193.095 1.972-.555 3.333.325 3.657 1.479.326 1.155-.378 2.614-2.351 3.17-.769.216-1.001.585-.967.702.033.117.423.311 1.192.095a1 1 0 11.54 1.925c-1.971.555-3.333-.323-3.659-1.479-.324-1.154.379-2.613 2.353-3.169.77-.217 1.001-.584.967-.702-.032-.117-.422-.312-1.19-.096-1.974.556-3.334-.322-3.659-1.479-.325-1.154.378-2.613 2.351-3.17.768-.215.999-.585.967-.701-.034-.118-.423-.312-1.192-.096a1 1 0 11-.54-1.923z"/><path fill="#AA8DD8" d="M23.001 20.16a1.001 1.001 0 01-.626-1.781c.218-.175 5.418-4.259 12.767-3.208a1 1 0 11-.283 1.979c-6.493-.922-11.187 2.754-11.233 2.791a.999.999 0 01-.625.219z"/><path fill="#77B255" d="M5.754 16a1 1 0 01-.958-1.287c1.133-3.773 2.16-9.794.898-11.364-.141-.178-.354-.353-.842-.316-.938.072-.849 2.051-.848 2.071a1 1 0 11-1.994.149c-.103-1.379.326-4.035 2.692-4.214 1.056-.08 1.933.287 2.552 1.057 2.371 2.951-.036 11.506-.542 13.192a1 1 0 01-.958.712z"/><circle fill="#5C913B" cx="25.5" cy="9.5" r="1.5"/><circle fill="#9266CC" cx="2" cy="18" r="2"/><circle fill="#5C913B" cx="32.5" cy="19.5" r="1.5"/><circle fill="#5C913B" cx="23.5" cy="31.5" r="1.5"/><circle fill="#FFCC4D" cx="28" cy="4" r="2"/><circle fill="#FFCC4D" cx="32.5" cy="8.5" r="1.5"/><circle fill="#FFCC4D" cx="29.5" cy="12.5" r="1.5"/><circle fill="#FFCC4D" cx="7.5" cy="23.5" r="1.5"/></svg><svg viewBox="0 0 36 36" id="crash" xmlns="http://www.w3.org/2000/svg"><path fill="#A0041E" d="M1 17l8-7 16 1 1 16-7 8s.001-5.999-6-12-12-6-12-6z"/><path fill="#FFAC33" d="M.973 35s-.036-7.979 2.985-11S15 21.187 15 21.187 14.999 29 11.999 32c-3 3-11.026 3-11.026 3z"/><circle fill="#FFCC4D" cx="8.999" cy="27" r="4"/><path fill="#55ACEE" d="M35.999 0s-10 0-22 10c-6 5-6 14-4 16s11 2 16-4c10-12 10-22 10-22z"/><path d="M26.999 5a3.996 3.996 0 00-3.641 2.36A3.969 3.969 0 0124.999 7a4 4 0 014 4c0 .586-.133 1.139-.359 1.64A3.993 3.993 0 0030.999 9a4 4 0 00-4-4z"/><path fill="#A0041E" d="M8 28s0-4 1-5 13.001-10.999 14-10-9.001 13-10.001 14S8 28 8 28z"/></svg><svg viewBox="0 0 36 36" id="currencies" xmlns="http://www.w3.org/2000/svg"><path fill="#FDD888" d="M31.898 23.938C31.3 17.32 28 14 28 14l-6-8h-8l-6 8s-1.419 1.433-2.567 4.275C3.444 18.935 2 20.789 2 23a4.97 4.97 0 001.609 3.655A4.943 4.943 0 003 29c0 1.958 1.136 3.636 2.775 4.456C7.058 35.378 8.772 36 10 36h16c1.379 0 3.373-.779 4.678-3.31C32.609 31.999 34 30.17 34 28a4.988 4.988 0 00-2.102-4.062zM18 6c.55 0 1.058-.158 1.5-.416.443.258.951.416 1.5.416 1.657 0 4-2.344 4-4 0 0 0-2-2-2-.788 0-1 1-2 1s-1-1-3-1-2 1-3 1-1.211-1-2-1c-2 0-2 2-2 2 0 1.656 2.344 4 4 4 .549 0 1.057-.158 1.5-.416.443.258.951.416 1.5.416z"/><path fill="#BF6952" d="M24 6a1 1 0 01-1 1H13a1 1 0 010-2h10a1 1 0 011 1z"/><path fill="#67757F" d="M23.901 24.542c0-4.477-8.581-4.185-8.581-6.886 0-1.308 1.301-1.947 2.811-1.947 2.538 0 2.99 1.569 4.139 1.569.813 0 1.205-.493 1.205-1.046 0-1.284-2.024-2.256-3.965-2.592V12.4c0-.773-.65-1.4-1.454-1.4-.805 0-1.456.627-1.456 1.4v1.283c-2.116.463-3.937 1.875-3.937 4.176 0 4.299 8.579 4.125 8.579 7.145 0 1.047-1.178 2.093-3.111 2.093-2.901 0-3.867-1.889-5.045-1.889-.574 0-1.087.464-1.087 1.164 0 1.113 1.938 2.451 4.603 2.824l-.001.01v1.398c0 .772.652 1.4 1.456 1.4.804 0 1.455-.628 1.455-1.4v-1.398c0-.017-.008-.03-.009-.045 2.398-.43 4.398-1.932 4.398-4.619z"/></svg><svg viewBox="0 0 36 36" id="daily-free-bets" xmlns="http://www.w3.org/2000/svg"><path fill="#EA596E" d="M26.751 8.007a4.672 4.672 0 005.046 1.032l3.613 3.611c.737.74.738 1.938-.004 2.68L15.319 35.405a1.9 1.9 0 01-2.681 0l-3.606-3.612A4.686 4.686 0 008 26.746a4.676 4.676 0 00-5.047-1.032l-2.359-2.36a1.893 1.893 0 010-2.68L20.678.596a1.891 1.891 0 012.679.002l2.361 2.361a4.676 4.676 0 001.033 5.048z"/><path fill="#BE1931" d="M5.42 18.527l-2.149 2.148a1.898 1.898 0 00-.003 2.68l.542.541a5.668 5.668 0 015.482 1.468 5.668 5.668 0 011.467 5.481l1.878 1.883a1.898 1.898 0 002.682-.002l2.189-2.187L5.42 18.527zm13.521 10.58l10.158-10.152L17.008 6.943 6.854 17.095l12.087 12.012zm1.99-13.993c2.245 2.228 2.745 5.356 1.121 6.989-1.627 1.635-4.762 1.151-7.001-1.075-2.239-2.228-2.738-5.358-1.114-6.991 1.625-1.63 4.755-1.15 6.994 1.077zm11.8-2.464l-1.881-1.881a5.67 5.67 0 01-5.483-1.468 5.668 5.668 0 01-1.47-5.484l-.541-.546a1.9 1.9 0 00-2.678.003L18.442 5.51l12.092 12.011 2.196-2.195c.74-.737.74-1.936.001-2.676z"/></svg><svg viewBox="0 0 36 36" id="deposit" xmlns="http://www.w3.org/2000/svg"><path fill="#5C913B" d="M2 11c-2 0-2 2-2 2v21s0 2 2 2h32c2 0 2-2 2-2V13s0-2-2-2H2z"/><path fill="#A7D28B" d="M2 6C0 6 0 8 0 8v20s0 2 2 2h32c2 0 2-2 2-2V8s0-2-2-2H2z"/><circle fill="#77B255" cx="25" cy="18" r="6.5"/><path fill="#5C913B" d="M33 28.5H3c-.827 0-1.5-.673-1.5-1.5V9c0-.827.673-1.5 1.5-1.5h30c.827 0 1.5.673 1.5 1.5v18c0 .827-.673 1.5-1.5 1.5zM3 8.5a.5.5 0 00-.5.5v18c0 .275.225.5.5.5h30c.275 0 .5-.225.5-.5V9a.5.5 0 00-.5-.5H3z"/><path fill="#FFE8B6" d="M14 6h8v24.062h-8z"/><path fill="#FFAC33" d="M14 30h8v6h-8z"/><path fill="#5C913B" d="M11.81 20.023c0-2.979-5.493-2.785-5.493-4.584 0-.871.833-1.296 1.799-1.296 1.625 0 1.914 1.044 2.65 1.044.521 0 .772-.328.772-.696 0-.856-1.296-1.502-2.539-1.726v-.825a.932.932 0 10-1.864 0v.853c-1.354.31-2.521 1.25-2.521 2.781 0 2.862 5.493 2.746 5.493 4.758 0 .695-.754 1.391-1.992 1.391-1.857 0-2.476-1.257-3.229-1.257-.368 0-.696.309-.696.775 0 .741 1.24 1.631 2.947 1.881l-.001.004v.934a.933.933 0 001.864 0v-.934c0-.01-.005-.019-.006-.028 1.535-.287 2.816-1.286 2.816-3.075z"/></svg><svg viewBox="0 0 36 36" id="details" xmlns="http://www.w3.org/2000/svg"><path fill="#3B88C3" d="M0 4a4 4 0 014-4h28a4 4 0 014 4v28a4 4 0 01-4 4H4a4 4 0 01-4-4V4z"/><path fill="#FFF" d="M20.512 8.071c0 1.395-1.115 2.573-2.511 2.573-1.333 0-2.511-1.209-2.511-2.573 0-1.271 1.178-2.45 2.511-2.45 1.333.001 2.511 1.148 2.511 2.45zm-4.744 6.728c0-1.488.931-2.481 2.232-2.481 1.302 0 2.232.992 2.232 2.481v11.906c0 1.488-.93 2.48-2.232 2.48s-2.232-.992-2.232-2.48V14.799z"/></svg><svg viewBox="0 0 36 36" id="egyptian-dreams" xmlns="http://www.w3.org/2000/svg"><path fill="#31373D" d="M36 27a4 4 0 01-4 4H4a4 4 0 01-4-4V9a4 4 0 014-4h28a4 4 0 014 4v18z"/><path fill="#CCD6DD" d="M11 24c0 2.209-.791 3-3 3H4c-2.209 0-3-.791-3-3V12c0-2.209.791-3 3-3h4c2.209 0 3 .791 3 3v12zm12 0c0 2.209-.791 3-3 3h-4c-2.209 0-3-.791-3-3V12c0-2.209.791-3 3-3h4c2.209 0 3 .791 3 3v12zm12 0c0 2.209-.791 3-3 3h-4c-2.209 0-3-.791-3-3V12c0-2.209.791-3 3-3h4c2.209 0 3 .791 3 3v12z"/><path fill="#E1E8ED" d="M1 13h10v10H1zm12 0h10v10H13zm12 0h10v10H25z"/><path fill="#BE1931" d="M30.795 15.685h-2.816c-.594 0-.813-.385-.813-.759 0-.385.209-.759.813-.759h3.983c.561 0 .792.506.792.792 0 .22-.121.451-.253.726l-2.729 5.545c-.308.615-.429.836-.925.836-.604 0-.912-.463-.912-.781 0-.133.033-.232.109-.385l2.751-5.215zm-12 0h-2.816c-.594 0-.814-.385-.814-.759 0-.385.209-.759.814-.759h3.983c.561 0 .792.506.792.792 0 .22-.121.451-.253.726l-2.729 5.545c-.308.615-.429.836-.924.836-.605 0-.913-.463-.913-.781 0-.133.033-.232.11-.385l2.75-5.215zm-12 0H3.979c-.594 0-.814-.385-.814-.759 0-.385.209-.759.814-.759h3.983c.561 0 .792.506.792.792 0 .22-.121.451-.253.726L5.772 21.23c-.308.615-.429.836-.924.836-.605 0-.913-.463-.913-.781 0-.133.033-.232.11-.385l2.75-5.215z"/><path fill="#9266CC" d="M3.061 9A2.08 2.08 0 003 9.5C3 10.881 4.343 12 6 12s3-1.119 3-2.5a2.08 2.08 0 00-.061-.5H3.061zm12 0a2.08 2.08 0 00-.061.5c0 1.381 1.343 2.5 3 2.5 1.656 0 3-1.119 3-2.5 0-.171-.021-.338-.06-.5h-5.879zM27.06 9c-.039.162-.06.329-.06.5 0 1.381 1.344 2.5 3 2.5s3-1.119 3-2.5a2.08 2.08 0 00-.061-.5H27.06z"/><path fill="#F4900C" d="M8.816 27A.868.868 0 009 26.5c0-.828-1.343-1.5-3-1.5s-3 .672-3 1.5c0 .176.072.343.184.5h5.632zm12 0a.868.868 0 00.184-.5c0-.828-1.344-1.5-3-1.5-1.657 0-3 .672-3 1.5 0 .176.072.343.184.5h5.632zm12 0a.868.868 0 00.184-.5c0-.828-1.344-1.5-3-1.5s-3 .672-3 1.5c0 .176.072.343.184.5h5.632z"/></svg><svg viewBox="0 0 36 36" id="faq" xmlns="http://www.w3.org/2000/svg"><path fill="#BE1931" d="M17 27a3 3 0 01-3-3v-4a3 3 0 013-3c.603-.006 6-1 6-5 0-2-2-4-5-4-2.441 0-4 2-4 3a3 3 0 11-6 0c0-4.878 4.58-9 10-9 8 0 11 5.982 11 11 0 4.145-2.277 7.313-6.413 8.92-.9.351-1.79.587-2.587.747V24a3 3 0 01-3 3z"/><circle fill="#BE1931" cx="17" cy="32" r="3"/></svg><svg viewBox="0 0 36 36" id="feature" xmlns="http://www.w3.org/2000/svg"><path fill="#FFD983" d="M32.017 20.181L17.345 5.746C16.687 5.087 15.823 5 14.96 5H4.883C3.029 5 2 6.029 2 7.883v10.082c0 .861.089 1.723.746 2.38L17.3 35.017a3.287 3.287 0 004.688 0l10.059-10.088c1.31-1.312 1.28-3.438-.03-4.748zm-23.596-8.76a1.497 1.497 0 11-2.118-2.117 1.497 1.497 0 012.118 2.117z"/><path fill="#D99E82" d="M9.952 7.772a3.66 3.66 0 00-5.179 0 3.662 3.662 0 105.18 5.18 3.664 3.664 0 00-.001-5.18zm-1.53 3.65a1.499 1.499 0 11-2.119-2.12 1.499 1.499 0 012.119 2.12z"/><path fill="#C1694F" d="M8.507 10.501a1 1 0 11-1.415-1.414L15.577.602a1 1 0 111.415 1.414l-8.485 8.485z"/></svg><svg viewBox="0 0 36 36" id="founded" xmlns="http://www.w3.org/2000/svg"><path fill="#E0E7EC" d="M36 32a4 4 0 01-4 4H4a4 4 0 01-4-4V9a4 4 0 014-4h28a4 4 0 014 4v23z"/><path d="M23.657 19.12H17.87c-1.22 0-1.673-.791-1.673-1.56 0-.791.429-1.56 1.673-1.56h8.184c1.154 0 1.628 1.04 1.628 1.628 0 .452-.249.927-.52 1.492l-5.607 11.395c-.633 1.266-.882 1.717-1.899 1.717-1.244 0-1.877-.949-1.877-1.605 0-.271.068-.474.226-.791l5.652-10.716zM10.889 19h-.5c-1.085 0-1.538-.731-1.538-1.5 0-.792.565-1.5 1.538-1.5h2.015c.972 0 1.515.701 1.515 1.605V30.47c0 1.13-.558 1.763-1.53 1.763s-1.5-.633-1.5-1.763V19z" fill="#66757F"/><path fill="#DD2F45" d="M34 0h-3.277c.172.295.277.634.277 1a2 2 0 01-4 0c0-.366.105-.705.277-1H8.723C8.895.295 9 .634 9 1a2 2 0 01-4 0c0-.366.105-.705.277-1H2a2 2 0 00-2 2v11h36V2a2 2 0 00-2-2z"/><path d="M13.182 4.604c0-.5.32-.78.75-.78.429 0 .749.28.749.78v5.017h1.779c.51 0 .73.38.72.72a.7.7 0 01-.72.659h-2.498c-.49 0-.78-.319-.78-.819V4.604zm-6.91 0c0-.5.32-.78.75-.78s.75.28.75.78v3.488c0 .92.589 1.649 1.539 1.649.909 0 1.529-.769 1.529-1.649V4.604c0-.5.319-.78.749-.78s.75.28.75.78v3.568c0 1.679-1.38 2.949-3.028 2.949-1.669 0-3.039-1.25-3.039-2.949V4.604zM5.49 9.001c0 1.679-1.069 2.119-1.979 2.119-.689 0-1.839-.27-1.839-1.14 0-.269.23-.609.56-.609.4 0 .75.37 1.199.37.56 0 .56-.52.56-.84V4.604c0-.5.32-.78.749-.78.431 0 .75.28.75.78v4.397z" fill="#F5F8FA"/><path d="M32 10a1 1 0 102 0 1 1 0 00-2 0m0-3a1 1 0 102 0 1 1 0 00-2 0m-3 3a1 1 0 102 0 1 1 0 00-2 0m0-3a1 1 0 102 0 1 1 0 00-2 0m-3 3a1 1 0 102 0 1 1 0 00-2 0m0-3a1 1 0 102 0 1 1 0 00-2 0m-3 0a1 1 0 102 0 1 1 0 00-2 0m0 3a1 1 0 102 0 1 1 0 00-2 0" fill="#F4ABBA"/></svg><svg viewBox="0 0 36 36" id="game-footer" xmlns="http://www.w3.org/2000/svg"><path fill="#DD2E44" d="M11.626 7.488a1.413 1.413 0 00-.268.395l-.008-.008L.134 33.141l.011.011c-.208.403.14 1.223.853 1.937.713.713 1.533 1.061 1.936.853l.01.01L28.21 24.735l-.008-.009c.147-.07.282-.155.395-.269 1.562-1.562-.971-6.627-5.656-11.313-4.687-4.686-9.752-7.218-11.315-5.656z"/><path fill="#EA596E" d="M13 12L.416 32.506l-.282.635.011.011c-.208.403.14 1.223.853 1.937.232.232.473.408.709.557L17 17l-4-5z"/><path fill="#A0041E" d="M23.012 13.066c4.67 4.672 7.263 9.652 5.789 11.124-1.473 1.474-6.453-1.118-11.126-5.788-4.671-4.672-7.263-9.654-5.79-11.127 1.474-1.473 6.454 1.119 11.127 5.791z"/><path fill="#AA8DD8" d="M18.59 13.609a.99.99 0 01-.734.215c-.868-.094-1.598-.396-2.109-.873-.541-.505-.808-1.183-.735-1.862.128-1.192 1.324-2.286 3.363-2.066.793.085 1.147-.17 1.159-.292.014-.121-.277-.446-1.07-.532-.868-.094-1.598-.396-2.11-.873-.541-.505-.809-1.183-.735-1.862.13-1.192 1.325-2.286 3.362-2.065.578.062.883-.057 1.012-.134.103-.063.144-.123.148-.158.012-.121-.275-.446-1.07-.532a.998.998 0 01-.886-1.102.997.997 0 011.101-.886c2.037.219 2.973 1.542 2.844 2.735-.13 1.194-1.325 2.286-3.364 2.067-.578-.063-.88.057-1.01.134-.103.062-.145.123-.149.157-.013.122.276.446 1.071.532 2.037.22 2.973 1.542 2.844 2.735-.129 1.192-1.324 2.286-3.362 2.065-.578-.062-.882.058-1.012.134-.104.064-.144.124-.148.158-.013.121.276.446 1.07.532a1 1 0 01.52 1.773z"/><path fill="#77B255" d="M30.661 22.857c1.973-.557 3.334.323 3.658 1.478.324 1.154-.378 2.615-2.35 3.17-.77.216-1.001.584-.97.701.034.118.425.312 1.193.095 1.972-.555 3.333.325 3.657 1.479.326 1.155-.378 2.614-2.351 3.17-.769.216-1.001.585-.967.702.033.117.423.311 1.192.095a1 1 0 11.54 1.925c-1.971.555-3.333-.323-3.659-1.479-.324-1.154.379-2.613 2.353-3.169.77-.217 1.001-.584.967-.702-.032-.117-.422-.312-1.19-.096-1.974.556-3.334-.322-3.659-1.479-.325-1.154.378-2.613 2.351-3.17.768-.215.999-.585.967-.701-.034-.118-.423-.312-1.192-.096a1 1 0 11-.54-1.923z"/><path fill="#AA8DD8" d="M23.001 20.16a1.001 1.001 0 01-.626-1.781c.218-.175 5.418-4.259 12.767-3.208a1 1 0 11-.283 1.979c-6.493-.922-11.187 2.754-11.233 2.791a.999.999 0 01-.625.219z"/><path fill="#77B255" d="M5.754 16a1 1 0 01-.958-1.287c1.133-3.773 2.16-9.794.898-11.364-.141-.178-.354-.353-.842-.316-.938.072-.849 2.051-.848 2.071a1 1 0 11-1.994.149c-.103-1.379.326-4.035 2.692-4.214 1.056-.08 1.933.287 2.552 1.057 2.371 2.951-.036 11.506-.542 13.192a1 1 0 01-.958.712z"/><circle fill="#5C913B" cx="25.5" cy="9.5" r="1.5"/><circle fill="#9266CC" cx="2" cy="18" r="2"/><circle fill="#5C913B" cx="32.5" cy="19.5" r="1.5"/><circle fill="#5C913B" cx="23.5" cy="31.5" r="1.5"/><circle fill="#FFCC4D" cx="28" cy="4" r="2"/><circle fill="#FFCC4D" cx="32.5" cy="8.5" r="1.5"/><circle fill="#FFCC4D" cx="29.5" cy="12.5" r="1.5"/><circle fill="#FFCC4D" cx="7.5" cy="23.5" r="1.5"/></svg><svg viewBox="0 0 36 36" id="games" xmlns="http://www.w3.org/2000/svg"><path fill="#A0041E" d="M4 11v.137c0-.042.011-.084.015-.126L4 11zm13 11.137a1.928 1.928 0 01-.412-.246L4.565 12.245C4.188 11.94 4 11.539 4 11.137v12.238c0 2.042 1.093 2.484 1.093 2.484l11.574 9.099c.205.161.377.259.528.318a1.094 1.094 0 01-.195-.604V22.137zm-8.773.363c-.994 0-2.033-1.007-2.319-2.25-.287-1.242.287-2.249 1.28-2.249.994 0 2.033 1.007 2.319 2.249.287 1.243-.286 2.25-1.28 2.25zM13.81 30c-.994 0-2.033-1.008-2.319-2.25-.287-1.243.287-2.25 1.281-2.25s2.033 1.007 2.319 2.25c.286 1.242-.287 2.25-1.281 2.25z"/><path fill="#DD2E44" d="M31.435 12.161l-12.104 9.73a1.88 1.88 0 01-.331.212v12.569c0 .233-.083.437-.2.614.155-.058.335-.16.548-.328 1.821-1.432 11.588-9.099 11.588-9.099S32 25.417 32 23.375V11.053c0 .402-.188.803-.565 1.108zm-7.457 16.731c-.242 1.137-1.119 2.058-1.958 2.058-.838 0-1.322-.921-1.08-2.058.242-1.137 1.118-2.058 1.957-2.058s1.322.921 1.081 2.058zm3.538-5.271c-.254 1.172-1.178 2.121-2.062 2.121-.883 0-1.392-.949-1.138-2.121.255-1.172 1.179-2.121 2.061-2.121.885 0 1.394.949 1.139 2.121zm3.063-5.105c-.251 1.115-1.163 2.017-2.035 2.017-.872 0-1.375-.902-1.123-2.017.251-1.113 1.162-2.016 2.034-2.016.873 0 1.376.903 1.124 2.016zm1.415-7.511c.001.016.006.032.006.048V11l-.006.005z"/><path fill="#EA596E" d="M31.435 9.945L19.289.5c-.753-.61-1.988-.61-2.742 0L4.565 10.029a1.44 1.44 0 00-.551.983c-.003.042-.014.083-.014.125 0 .402.188.803.565 1.108l12.023 9.646c.125.101.265.178.412.246v12.535c0 .229.081.43.194.604.181.28.466.474.806.474.336 0 .619-.19.8-.464a1.1 1.1 0 00.2-.614V22.103a1.88 1.88 0 00.331-.212l12.104-9.73c.377-.305.565-.706.565-1.108 0-.016-.005-.032-.006-.049-.014-.385-.198-.767-.559-1.059zM18.5 8.667c1.61 0 2.916 1.044 2.916 2.333 0 1.289-1.306 2.333-2.916 2.333-1.611 0-2.916-1.044-2.916-2.333 0-1.289 1.305-2.333 2.916-2.333z"/><ellipse fill="#FFF" cx="18.5" cy="11" rx="2.916" ry="2.333"/><path fill="#FFF" d="M29.455 16.5c-.872 0-1.783.903-2.034 2.016-.252 1.115.251 2.017 1.123 2.017s1.784-.902 2.035-2.017c.252-1.113-.251-2.016-1.124-2.016zm-3.077 5c-.883 0-1.807.949-2.061 2.121-.254 1.172.255 2.121 1.138 2.121.884 0 1.808-.949 2.062-2.121.254-1.172-.255-2.121-1.139-2.121zm-3.482 5.334c-.839 0-1.715.921-1.957 2.058-.242 1.137.242 2.058 1.08 2.058.839 0 1.716-.921 1.958-2.058.242-1.137-.242-2.058-1.081-2.058z"/><path fill="#E1E8ED" d="M7.188 18.001c-.994 0-1.567 1.007-1.28 2.249.287 1.243 1.325 2.25 2.319 2.25s1.567-1.007 1.28-2.25c-.286-1.242-1.325-2.249-2.319-2.249zm5.583 7.499c-.994 0-1.567 1.007-1.281 2.25.287 1.242 1.326 2.25 2.32 2.25.994 0 1.567-1.008 1.281-2.25-.287-1.243-1.326-2.25-2.32-2.25z"/></svg><svg viewBox="0 0 36 36" id="gates-valhalla" xmlns="http://www.w3.org/2000/svg"><path fill="#31373D" d="M36 27a4 4 0 01-4 4H4a4 4 0 01-4-4V9a4 4 0 014-4h28a4 4 0 014 4v18z"/><path fill="#CCD6DD" d="M11 24c0 2.209-.791 3-3 3H4c-2.209 0-3-.791-3-3V12c0-2.209.791-3 3-3h4c2.209 0 3 .791 3 3v12zm12 0c0 2.209-.791 3-3 3h-4c-2.209 0-3-.791-3-3V12c0-2.209.791-3 3-3h4c2.209 0 3 .791 3 3v12zm12 0c0 2.209-.791 3-3 3h-4c-2.209 0-3-.791-3-3V12c0-2.209.791-3 3-3h4c2.209 0 3 .791 3 3v12z"/><path fill="#E1E8ED" d="M1 13h10v10H1zm12 0h10v10H13zm12 0h10v10H25z"/><path fill="#BE1931" d="M30.795 15.685h-2.816c-.594 0-.813-.385-.813-.759 0-.385.209-.759.813-.759h3.983c.561 0 .792.506.792.792 0 .22-.121.451-.253.726l-2.729 5.545c-.308.615-.429.836-.925.836-.604 0-.912-.463-.912-.781 0-.133.033-.232.109-.385l2.751-5.215zm-12 0h-2.816c-.594 0-.814-.385-.814-.759 0-.385.209-.759.814-.759h3.983c.561 0 .792.506.792.792 0 .22-.121.451-.253.726l-2.729 5.545c-.308.615-.429.836-.924.836-.605 0-.913-.463-.913-.781 0-.133.033-.232.11-.385l2.75-5.215zm-12 0H3.979c-.594 0-.814-.385-.814-.759 0-.385.209-.759.814-.759h3.983c.561 0 .792.506.792.792 0 .22-.121.451-.253.726L5.772 21.23c-.308.615-.429.836-.924.836-.605 0-.913-.463-.913-.781 0-.133.033-.232.11-.385l2.75-5.215z"/><path fill="#9266CC" d="M3.061 9A2.08 2.08 0 003 9.5C3 10.881 4.343 12 6 12s3-1.119 3-2.5a2.08 2.08 0 00-.061-.5H3.061zm12 0a2.08 2.08 0 00-.061.5c0 1.381 1.343 2.5 3 2.5 1.656 0 3-1.119 3-2.5 0-.171-.021-.338-.06-.5h-5.879zM27.06 9c-.039.162-.06.329-.06.5 0 1.381 1.344 2.5 3 2.5s3-1.119 3-2.5a2.08 2.08 0 00-.061-.5H27.06z"/><path fill="#F4900C" d="M8.816 27A.868.868 0 009 26.5c0-.828-1.343-1.5-3-1.5s-3 .672-3 1.5c0 .176.072.343.184.5h5.632zm12 0a.868.868 0 00.184-.5c0-.828-1.344-1.5-3-1.5-1.657 0-3 .672-3 1.5 0 .176.072.343.184.5h5.632zm12 0a.868.868 0 00.184-.5c0-.828-1.344-1.5-3-1.5s-3 .672-3 1.5c0 .176.072.343.184.5h5.632z"/></svg><svg viewBox="0 0 36 36" id="genghis-great" xmlns="http://www.w3.org/2000/svg"><path fill="#31373D" d="M36 27a4 4 0 01-4 4H4a4 4 0 01-4-4V9a4 4 0 014-4h28a4 4 0 014 4v18z"/><path fill="#CCD6DD" d="M11 24c0 2.209-.791 3-3 3H4c-2.209 0-3-.791-3-3V12c0-2.209.791-3 3-3h4c2.209 0 3 .791 3 3v12zm12 0c0 2.209-.791 3-3 3h-4c-2.209 0-3-.791-3-3V12c0-2.209.791-3 3-3h4c2.209 0 3 .791 3 3v12zm12 0c0 2.209-.791 3-3 3h-4c-2.209 0-3-.791-3-3V12c0-2.209.791-3 3-3h4c2.209 0 3 .791 3 3v12z"/><path fill="#E1E8ED" d="M1 13h10v10H1zm12 0h10v10H13zm12 0h10v10H25z"/><path fill="#BE1931" d="M30.795 15.685h-2.816c-.594 0-.813-.385-.813-.759 0-.385.209-.759.813-.759h3.983c.561 0 .792.506.792.792 0 .22-.121.451-.253.726l-2.729 5.545c-.308.615-.429.836-.925.836-.604 0-.912-.463-.912-.781 0-.133.033-.232.109-.385l2.751-5.215zm-12 0h-2.816c-.594 0-.814-.385-.814-.759 0-.385.209-.759.814-.759h3.983c.561 0 .792.506.792.792 0 .22-.121.451-.253.726l-2.729 5.545c-.308.615-.429.836-.924.836-.605 0-.913-.463-.913-.781 0-.133.033-.232.11-.385l2.75-5.215zm-12 0H3.979c-.594 0-.814-.385-.814-.759 0-.385.209-.759.814-.759h3.983c.561 0 .792.506.792.792 0 .22-.121.451-.253.726L5.772 21.23c-.308.615-.429.836-.924.836-.605 0-.913-.463-.913-.781 0-.133.033-.232.11-.385l2.75-5.215z"/><path fill="#9266CC" d="M3.061 9A2.08 2.08 0 003 9.5C3 10.881 4.343 12 6 12s3-1.119 3-2.5a2.08 2.08 0 00-.061-.5H3.061zm12 0a2.08 2.08 0 00-.061.5c0 1.381 1.343 2.5 3 2.5 1.656 0 3-1.119 3-2.5 0-.171-.021-.338-.06-.5h-5.879zM27.06 9c-.039.162-.06.329-.06.5 0 1.381 1.344 2.5 3 2.5s3-1.119 3-2.5a2.08 2.08 0 00-.061-.5H27.06z"/><path fill="#F4900C" d="M8.816 27A.868.868 0 009 26.5c0-.828-1.343-1.5-3-1.5s-3 .672-3 1.5c0 .176.072.343.184.5h5.632zm12 0a.868.868 0 00.184-.5c0-.828-1.344-1.5-3-1.5-1.657 0-3 .672-3 1.5 0 .176.072.343.184.5h5.632zm12 0a.868.868 0 00.184-.5c0-.828-1.344-1.5-3-1.5s-3 .672-3 1.5c0 .176.072.343.184.5h5.632z"/></svg><svg viewBox="0 0 36 36" id="jetx" xmlns="http://www.w3.org/2000/svg"><path fill="#A0041E" d="M1 17l8-7 16 1 1 16-7 8s.001-5.999-6-12-12-6-12-6z"/><path fill="#FFAC33" d="M.973 35s-.036-7.979 2.985-11S15 21.187 15 21.187 14.999 29 11.999 32c-3 3-11.026 3-11.026 3z"/><circle fill="#FFCC4D" cx="8.999" cy="27" r="4"/><path fill="#55ACEE" d="M35.999 0s-10 0-22 10c-6 5-6 14-4 16s11 2 16-4c10-12 10-22 10-22z"/><path d="M26.999 5a3.996 3.996 0 00-3.641 2.36A3.969 3.969 0 0124.999 7a4 4 0 014 4c0 .586-.133 1.139-.359 1.64A3.993 3.993 0 0030.999 9a4 4 0 00-4-4z"/><path fill="#A0041E" d="M8 28s0-4 1-5 13.001-10.999 14-10-9.001 13-10.001 14S8 28 8 28z"/></svg><svg viewBox="0 0 36 36" id="key-features" xmlns="http://www.w3.org/2000/svg"><path fill="#55ACEE" d="M7.707 18.708a1.003 1.003 0 010-1.414l9.585-9.586a1.003 1.003 0 011.414 0l9.587 9.587a1.003 1.003 0 010 1.414l-9.587 9.585a1.003 1.003 0 01-1.414 0l-9.585-9.586z"/></svg><svg viewBox="0 0 36 36" id="languages" xmlns="http://www.w3.org/2000/svg"><circle fill="#88C9F9" cx="18" cy="18" r="18"/><path fill="#5C913B" d="M25.716 1.756c-1.022.568-1.872 1.528-3.028 1.181-1.875-.562-4.375-1.812-6-.25s-2 3 0 2.938 3.375-2.438 4.375-1.438.749 1.813-1.625 2.125S14.5 7 13.125 7s-1.688.812-.75 1.688-.563.937-2.125 1.812.375 1.25 1.688 2 2.312-.188 2.875-1.438 2.981-2.75 3.99-2.562c1.01.188 1.01.688.822 1.562s.75.625.812-.375 1.188-1.75 2.062-1.812 1.625 1.188.625 1.812-2 1.125-.75 1.438 2.125 1.938.688 2.625-3.937 1.125-5.062.562-3.688-1.375-4.375-.938-1.062.89-1.875 1.195c-.812.305-4.125 1.805-4.188 3.743S7.438 22.438 8.75 22.5s4.5-.812 5.5-1.625 2.375-.625 2.812.312.125 1.5-.312 3 .286 2.25.987 3.562c.701 1.312 1.263 2.062 1.263 3s1 1.875 2.5.312 2.875-4.625 3.5-5.75 1.125-3.625 1.875-4.125 1.938-1.688 1.062-1.5-2.625-.062-3.062-1.312-2.312-3.625-1.438-3.875 1.875 1.39 2.25 2.164c.375.774.875 1.711 1.625 1.961s2.375-1.673 2.875-1.961c.5-.289.125-1.476-.875-1.351s-2.312 0-2.312-.624 1.25-1.438 2.25-1.25 1.75.5 2.375 1.25 1.875 2.125 2.375 3 .875 1 1.125-.562c.166-1.038.387-1.609.59-2.222-1.013-5.829-4.82-10.683-9.999-13.148z"/></svg><svg viewBox="0 0 36 36" id="last-kingdom" xmlns="http://www.w3.org/2000/svg"><path fill="#31373D" d="M36 27a4 4 0 01-4 4H4a4 4 0 01-4-4V9a4 4 0 014-4h28a4 4 0 014 4v18z"/><path fill="#CCD6DD" d="M11 24c0 2.209-.791 3-3 3H4c-2.209 0-3-.791-3-3V12c0-2.209.791-3 3-3h4c2.209 0 3 .791 3 3v12zm12 0c0 2.209-.791 3-3 3h-4c-2.209 0-3-.791-3-3V12c0-2.209.791-3 3-3h4c2.209 0 3 .791 3 3v12zm12 0c0 2.209-.791 3-3 3h-4c-2.209 0-3-.791-3-3V12c0-2.209.791-3 3-3h4c2.209 0 3 .791 3 3v12z"/><path fill="#E1E8ED" d="M1 13h10v10H1zm12 0h10v10H13zm12 0h10v10H25z"/><path fill="#BE1931" d="M30.795 15.685h-2.816c-.594 0-.813-.385-.813-.759 0-.385.209-.759.813-.759h3.983c.561 0 .792.506.792.792 0 .22-.121.451-.253.726l-2.729 5.545c-.308.615-.429.836-.925.836-.604 0-.912-.463-.912-.781 0-.133.033-.232.109-.385l2.751-5.215zm-12 0h-2.816c-.594 0-.814-.385-.814-.759 0-.385.209-.759.814-.759h3.983c.561 0 .792.506.792.792 0 .22-.121.451-.253.726l-2.729 5.545c-.308.615-.429.836-.924.836-.605 0-.913-.463-.913-.781 0-.133.033-.232.11-.385l2.75-5.215zm-12 0H3.979c-.594 0-.814-.385-.814-.759 0-.385.209-.759.814-.759h3.983c.561 0 .792.506.792.792 0 .22-.121.451-.253.726L5.772 21.23c-.308.615-.429.836-.924.836-.605 0-.913-.463-.913-.781 0-.133.033-.232.11-.385l2.75-5.215z"/><path fill="#9266CC" d="M3.061 9A2.08 2.08 0 003 9.5C3 10.881 4.343 12 6 12s3-1.119 3-2.5a2.08 2.08 0 00-.061-.5H3.061zm12 0a2.08 2.08 0 00-.061.5c0 1.381 1.343 2.5 3 2.5 1.656 0 3-1.119 3-2.5 0-.171-.021-.338-.06-.5h-5.879zM27.06 9c-.039.162-.06.329-.06.5 0 1.381 1.344 2.5 3 2.5s3-1.119 3-2.5a2.08 2.08 0 00-.061-.5H27.06z"/><path fill="#F4900C" d="M8.816 27A.868.868 0 009 26.5c0-.828-1.343-1.5-3-1.5s-3 .672-3 1.5c0 .176.072.343.184.5h5.632zm12 0a.868.868 0 00.184-.5c0-.828-1.344-1.5-3-1.5-1.657 0-3 .672-3 1.5 0 .176.072.343.184.5h5.632zm12 0a.868.868 0 00.184-.5c0-.828-1.344-1.5-3-1.5s-3 .672-3 1.5c0 .176.072.343.184.5h5.632z"/></svg><svg viewBox="0 0 36 36" id="license" xmlns="http://www.w3.org/2000/svg"><path fill="#AAB8C2" d="M35 26a4 4 0 01-4 4H5a4 4 0 01-4-4V6.313C1 4.104 6.791 0 9 0h20.625C32.719 0 35 2.312 35 5.375V26z"/><path fill="#F5F8FA" d="M33 30a4 4 0 01-4 4H7a4 4 0 01-4-4V6c0-4.119-.021-4 5-4h21a4 4 0 014 4v24z"/><path fill="#FFF" d="M31 31a3 3 0 01-3 3H4a3 3 0 01-3-3V7a3 3 0 013-3h24a3 3 0 013 3v24z"/><path fill="#AAB8C2" d="M31 32a4 4 0 01-4 4H6a4 4 0 01-4-4V10a4 4 0 014-4h21a4 4 0 014 4v22z"/><path fill="#E1E8ED" d="M29 32a4 4 0 01-4 4H6a4 4 0 01-4-4V12a4 4 0 014-4h19.335C27.544 8 29 9.456 29 11.665V32z"/><path fill="#AAB8C2" d="M6 6C4.312 6 4.269 4.078 5 3.25 5.832 2.309 7.125 2 9.438 2H11V0H8.281C4.312 0 1 2.5 1 5.375V32a4 4 0 004 4h2V6H6z"/><g fill="#DD2E44"><path d="M17 4v23l4-6 4 6V4z"/><path d="M25 28a1 1 0 01-.832-.445L21 22.803l-3.168 4.752A.998.998 0 0116 27V4a1 1 0 011-1h8a1 1 0 011 1v23a1 1 0 01-1 1zm-4-8c.334 0 .646.167.832.445L24 23.697V5h-6v18.697l2.168-3.252c.186-.278.498-.445.832-.445z"/></g><path fill="#F5F8FA" d="M15 2h12v2H15z"/></svg><svg viewBox="0 0 36 36" id="live-casino" xmlns="http://www.w3.org/2000/svg"><path fill="#31373D" d="M32 21v1h-2v-1c0-.446-.09-.867-.225-1.268a6 6 0 00-1.776-11.733 5.972 5.972 0 00-4.131 1.656A7 7 0 0010 11a6.987 6.987 0 003.409 6H13a4 4 0 00-4 4H8l-6-4H1v14h1l6-4h1v2a4 4 0 004 4h13a4 4 0 004-4v-3h2v1h3v-6h-3z"/><path fill="#66757F" d="M22 11a5 5 0 11-10.001-.001A5 5 0 0122 11z"/><circle fill="#CCD6DD" cx="17" cy="11" r="2"/><circle fill="#66757F" cx="27.999" cy="14" r="4"/><circle fill="#CCD6DD" cx="27.999" cy="14" r="2"/><path fill="#8899A6" d="M17 20h10v10H17z"/><path fill="#31373D" d="M19 22h6v6h-6z"/><circle fill="#8899A6" cx="12.999" cy="28" r="2"/></svg><svg viewBox="0 0 36 36" id="mobile" xmlns="http://www.w3.org/2000/svg"><path fill="#31373D" d="M11 36s-4 0-4-4V4s0-4 4-4h14s4 0 4 4v28s0 4-4 4H11z"/><path fill="#55ACEE" d="M9 5h18v26H9z"/></svg><svg viewBox="0 0 36 36" id="mobile-app" xmlns="http://www.w3.org/2000/svg"><path fill="#31373D" d="M11 36s-4 0-4-4V4s0-4 4-4h14s4 0 4 4v28s0 4-4 4H11z"/><path fill="#55ACEE" d="M9 5h18v26H9z"/></svg><svg viewBox="0 0 36 36" id="operator" xmlns="http://www.w3.org/2000/svg"><path fill="#DAC8B1" d="M34 13a2 2 0 01-2 2h-6a2 2 0 01-2-2v-2a2 2 0 012-2h6a2 2 0 012 2v2zm-22 0a2 2 0 01-2 2H4a2 2 0 01-2-2v-2a2 2 0 012-2h6a2 2 0 012 2v2z"/><path fill="#F1DCC1" d="M36 34a2 2 0 01-2 2H2a2 2 0 01-2-2V13a2 2 0 012-2h32a2 2 0 012 2v21z"/><path fill="#DAC8B1" d="M22 9V7c0-.738-.404-1.376-1-1.723V5a2 2 0 00-2-2h-2a2 2 0 00-2 2v.277c-.595.347-1 .985-1 1.723v2h-1v27h10V9h-1z"/><path fill="#55ACEE" d="M14 7h2v2h-2zm6 0h2v2h-2zm-3 0h2v2h-2z"/><path fill="#3B88C3" d="M15 15h2v14h-2zm4 0h2v14h-2z"/><path fill="#55ACEE" d="M24 17h2v12h-2zm4 0h2v12h-2zm4 0h2v12h-2zM2 17h2v12H2zm4 0h2v12H6zm4 0h2v12h-2zM2 30h2v2H2zm4 0h2v2H6zm4 0h2v2h-2z"/><path fill="#3B88C3" d="M15 30h2v2h-2zm4 0h2v2h-2z"/><path fill="#55ACEE" d="M24 30h2v2h-2zm4 0h2v2h-2zm4 0h2v2h-2z"/><path fill="#66757F" d="M2 33h2v3H2zm4 0h2v3H6zm4 0h2v3h-2zm5 0h2v3h-2zm4 0h2v3h-2zm5 0h2v3h-2zm4 0h2v3h-2zm4 0h2v3h-2z"/></svg><svg viewBox="0 0 36 36" id="payout" xmlns="http://www.w3.org/2000/svg"><path fill="#A0041E" d="M1 17l8-7 16 1 1 16-7 8s.001-5.999-6-12-12-6-12-6z"/><path fill="#FFAC33" d="M.973 35s-.036-7.979 2.985-11S15 21.187 15 21.187 14.999 29 11.999 32c-3 3-11.026 3-11.026 3z"/><circle fill="#FFCC4D" cx="8.999" cy="27" r="4"/><path fill="#55ACEE" d="M35.999 0s-10 0-22 10c-6 5-6 14-4 16s11 2 16-4c10-12 10-22 10-22z"/><path d="M26.999 5a3.996 3.996 0 00-3.641 2.36A3.969 3.969 0 0124.999 7a4 4 0 014 4c0 .586-.133 1.139-.359 1.64A3.993 3.993 0 0030.999 9a4 4 0 00-4-4z"/><path fill="#A0041E" d="M8 28s0-4 1-5 13.001-10.999 14-10-9.001 13-10.001 14S8 28 8 28z"/></svg><svg viewBox="0 0 36 36" id="poker" xmlns="http://www.w3.org/2000/svg"><path fill="#E6E7E8" d="M32 32a4 4 0 01-4 4H8a4 4 0 01-4-4V4a4 4 0 014-4h20a4 4 0 014 4v28z"/><path fill="#DD2E44" d="M11 7c-2.519 0-4.583 1.87-4.929 4.293A3.979 3.979 0 019 10a4 4 0 014 4c0 2 1.497 2.198.707 2.929C16.13 16.583 16 14.519 16 12a5 5 0 00-5-5z"/><path fill="#55ACEE" d="M23 14a4 4 0 014-4c1.161 0 2.198.503 2.929 1.293C29.583 8.87 27.52 7 25 7a5 5 0 00-5 5c0 2.519-.131 4.583 2.293 4.929C21.503 16.198 23 16 23 14z"/><path fill="#FFAC33" d="M14 12c0-4.971 4-9 4-9s4 4.029 4 9-1.791 9-4 9-4-4.029-4-9z"/><path fill="#553788" d="M11.707 21.071A3.979 3.979 0 0113 24a4 4 0 01-4 4 3.979 3.979 0 01-2.929-1.293C6.417 29.131 8.481 31 11 31a5 5 0 005-5c0-2.52-1.87-4.583-4.293-4.929zM27 28a4 4 0 01-4-4c0-1.161.503-2.198 1.293-2.929C21.869 21.417 20 23.48 20 26a5 5 0 005 5c2.52 0 4.583-1.869 4.929-4.293A3.979 3.979 0 0127 28z"/><path fill="#9266CC" d="M14 24c0 4.971 3 9 4 9s4-4.029 4-9c0-.874-.055-1.719-.159-2.519C21.357 17.737 19.82 15 18 15c-1.82 0-3.357 2.737-3.841 6.481-.104.8-.159 1.645-.159 2.519z"/><path fill="#EDBB9F" d="M13 17c0-3.866 3-4 5-4s5 .134 5 4c0 3.865-2.238 7-5 7-2.761 0-5-3.135-5-7z"/><circle fill="#662113" cx="16" cy="17" r="1"/><circle fill="#662113" cx="20" cy="17" r="1"/><path fill="#662113" d="M18 22a2 2 0 002-2h-4a2 2 0 002 2z"/><circle fill="#A0041E" cx="6" cy="11" r="1"/><circle fill="#269" cx="30" cy="11" r="1"/><circle fill="#DD2E44" cx="18" cy="3" r="1"/></svg><svg viewBox="0 0 36 36" id="providers" xmlns="http://www.w3.org/2000/svg"><path fill="#31373D" d="M2.13 14.856l-.004-.002S.075 27.271.075 29.061c0 1.824 1.343 3.302 3 3.302.68 0 1.3-.258 1.803-.678l10.166-8.938L2.13 14.856zm31.69 0l.004-.002s2.051 12.417 2.051 14.207c0 1.824-1.343 3.302-3 3.302-.68 0-1.3-.258-1.803-.678l-10.166-8.938 12.914-7.891z"/><g fill="#14171A"><circle cx="25.975" cy="15.551" r="8.5"/><circle cx="9.975" cy="15.551" r="8.5"/><path d="M9.975 7.051h16v16.87h-16z"/></g><circle fill="#14171A" cx="13.075" cy="23.301" r="5"/><circle fill="#14171A" cx="22.875" cy="23.301" r="5"/><circle fill="#67757F" cx="22.875" cy="23.301" r="3"/><circle fill="#67757F" cx="13.075" cy="23.301" r="3"/><circle fill="#FFCC4D" cx="25.735" cy="11.133" r="1.603"/><circle fill="#77B255" cx="25.735" cy="17.607" r="1.603"/><circle fill="#50A5E6" cx="22.498" cy="14.37" r="1.603"/><circle fill="#DD2E44" cx="28.972" cy="14.37" r="1.603"/><path d="M11.148 12.514v-2.168a.505.505 0 00-.505-.505H9.085a.505.505 0 00-.505.505v2.168l1.284 1.285 1.284-1.285zm-2.569 3.63v2.168c0 .279.226.505.505.505h1.558a.505.505 0 00.505-.505v-2.168l-1.284-1.285-1.284 1.285zm5.269-3.1H11.68l-1.285 1.285 1.285 1.285h2.168a.506.506 0 00.505-.505V13.55a.506.506 0 00-.505-.506zm-5.799 0H5.88a.506.506 0 00-.505.505v1.558c0 .279.226.505.505.505h2.168l1.285-1.285-1.284-1.283z" fill="#8899A6"/></svg><svg viewBox="0 0 36 36" id="refer-friend" xmlns="http://www.w3.org/2000/svg"><path fill="#55ACEE" d="M29 20.729v-1.963c1-1.03 2.914-2.89 3.391-5.273.142.079.055.13.213.13.758 0 1.256-.983 1.256-2.197 0-1.194-.656-2.161-1.399-2.191.143-.516.212-1.206.212-2.092 0-2.956-2.549-6.505-8.253-6.505-5.068 0-8.244 3.549-8.244 6.505 0 .858.051 1.562.142 2.107-.697.105-1.247 1.033-1.247 2.175 0 1.214.614 2.197 1.373 2.197.157 0-.069-.051.072-.13.477 2.384 2.484 4.243 3.484 5.274v1.847c-4 .492-7 2.628-7 4.765v.81c0 .812.823.812 1.634.812h18.73c.813 0 1.636 0 1.636-.812v-.81c0-2.001-3-3.997-6-4.649z"/><path fill="#269" d="M17 28.729v-1.963c1-1.03 2.914-2.89 3.391-5.273.142.079.055.13.213.13.758 0 1.256-.983 1.256-2.197 0-1.194-.656-2.161-1.399-2.191.143-.516.212-1.206.212-2.092 0-2.956-2.549-6.505-8.253-6.505-5.069 0-8.244 3.549-8.244 6.505 0 .858.051 1.562.142 2.107-.697.105-1.247 1.033-1.247 2.175 0 1.214.614 2.197 1.373 2.197.157 0-.069-.051.072-.13C4.993 23.876 7 25.735 8 26.766v1.847c-4 .492-7 2.628-7 4.765v.811C1 35 1.823 35 2.634 35h18.73c.813 0 1.636 0 1.636-.812v-.811c0-2-3-3.996-6-4.648z"/></svg><svg viewBox="0 0 36 36" id="roulette" xmlns="http://www.w3.org/2000/svg"><path fill="#CCD6DD" d="M30.806 15.347H19.201l8.205-8.205-.707-.707-8.205 8.205V3.036h-1V14.64L9.288 6.435l-.707.707 8.206 8.205H5.182v1h11.605l-8.206 8.206.707.707 8.206-8.206v11.605h1V17.055l8.205 8.205.707-.707-8.205-8.206h11.605z"/><path fill="#AAB8C2" d="M17.994 1.394c-7.982 0-14.453 6.471-14.453 14.453 0 7.982 6.471 14.453 14.453 14.453 7.983 0 14.454-6.471 14.454-14.453-.001-7.982-6.472-14.453-14.454-14.453zm0 26.683c-6.755 0-12.23-5.475-12.23-12.23s5.475-12.23 12.23-12.23c6.754 0 12.23 5.475 12.23 12.23s-5.475 12.23-12.23 12.23z"/><path fill="#AAB8C2" d="M17.993 23.374c-4.15 0-7.526-3.377-7.526-7.527s3.376-7.526 7.526-7.526c4.151 0 7.528 3.376 7.528 7.526s-3.376 7.527-7.528 7.527zm0-13.553c-3.323 0-6.026 2.704-6.026 6.026s2.704 6.027 6.026 6.027c3.324 0 6.028-2.704 6.028-6.027s-2.704-6.026-6.028-6.026z"/><path fill="#8899A6" d="M27.279 34.429l-8.376-18.344c-.021-.046-.058-.076-.085-.117-.038-.059-.072-.118-.123-.169-.051-.051-.11-.085-.17-.123-.041-.027-.071-.064-.117-.085-.012-.005-.024-.003-.035-.008-.064-.027-.132-.034-.201-.047-.061-.011-.121-.03-.182-.03-.054 0-.106.018-.161.027-.075.013-.149.022-.219.051-.011.005-.023.003-.034.008-.044.02-.074.057-.114.082-.061.039-.121.074-.173.125-.051.051-.086.111-.124.171-.026.04-.063.07-.083.115L8.709 34.429a1 1 0 001.819.83l7.465-16.351 7.465 16.351a1 1 0 001.821-.83z"/><path d="M12.9 36H7.079a1 1 0 110-2H12.9a1 1 0 110 2zm15.999 0h-5.82a1 1 0 110-2h5.82a1 1 0 110 2z" fill="#553788"/><path fill="#744EAA" d="M21.284 29.819a2.779 2.779 0 01-2.779 2.779h-1.112a2.779 2.779 0 110-5.558h1.112a2.78 2.78 0 012.779 2.779z"/><path fill="#CBB7EA" d="M21.227 29.263a2.779 2.779 0 00-2.723-2.224h-1.112a2.78 2.78 0 00-2.724 2.224h6.559z"/><path fill="#5C913B" d="M11.017 26.527a2.779 2.779 0 01-2.779 2.779H7.126a2.779 2.779 0 110-5.558h1.112a2.779 2.779 0 012.779 2.779z"/><path fill="#C6E5B3" d="M10.96 25.971a2.779 2.779 0 00-2.723-2.224H7.126a2.78 2.78 0 00-2.724 2.224h6.558z"/><path fill="#3B94D9" d="M34.977 17.633a2.779 2.779 0 01-2.779 2.779h-1.112a2.779 2.779 0 110-5.558h1.112a2.777 2.777 0 012.779 2.779z"/><path fill="#BBDDF5" d="M34.921 17.077a2.779 2.779 0 00-2.723-2.224h-1.112a2.779 2.779 0 00-2.723 2.224h6.558z"/><path fill="#5C913B" d="M31.644 7.887a2.779 2.779 0 01-2.779 2.779h-1.112a2.779 2.779 0 110-5.558h1.112a2.779 2.779 0 012.779 2.779z"/><path fill="#C6E5B3" d="M31.588 7.331a2.779 2.779 0 00-2.723-2.224h-1.112a2.779 2.779 0 00-2.723 2.224h6.558z"/><path fill="#BE1931" d="M31.644 26.527a2.779 2.779 0 01-2.779 2.779h-1.112a2.779 2.779 0 110-5.558h1.112a2.779 2.779 0 012.779 2.779z"/><path fill="#F4ABBA" d="M31.588 25.971a2.779 2.779 0 00-2.723-2.224h-1.112a2.779 2.779 0 00-2.723 2.224h6.558z"/><path fill="#BE1931" d="M11.017 7.887a2.779 2.779 0 01-2.779 2.779H7.126a2.779 2.779 0 110-5.558h1.112a2.779 2.779 0 012.779 2.779z"/><path fill="#F4ABBA" d="M10.96 7.331a2.779 2.779 0 00-2.723-2.224H7.126a2.78 2.78 0 00-2.724 2.224h6.558z"/><path fill="#744EAA" d="M21.284 2.876a2.779 2.779 0 01-2.779 2.779h-1.112a2.779 2.779 0 110-5.558h1.112a2.778 2.778 0 012.779 2.779z"/><path fill="#CBB7EA" d="M21.227 2.32A2.779 2.779 0 0018.504.096h-1.112a2.78 2.78 0 00-2.724 2.224h6.559z"/><path fill="#3B94D9" d="M7.682 17.633a2.779 2.779 0 01-2.779 2.779H3.79a2.779 2.779 0 110-5.558h1.112a2.778 2.778 0 012.78 2.779z"/><path fill="#BBDDF5" d="M7.625 17.077a2.779 2.779 0 00-2.723-2.224H3.79a2.78 2.78 0 00-2.724 2.224h6.559z"/><path fill="#553788" d="M14.952 15.847a3.041 3.041 0 116.082 0 3.041 3.041 0 01-6.082 0z"/></svg><svg viewBox="0 0 36 36" id="rtp" xmlns="http://www.w3.org/2000/svg"><circle fill="#DD2E44" cx="18" cy="18" r="18"/><circle fill="#FFF" cx="18" cy="18" r="13.5"/><circle fill="#DD2E44" cx="18" cy="18" r="10"/><circle fill="#FFF" cx="18" cy="18" r="6"/><circle fill="#DD2E44" cx="18" cy="18" r="3"/><path opacity=".2" d="M18.24 18.282l13.144 11.754s-2.647 3.376-7.89 5.109L17.579 18.42l.661-.138z"/><path fill="#FFAC33" d="M18.294 19a.994.994 0 01-.704-1.699l.563-.563a.995.995 0 011.408 1.407l-.564.563a.987.987 0 01-.703.292z"/><path fill="#55ACEE" d="M24.016 6.981c-.403 2.079 0 4.691 0 4.691l7.054-7.388c.291-1.454-.528-3.932-1.718-4.238-1.19-.306-4.079.803-5.336 6.935zm5.003 5.003c-2.079.403-4.691 0-4.691 0l7.388-7.054c1.454-.291 3.932.528 4.238 1.718.306 1.19-.803 4.079-6.935 5.336z"/><path fill="#3A87C2" d="M32.798 4.485L21.176 17.587c-.362.362-1.673.882-2.51.046-.836-.836-.419-2.08-.057-2.443L31.815 3.501s.676-.635 1.159-.152-.176 1.136-.176 1.136z"/></svg><svg viewBox="0 0 36 36" id="slots" xmlns="http://www.w3.org/2000/svg"><path fill="#31373D" d="M36 27a4 4 0 01-4 4H4a4 4 0 01-4-4V9a4 4 0 014-4h28a4 4 0 014 4v18z"/><path fill="#CCD6DD" d="M11 24c0 2.209-.791 3-3 3H4c-2.209 0-3-.791-3-3V12c0-2.209.791-3 3-3h4c2.209 0 3 .791 3 3v12zm12 0c0 2.209-.791 3-3 3h-4c-2.209 0-3-.791-3-3V12c0-2.209.791-3 3-3h4c2.209 0 3 .791 3 3v12zm12 0c0 2.209-.791 3-3 3h-4c-2.209 0-3-.791-3-3V12c0-2.209.791-3 3-3h4c2.209 0 3 .791 3 3v12z"/><path fill="#E1E8ED" d="M1 13h10v10H1zm12 0h10v10H13zm12 0h10v10H25z"/><path fill="#BE1931" d="M30.795 15.685h-2.816c-.594 0-.813-.385-.813-.759 0-.385.209-.759.813-.759h3.983c.561 0 .792.506.792.792 0 .22-.121.451-.253.726l-2.729 5.545c-.308.615-.429.836-.925.836-.604 0-.912-.463-.912-.781 0-.133.033-.232.109-.385l2.751-5.215zm-12 0h-2.816c-.594 0-.814-.385-.814-.759 0-.385.209-.759.814-.759h3.983c.561 0 .792.506.792.792 0 .22-.121.451-.253.726l-2.729 5.545c-.308.615-.429.836-.924.836-.605 0-.913-.463-.913-.781 0-.133.033-.232.11-.385l2.75-5.215zm-12 0H3.979c-.594 0-.814-.385-.814-.759 0-.385.209-.759.814-.759h3.983c.561 0 .792.506.792.792 0 .22-.121.451-.253.726L5.772 21.23c-.308.615-.429.836-.924.836-.605 0-.913-.463-.913-.781 0-.133.033-.232.11-.385l2.75-5.215z"/><path fill="#9266CC" d="M3.061 9A2.08 2.08 0 003 9.5C3 10.881 4.343 12 6 12s3-1.119 3-2.5a2.08 2.08 0 00-.061-.5H3.061zm12 0a2.08 2.08 0 00-.061.5c0 1.381 1.343 2.5 3 2.5 1.656 0 3-1.119 3-2.5 0-.171-.021-.338-.06-.5h-5.879zM27.06 9c-.039.162-.06.329-.06.5 0 1.381 1.344 2.5 3 2.5s3-1.119 3-2.5a2.08 2.08 0 00-.061-.5H27.06z"/><path fill="#F4900C" d="M8.816 27A.868.868 0 009 26.5c0-.828-1.343-1.5-3-1.5s-3 .672-3 1.5c0 .176.072.343.184.5h5.632zm12 0a.868.868 0 00.184-.5c0-.828-1.344-1.5-3-1.5-1.657 0-3 .672-3 1.5 0 .176.072.343.184.5h5.632zm12 0a.868.868 0 00.184-.5c0-.828-1.344-1.5-3-1.5s-3 .672-3 1.5c0 .176.072.343.184.5h5.632z"/></svg><svg viewBox="0 0 36 36" id="sports" xmlns="http://www.w3.org/2000/svg"><circle fill="#F5F8FA" cx="18" cy="18" r="18"/><path d="M18 11a1 1 0 01-1-1V3a1 1 0 012 0v7a1 1 0 01-1 1zm-6.583 4.5a.99.99 0 01-.302-.047l-8.041-2.542a1 1 0 11.603-1.907l8.042 2.542a1 1 0 01-.302 1.954zm13.625-.291a1.001 1.001 0 01-.278-1.961l6.75-1.958a1 1 0 01.556 1.921l-6.75 1.958a.989.989 0 01-.278.04zm2.001 14.958a1 1 0 01-.803-.403l-5.459-7.333a1 1 0 111.604-1.194l5.459 7.333a1 1 0 01-.801 1.597zm-18.294-.083a1 1 0 01-.82-1.571l5.125-7.375a1 1 0 111.642 1.141l-5.125 7.375a.996.996 0 01-.822.43zM3.5 27.062c-.44 0-.844-.293-.965-.738L.347 18.262a1 1 0 111.931-.523l2.188 8.062a.998.998 0 01-.966 1.261zM22 34h-9a1 1 0 110-2h9a1 1 0 110 2zm10.126-6.875a.999.999 0 01-.971-1.239l2.125-8.625a1 1 0 111.941.479l-2.125 8.625c-.113.455-.521.76-.97.76zM30.312 7.688a.998.998 0 01-.5-.134L22.25 3.179a1 1 0 01-.364-1.367.998.998 0 011.366-.365l7.562 4.375a1 1 0 01-.502 1.866zm-24.811 0a1 1 0 01-.584-1.813l6.188-4.438a1.001 1.001 0 011.167 1.625L6.083 7.5a1 1 0 01-.582.188z" fill="#CCD6DD"/><path d="M25.493 13.516l-7.208-5.083a1.002 1.002 0 00-1.161.006l-7.167 5.167a1 1 0 00-.375 1.091l2.5 8.583a1 1 0 00.96.72H22a1 1 0 00.948-.681l2.917-8.667a1 1 0 00-.372-1.136zM1.292 19.542a1 1 0 00.872-.51l3.375-6a1 1 0 00.108-.291L6.98 6.2A.999.999 0 006 5h-.428C2.145 8.277 0 12.884 0 18c0 .266.028.525.04.788l.602.514c.182.156.413.24.65.24zm9.325-16.547a.748.748 0 00.553.412l6.375 1.042a.823.823 0 00.243 0l6.084-1a.748.748 0 00.613-.889l-.292-1.443A17.912 17.912 0 0018 0c-2.425 0-4.734.486-6.845 1.356l-.521.95a.752.752 0 00-.017.689zm20.517 2.724l-1.504-.095a.758.758 0 00-.609.249.741.741 0 00-.175.63l1.167 6.198a.666.666 0 00.093.224c1.492 2.504 3.152 5.301 3.381 5.782.024.084.062.079.114.151.14.195.372.142.612.142h.007c.198 0 .323.094 1.768-.753.001-.083.012-.164.012-.247 0-4.753-1.856-9.064-4.866-12.281zM14.541 33.376a.755.755 0 00-.191-.544l-4.5-5a.746.746 0 00-.211-.163c-5.885-3.069-5.994-3.105-6.066-3.13a.8.8 0 00-.242-.039c-.537 0-.695.065-1.185 2.024a18.044 18.044 0 0010.644 8.703l1.5-1.333a.753.753 0 00.251-.518zm17.833-8.567a.747.747 0 00-.592.005l-6.083 2.667a.738.738 0 00-.274.205l-4.25 5.083a.752.752 0 00.1 1.062c.683.559 1.261 1.03 1.767 1.44a18.017 18.017 0 0010.454-8.146l-.712-1.889a.749.749 0 00-.41-.427z" fill="#31373D"/></svg><svg viewBox="0 0 36 36" id="sports-footer" xmlns="http://www.w3.org/2000/svg"><path fill="#DD2E44" d="M11.626 7.488a1.413 1.413 0 00-.268.395l-.008-.008L.134 33.141l.011.011c-.208.403.14 1.223.853 1.937.713.713 1.533 1.061 1.936.853l.01.01L28.21 24.735l-.008-.009c.147-.07.282-.155.395-.269 1.562-1.562-.971-6.627-5.656-11.313-4.687-4.686-9.752-7.218-11.315-5.656z"/><path fill="#EA596E" d="M13 12L.416 32.506l-.282.635.011.011c-.208.403.14 1.223.853 1.937.232.232.473.408.709.557L17 17l-4-5z"/><path fill="#A0041E" d="M23.012 13.066c4.67 4.672 7.263 9.652 5.789 11.124-1.473 1.474-6.453-1.118-11.126-5.788-4.671-4.672-7.263-9.654-5.79-11.127 1.474-1.473 6.454 1.119 11.127 5.791z"/><path fill="#AA8DD8" d="M18.59 13.609a.99.99 0 01-.734.215c-.868-.094-1.598-.396-2.109-.873-.541-.505-.808-1.183-.735-1.862.128-1.192 1.324-2.286 3.363-2.066.793.085 1.147-.17 1.159-.292.014-.121-.277-.446-1.07-.532-.868-.094-1.598-.396-2.11-.873-.541-.505-.809-1.183-.735-1.862.13-1.192 1.325-2.286 3.362-2.065.578.062.883-.057 1.012-.134.103-.063.144-.123.148-.158.012-.121-.275-.446-1.07-.532a.998.998 0 01-.886-1.102.997.997 0 011.101-.886c2.037.219 2.973 1.542 2.844 2.735-.13 1.194-1.325 2.286-3.364 2.067-.578-.063-.88.057-1.01.134-.103.062-.145.123-.149.157-.013.122.276.446 1.071.532 2.037.22 2.973 1.542 2.844 2.735-.129 1.192-1.324 2.286-3.362 2.065-.578-.062-.882.058-1.012.134-.104.064-.144.124-.148.158-.013.121.276.446 1.07.532a1 1 0 01.52 1.773z"/><path fill="#77B255" d="M30.661 22.857c1.973-.557 3.334.323 3.658 1.478.324 1.154-.378 2.615-2.35 3.17-.77.216-1.001.584-.97.701.034.118.425.312 1.193.095 1.972-.555 3.333.325 3.657 1.479.326 1.155-.378 2.614-2.351 3.17-.769.216-1.001.585-.967.702.033.117.423.311 1.192.095a1 1 0 11.54 1.925c-1.971.555-3.333-.323-3.659-1.479-.324-1.154.379-2.613 2.353-3.169.77-.217 1.001-.584.967-.702-.032-.117-.422-.312-1.19-.096-1.974.556-3.334-.322-3.659-1.479-.325-1.154.378-2.613 2.351-3.17.768-.215.999-.585.967-.701-.034-.118-.423-.312-1.192-.096a1 1 0 11-.54-1.923z"/><path fill="#AA8DD8" d="M23.001 20.16a1.001 1.001 0 01-.626-1.781c.218-.175 5.418-4.259 12.767-3.208a1 1 0 11-.283 1.979c-6.493-.922-11.187 2.754-11.233 2.791a.999.999 0 01-.625.219z"/><path fill="#77B255" d="M5.754 16a1 1 0 01-.958-1.287c1.133-3.773 2.16-9.794.898-11.364-.141-.178-.354-.353-.842-.316-.938.072-.849 2.051-.848 2.071a1 1 0 11-1.994.149c-.103-1.379.326-4.035 2.692-4.214 1.056-.08 1.933.287 2.552 1.057 2.371 2.951-.036 11.506-.542 13.192a1 1 0 01-.958.712z"/><circle fill="#5C913B" cx="25.5" cy="9.5" r="1.5"/><circle fill="#9266CC" cx="2" cy="18" r="2"/><circle fill="#5C913B" cx="32.5" cy="19.5" r="1.5"/><circle fill="#5C913B" cx="23.5" cy="31.5" r="1.5"/><circle fill="#FFCC4D" cx="28" cy="4" r="2"/><circle fill="#FFCC4D" cx="32.5" cy="8.5" r="1.5"/><circle fill="#FFCC4D" cx="29.5" cy="12.5" r="1.5"/><circle fill="#FFCC4D" cx="7.5" cy="23.5" r="1.5"/></svg><svg viewBox="0 0 36 36" id="support" xmlns="http://www.w3.org/2000/svg"><path fill="#31373D" d="M34.06 26.407l-3.496-3.496a4.942 4.942 0 00-8.34 2.528c-5.765-1.078-11.372-6.662-11.721-11.653a4.908 4.908 0 002.586-1.36 4.943 4.943 0 000-6.99L9.594 1.94a4.943 4.943 0 00-6.99 0C-7.882 12.426 23.574 43.882 34.06 33.396a4.944 4.944 0 000-6.989z"/></svg><svg viewBox="0 0 36 36" id="support-footer" xmlns="http://www.w3.org/2000/svg"><path fill="#77B255" d="M36 32a4 4 0 01-4 4H4a4 4 0 01-4-4V4a4 4 0 014-4h28a4 4 0 014 4v28z"/><path fill="#FFF" d="M29.28 6.362a2.502 2.502 0 00-3.458.736L14.936 23.877l-5.029-4.65a2.5 2.5 0 10-3.394 3.671l7.209 6.666c.48.445 1.09.665 1.696.665.673 0 1.534-.282 2.099-1.139.332-.506 12.5-19.27 12.5-19.27a2.5 2.5 0 00-.737-3.458z"/></svg><svg viewBox="0 0 36 36" id="table-games" xmlns="http://www.w3.org/2000/svg"><path fill="#A0041E" d="M4 11v.137c0-.042.011-.084.015-.126L4 11zm13 11.137a1.928 1.928 0 01-.412-.246L4.565 12.245C4.188 11.94 4 11.539 4 11.137v12.238c0 2.042 1.093 2.484 1.093 2.484l11.574 9.099c.205.161.377.259.528.318a1.094 1.094 0 01-.195-.604V22.137zm-8.773.363c-.994 0-2.033-1.007-2.319-2.25-.287-1.242.287-2.249 1.28-2.249.994 0 2.033 1.007 2.319 2.249.287 1.243-.286 2.25-1.28 2.25zM13.81 30c-.994 0-2.033-1.008-2.319-2.25-.287-1.243.287-2.25 1.281-2.25s2.033 1.007 2.319 2.25c.286 1.242-.287 2.25-1.281 2.25z"/><path fill="#DD2E44" d="M31.435 12.161l-12.104 9.73a1.88 1.88 0 01-.331.212v12.569c0 .233-.083.437-.2.614.155-.058.335-.16.548-.328 1.821-1.432 11.588-9.099 11.588-9.099S32 25.417 32 23.375V11.053c0 .402-.188.803-.565 1.108zm-7.457 16.731c-.242 1.137-1.119 2.058-1.958 2.058-.838 0-1.322-.921-1.08-2.058.242-1.137 1.118-2.058 1.957-2.058s1.322.921 1.081 2.058zm3.538-5.271c-.254 1.172-1.178 2.121-2.062 2.121-.883 0-1.392-.949-1.138-2.121.255-1.172 1.179-2.121 2.061-2.121.885 0 1.394.949 1.139 2.121zm3.063-5.105c-.251 1.115-1.163 2.017-2.035 2.017-.872 0-1.375-.902-1.123-2.017.251-1.113 1.162-2.016 2.034-2.016.873 0 1.376.903 1.124 2.016zm1.415-7.511c.001.016.006.032.006.048V11l-.006.005z"/><path fill="#EA596E" d="M31.435 9.945L19.289.5c-.753-.61-1.988-.61-2.742 0L4.565 10.029a1.44 1.44 0 00-.551.983c-.003.042-.014.083-.014.125 0 .402.188.803.565 1.108l12.023 9.646c.125.101.265.178.412.246v12.535c0 .229.081.43.194.604.181.28.466.474.806.474.336 0 .619-.19.8-.464a1.1 1.1 0 00.2-.614V22.103a1.88 1.88 0 00.331-.212l12.104-9.73c.377-.305.565-.706.565-1.108 0-.016-.005-.032-.006-.049-.014-.385-.198-.767-.559-1.059zM18.5 8.667c1.61 0 2.916 1.044 2.916 2.333 0 1.289-1.306 2.333-2.916 2.333-1.611 0-2.916-1.044-2.916-2.333 0-1.289 1.305-2.333 2.916-2.333z"/><ellipse fill="#FFF" cx="18.5" cy="11" rx="2.916" ry="2.333"/><path fill="#FFF" d="M29.455 16.5c-.872 0-1.783.903-2.034 2.016-.252 1.115.251 2.017 1.123 2.017s1.784-.902 2.035-2.017c.252-1.113-.251-2.016-1.124-2.016zm-3.077 5c-.883 0-1.807.949-2.061 2.121-.254 1.172.255 2.121 1.138 2.121.884 0 1.808-.949 2.062-2.121.254-1.172-.255-2.121-1.139-2.121zm-3.482 5.334c-.839 0-1.715.921-1.957 2.058-.242 1.137.242 2.058 1.08 2.058.839 0 1.716-.921 1.958-2.058.242-1.137-.242-2.058-1.081-2.058z"/><path fill="#E1E8ED" d="M7.188 18.001c-.994 0-1.567 1.007-1.28 2.249.287 1.243 1.325 2.25 2.319 2.25s1.567-1.007 1.28-2.25c-.286-1.242-1.325-2.249-2.319-2.249zm5.583 7.499c-.994 0-1.567 1.007-1.281 2.25.287 1.242 1.326 2.25 2.32 2.25.994 0 1.567-1.008 1.281-2.25-.287-1.243-1.326-2.25-2.32-2.25z"/></svg><svg viewBox="0 0 36 36" id="welcome-bonus" xmlns="http://www.w3.org/2000/svg"><path fill="#3B88C3" d="M36 32a4 4 0 01-4 4H4a4 4 0 01-4-4V4a4 4 0 014-4h28a4 4 0 014 4v28z"/><path d="M1.836 12.585c0-.738.504-1.404 1.405-1.404H7.85c.792 0 1.206.612 1.206 1.242 0 .612-.396 1.243-1.206 1.243H4.538v2.629h2.791c.864 0 1.296.612 1.296 1.224 0 .631-.432 1.261-1.296 1.261H4.538v3.925c0 .9-.576 1.405-1.351 1.405-.774 0-1.351-.505-1.351-1.405v-10.12zm7.992 0c0-.864.486-1.404 1.387-1.404h3.169c2.773 0 4.483 1.242 4.483 4.069 0 1.981-1.495 3.115-3.331 3.403l3.061 3.277c.252.269.36.54.36.792 0 .702-.558 1.387-1.351 1.387-.324 0-.756-.126-1.044-.469l-3.998-4.843h-.036v3.906c0 .9-.576 1.405-1.351 1.405-.774 0-1.351-.505-1.351-1.405V12.585zm2.701 4.267h1.854c.99 0 1.674-.594 1.674-1.603 0-1.026-.684-1.584-1.674-1.584h-1.854v3.187zm6.948-4.105c0-.9.449-1.566 1.404-1.566h4.465c.865 0 1.279.612 1.279 1.242 0 .612-.434 1.243-1.279 1.243h-3.168v2.629h2.952c.882 0 1.313.612 1.313 1.242 0 .612-.449 1.242-1.313 1.242h-2.952v2.737h3.33c.865 0 1.279.611 1.279 1.242 0 .612-.434 1.242-1.279 1.242h-4.644c-.793 0-1.387-.54-1.387-1.351v-9.902zm7.974 0c0-.9.449-1.566 1.404-1.566h4.465c.863 0 1.277.612 1.277 1.242 0 .612-.432 1.243-1.277 1.243h-3.17v2.629h2.953c.883 0 1.314.612 1.314 1.242 0 .612-.449 1.242-1.314 1.242H30.15v2.737h3.332c.863 0 1.277.611 1.277 1.242 0 .612-.432 1.242-1.277 1.242h-4.646c-.791 0-1.385-.54-1.385-1.351v-9.902z" fill="#FFF"/></svg><svg viewBox="0 0 36 36" id="win-limit" xmlns="http://www.w3.org/2000/svg"><path fill="#FFAC33" d="M5.123 5h6C12.227 5 13 4.896 13 6V4c0-1.104-.773-2-1.877-2h-8c-2 0-3.583 2.125-3 5 0 0 1.791 9.375 1.917 9.958C2.373 18.5 4.164 20 6.081 20h6.958c1.105 0-.039-1.896-.039-3v-2c0 1.104-.773 2-1.877 2h-4c-1.104 0-1.833-1.042-2-2S3.539 7.667 3.539 7.667C3.206 5.75 4.018 5 5.123 5zm25.812 0h-6C23.831 5 22 4.896 22 6V4c0-1.104 1.831-2 2.935-2h8c2 0 3.584 2.125 3 5 0 0-1.633 9.419-1.771 10-.354 1.5-2.042 3-4 3h-7.146C21.914 20 22 18.104 22 17v-2c0 1.104 1.831 2 2.935 2h4c1.104 0 1.834-1.042 2-2s1.584-7.333 1.584-7.333C32.851 5.75 32.04 5 30.935 5zM20.832 22c0-6.958-2.709 0-2.709 0s-3-6.958-3 0-3.291 10-3.291 10h12.292c-.001 0-3.292-3.042-3.292-10z"/><path fill="#FFCC4D" d="M29.123 6.577c0 6.775-6.77 18.192-11 18.192-4.231 0-11-11.417-11-18.192 0-5.195 1-6.319 3-6.319 1.374 0 6.025-.027 8-.027l7-.001c2.917-.001 4 .684 4 6.347z"/><path fill="#C1694F" d="M27 33c0 1.104.227 2-.877 2h-16C9.018 35 9 34.104 9 33v-1c0-1.104 1.164-2 2.206-2h13.917c1.042 0 1.877.896 1.877 2v1z"/><path fill="#C1694F" d="M29 34.625c0 .76.165 1.375-1.252 1.375H8.498C7.206 36 7 35.385 7 34.625v-.25C7 33.615 7.738 33 8.498 33h19.25c.759 0 1.252.615 1.252 1.375v.25z"/></svg></svg>