<svg width="200" height="96" viewBox="0 0 200 96" fill="none" xmlns="http://www.w3.org/2000/svg">
<path fill-rule="evenodd" clip-rule="evenodd" d="M56.9468 41.3048C63.0781 42.8334 69.2874 39.1029 70.8159 32.973C72.3443 26.8427 68.6137 20.6331 62.4827 19.1049C56.3532 17.5766 50.1439 21.3075 48.6162 27.4381C47.087 33.5676 50.818 39.7765 56.9468 41.3048ZM62.228 25.9536C63.7814 26.4926 64.9174 27.3005 64.6942 28.8034C64.5326 29.9036 63.9271 30.4362 63.1233 30.623C64.2271 31.2018 64.7888 32.0895 64.2537 33.6284C63.5897 35.5397 62.0122 35.701 59.9143 35.3011L59.4052 37.3564L58.1749 37.0476L58.6774 35.0198C58.3585 34.94 58.0326 34.8553 57.6969 34.7635L57.1927 36.8008L55.9638 36.492L56.473 34.4328C56.3581 34.4032 56.2426 34.3728 56.1262 34.3423C55.9514 34.2963 55.7747 34.2499 55.5959 34.2048L53.9949 33.8028L54.6057 32.3842C54.6057 32.3842 55.5122 32.6271 55.4999 32.6091C55.8482 32.6959 56.0027 32.4672 56.0637 32.3147L56.8682 29.0657C56.8984 29.073 56.9279 29.0804 56.9564 29.0876C56.9706 29.0912 56.9846 29.0947 56.9982 29.0982C56.9492 29.0784 56.9047 29.0657 56.8703 29.0569L57.4443 26.7375C57.4594 26.4742 57.3693 26.1421 56.871 26.0168C56.8903 26.0037 55.9775 25.793 55.9775 25.793L56.3048 24.4694L58.0014 24.8961L58 24.9025C58.2551 24.9664 58.5179 25.0271 58.7857 25.0885L59.2899 23.0533L60.5195 23.3622L60.0254 25.3575C60.3555 25.4334 60.6877 25.5099 61.0111 25.5911L61.5016 23.6089L62.7319 23.9177L62.228 25.9536ZM58.3366 33.335C59.3405 33.6021 61.5344 34.1858 61.8832 32.7739C62.2407 31.3303 60.1129 30.8494 59.0746 30.6147C58.9586 30.5885 58.8562 30.5653 58.7723 30.5442L58.0968 33.2723C58.1656 33.2895 58.2463 33.311 58.3366 33.335ZM59.2832 29.3487C60.1202 29.5737 61.9458 30.0644 62.2638 28.7812C62.5885 27.4686 60.8142 27.073 59.9476 26.8797C59.8501 26.858 59.7641 26.8388 59.6939 26.8212L59.0814 29.2955C59.1392 29.31 59.2071 29.3282 59.2832 29.3487Z" fill="white"/>
<path fill-rule="evenodd" clip-rule="evenodd" d="M88.8409 41.6474C95.1604 41.6474 100.283 36.5244 100.283 30.2048C100.283 23.8854 95.1603 18.7625 88.8409 18.7625C82.5214 18.7625 77.3984 23.8854 77.3984 30.2048C77.3984 36.5244 82.5214 41.6474 88.8409 41.6474ZM88.9142 30.4631L88.171 33.2616H94.0512L93.4473 35.5109H84.028L84.9898 31.8968L83.6282 32.3942L84.0785 30.6986L85.4411 30.2008L87.0732 24.0684H90.6124L89.3645 28.7675L91.0965 28.1347L91.1115 28.1755L90.6738 29.8202L88.9142 30.4631Z" fill="white"/>
<path d="M115.905 28.4641L107.586 32.2393L115.905 37.1435L124.221 32.2393L115.905 28.4641Z" fill="white"/>
<path d="M107.586 32.2394L115.905 37.1437V18.4666L107.586 32.2394Z" fill="white"/>
<path d="M115.906 18.4666V37.1437L124.222 32.2394L115.906 18.4666Z" fill="white"/>
<path d="M107.586 33.8123L115.905 45.5067V38.7165L107.586 33.8123Z" fill="white"/>
<path d="M115.906 38.7165V45.5067L124.229 33.8123L115.906 38.7165Z" fill="white"/>
<path d="M148.901 33.1335C148.103 32.6876 147.205 32.5583 146.315 32.5282C145.568 32.503 144.454 32.0398 144.454 30.7249C144.454 29.7452 145.275 28.9567 146.315 28.9216C147.205 28.8915 148.104 28.7621 148.901 28.3163C149.618 27.9158 150.213 27.3398 150.626 26.6463C151.04 25.9527 151.258 25.1659 151.258 24.365C151.258 23.5641 151.04 22.7773 150.626 22.0837C150.213 21.3901 149.618 20.8142 148.901 20.4137C148.185 20.0133 147.372 19.8025 146.545 19.8025C145.717 19.8025 144.905 20.0133 144.188 20.4138C143.472 20.8143 142.877 21.3903 142.463 22.0839C142.05 22.7775 141.832 23.5643 141.832 24.3652C141.832 25.2491 142.157 26.0626 142.571 26.8171C142.92 27.4517 143.096 28.6295 141.9 29.2976C141.011 29.7946 139.902 29.4799 139.347 28.6211C138.879 27.8957 138.314 27.216 137.522 26.7736C136.806 26.3732 135.993 26.1624 135.166 26.1624C134.339 26.1624 133.526 26.3732 132.81 26.7736C132.093 27.1741 131.498 27.75 131.085 28.4436C130.671 29.1372 130.453 29.924 130.453 30.7249C130.453 31.5258 130.671 32.3125 131.085 33.0061C131.498 33.6997 132.093 34.2757 132.81 34.6761C133.526 35.0765 134.339 35.2874 135.166 35.2874C135.993 35.2874 136.806 35.0765 137.522 34.6761C138.314 34.2339 138.879 33.5547 139.347 32.8297C139.731 32.2344 140.691 31.4756 141.9 32.1523C142.788 32.6489 143.063 33.737 142.571 34.6332C142.156 35.3876 141.832 36.2009 141.832 37.0847C141.832 37.8856 142.05 38.6724 142.463 39.366C142.877 40.0595 143.472 40.6355 144.188 41.0359C144.905 41.4364 145.717 41.6472 146.545 41.6472C147.372 41.6472 148.185 41.4364 148.901 41.0359C149.618 40.6355 150.212 40.0595 150.626 39.366C151.04 38.6724 151.258 37.8856 151.258 37.0847C151.258 36.2839 151.04 35.4971 150.626 34.8035C150.213 34.1099 149.618 33.534 148.901 33.1335V33.1335Z" fill="white"/>
<path d="M55.2147 71.0363C59.1526 71.0363 62.1621 69.2754 63.3467 66.266L58.6404 63.8648C57.808 65.4976 56.5914 66.2019 55.1827 66.2019C53.0697 66.2019 51.4048 64.7292 51.4048 62.0399C51.4048 59.4146 53.0697 57.9419 55.1827 57.9419C56.5914 57.9419 57.808 58.6462 58.6404 60.279L63.3467 57.8778C62.1621 54.8684 59.1526 53.1075 55.2147 53.1075C49.3878 53.1075 45.2578 56.8213 45.2578 62.0399C45.2578 67.3225 49.3878 71.0363 55.2147 71.0363Z" fill="white"/>
<path d="M71.4319 55.4767V53.3956H65.6371V70.7482H71.7201V62.7762C71.7201 59.7348 73.4169 58.4861 75.8821 58.4861C76.3303 58.4861 76.7145 58.5182 77.2588 58.5822V53.1075C74.6975 53.1075 72.6805 53.9079 71.4319 55.4767Z" fill="white"/>
<path d="M92.7867 53.3956L88.4966 63.9928L84.2385 53.3956H77.9954L85.4231 70.9723C84.9108 71.9968 84.2385 72.445 83.0539 72.445C82.0934 72.445 81.0689 72.0608 80.3646 71.4205L78.2515 75.6786C79.4041 76.6391 81.4531 77.2474 83.278 77.2474C86.7037 77.2474 89.2649 75.9347 91.0898 71.4525L98.5815 53.3956H92.7867Z" fill="white"/>
<path d="M111.071 53.1075C108.798 53.1075 107.101 53.7478 105.949 55.1245V53.3956H100.154V76.9592H106.237V69.2114C107.422 70.428 109.054 71.0363 111.071 71.0363C115.778 71.0363 119.588 67.5786 119.588 62.0719C119.588 56.5652 115.778 53.1075 111.071 53.1075ZM109.791 66.2019C107.742 66.2019 106.141 64.6972 106.141 62.0719C106.141 59.4466 107.742 57.9419 109.791 57.9419C111.84 57.9419 113.441 59.4466 113.441 62.0719C113.441 64.6972 111.84 66.2019 109.791 66.2019Z" fill="white"/>
<path d="M132.884 65.7857C132.372 66.1379 131.7 66.33 131.027 66.33C129.939 66.33 129.202 65.6256 129.202 64.345V58.5822H133.172V54.0359H129.202V49.5217H123.119V54.0359H120.59V58.5822H123.119V64.409C123.119 68.8592 125.713 71.0363 130.163 71.0363C131.764 71.0363 133.332 70.7161 134.389 70.0438L132.884 65.7857Z" fill="white"/>
<path d="M144.943 71.0363C150.673 71.0363 154.739 67.2905 154.739 62.0399C154.739 56.8213 150.673 53.1075 144.943 53.1075C139.276 53.1075 135.146 56.8213 135.146 62.0399C135.146 67.2905 139.276 71.0363 144.943 71.0363ZM144.943 66.2019C142.894 66.2019 141.293 64.6972 141.293 62.0399C141.293 59.4146 142.894 57.9419 144.943 57.9419C147.024 57.9419 148.592 59.4146 148.592 62.0399C148.592 64.6972 147.024 66.2019 144.943 66.2019Z" fill="white"/>
</svg>
