<svg width="200" height="95" viewBox="0 0 200 95" fill="none" xmlns="http://www.w3.org/2000/svg">
<g clip-path="url(#clip0)">
<path d="M73.4676 80.6302V76.1931C73.5405 74.7141 72.5191 73.4569 71.0598 73.383C70.9139 73.383 70.841 73.383 70.695 73.383C69.7465 73.309 68.798 73.8267 68.2144 74.6401C67.7036 73.8267 66.8281 73.309 65.8796 73.383C65.077 73.309 64.2744 73.7527 63.8367 74.4183V73.5309H62.3774V80.6302H63.9096V76.7108C63.7637 75.8234 64.4204 74.9359 65.2959 74.862C65.3689 74.862 65.5148 74.862 65.5877 74.862C66.6092 74.862 67.1199 75.5276 67.1199 76.7108V80.6302H68.6521V76.7108C68.5062 75.8234 69.1628 74.9359 70.0384 74.862C70.1113 74.862 70.2573 74.862 70.3302 74.862C71.3517 74.862 71.8624 75.5276 71.8624 76.7108V80.6302H73.4676ZM96.1586 73.6048H93.6779V71.4602H92.1457V73.6048H90.7594V75.0099H92.1457V78.2638C92.1457 79.8907 92.8023 80.8521 94.5534 80.8521C95.2101 80.8521 95.8667 80.6302 96.4504 80.3344L96.0126 79.0033C95.5749 79.2251 95.1371 79.373 94.6993 79.373C93.9697 79.373 93.6779 78.9293 93.6779 78.1898V74.9359H96.1586V73.6048ZM109.073 73.383C108.343 73.383 107.613 73.7527 107.249 74.4183V73.5309H105.716V80.6302H107.249V76.6368C107.249 75.4536 107.759 74.788 108.708 74.788C109 74.788 109.365 74.862 109.656 74.9359L110.094 73.4569C109.802 73.4569 109.438 73.383 109.073 73.383ZM89.5191 74.1225C88.6435 73.6048 87.695 73.383 86.6736 73.383C84.9225 73.383 83.7551 74.2704 83.7551 75.6755C83.7551 76.8587 84.6307 77.5242 86.1628 77.7461L86.8925 77.82C87.695 77.968 88.1328 78.1898 88.1328 78.5596C88.1328 79.0772 87.5491 79.447 86.5277 79.447C85.7251 79.447 84.8495 79.2251 84.1929 78.7075L83.4633 79.8907C84.3388 80.4823 85.4332 80.8521 86.4547 80.7781C88.4976 80.7781 89.665 79.8167 89.665 78.4856C89.665 77.1545 88.7165 76.5629 87.2573 76.341L86.5277 76.2671C85.871 76.1931 85.3603 76.0452 85.3603 75.6015C85.3603 75.1578 85.871 74.788 86.6736 74.788C87.4762 74.788 88.2058 75.0099 88.8624 75.3796L89.5191 74.1225ZM130.159 73.383C129.429 73.383 128.699 73.7527 128.335 74.4183V73.5309H126.802V80.6302H128.335V76.6368C128.335 75.4536 128.845 74.788 129.794 74.788C130.086 74.788 130.45 74.862 130.742 74.9359L131.18 73.4569C130.888 73.4569 130.523 73.383 130.159 73.383ZM110.605 77.0805C110.532 79.0772 112.064 80.7042 113.961 80.7781C114.107 80.7781 114.18 80.7781 114.326 80.7781C115.201 80.8521 116.15 80.5562 116.807 79.9646L116.077 78.7075C115.566 79.0772 114.91 79.2991 114.253 79.373C113.013 79.2991 112.137 78.1898 112.21 76.9326C112.283 75.8234 113.159 74.9359 114.253 74.862C114.91 74.862 115.566 75.0838 116.077 75.5275L116.807 74.2704C116.077 73.6788 115.201 73.383 114.326 73.4569C112.356 73.309 110.751 74.862 110.605 76.7847C110.605 76.8587 110.605 76.9326 110.605 77.0805ZM124.832 77.0805V73.5309H123.3V74.4183C122.789 73.7527 121.987 73.383 121.111 73.383C119.068 73.383 117.463 75.0099 117.463 77.0805C117.463 79.1512 119.068 80.7781 121.111 80.7781C121.987 80.7781 122.789 80.4083 123.3 79.7428V80.6302H124.832V77.0805ZM119.141 77.0805C119.214 75.8973 120.236 75.0099 121.403 75.0838C122.571 75.1578 123.446 76.1931 123.373 77.3763C123.3 78.4856 122.425 79.373 121.257 79.373C120.09 79.373 119.141 78.4856 119.141 77.3024C119.141 77.2284 119.141 77.1545 119.141 77.0805ZM100.828 73.383C98.7852 73.383 97.18 75.0838 97.253 77.1545C97.3259 79.2251 98.9311 80.8521 100.974 80.7781C101.995 80.8521 103.09 80.4823 103.892 79.8167L103.163 78.7075C102.579 79.1512 101.85 79.447 101.12 79.447C100.098 79.5209 99.15 78.7814 99.004 77.7461H104.184C104.184 77.5242 104.184 77.3763 104.184 77.1545C104.184 74.862 102.798 73.383 100.828 73.383ZM100.828 74.788C101.777 74.788 102.579 75.5276 102.579 76.4889H98.9311C99.004 75.5276 99.8796 74.7141 100.828 74.788ZM138.841 77.0805V70.7207H137.382V74.4183C136.871 73.7527 136.068 73.383 135.193 73.383C133.15 73.383 131.545 75.0099 131.545 77.0805C131.545 79.1512 133.15 80.7781 135.193 80.7781C136.068 80.7781 136.871 80.4083 137.382 79.7428V80.6302H138.841V77.0805ZM141.395 79.5949C141.468 79.5949 141.613 79.5949 141.686 79.6688C141.759 79.6688 141.832 79.7428 141.905 79.8167C141.978 79.8907 142.051 79.9646 142.051 80.0386C142.124 80.1865 142.124 80.4083 142.051 80.5563C141.978 80.6302 141.978 80.7042 141.905 80.7781C141.832 80.8521 141.759 80.926 141.686 80.926C141.613 81 141.541 81 141.395 81C141.103 81 140.884 80.8521 140.738 80.5563C140.665 80.4083 140.665 80.1865 140.738 80.0386C140.811 79.9646 140.811 79.8907 140.884 79.8167C140.957 79.7428 141.03 79.6688 141.103 79.6688C141.249 79.5949 141.322 79.5949 141.395 79.5949ZM141.395 80.8521C141.468 80.8521 141.541 80.8521 141.613 80.7781C141.686 80.7781 141.759 80.7042 141.759 80.6302C141.978 80.4083 141.978 80.1125 141.759 79.8907C141.686 79.8167 141.686 79.8167 141.613 79.7428C141.541 79.7428 141.468 79.6688 141.395 79.6688C141.322 79.6688 141.249 79.6688 141.176 79.7428C141.103 79.7428 141.03 79.8167 141.03 79.8907C140.811 80.1125 140.811 80.4083 141.03 80.6302C141.103 80.7042 141.176 80.7042 141.176 80.7781C141.249 80.8521 141.322 80.8521 141.395 80.8521ZM141.468 79.9646C141.541 79.9646 141.613 79.9646 141.686 80.0386C141.759 80.1125 141.759 80.1125 141.759 80.1865C141.759 80.2604 141.759 80.2604 141.686 80.3344C141.613 80.4083 141.613 80.4083 141.541 80.4083L141.759 80.6302H141.613L141.395 80.4083H141.322V80.6302H141.176V79.9646H141.468ZM141.322 80.1125V80.2604H141.468H141.541V80.1865V80.1125H141.468H141.322ZM133.296 77.0805C133.369 75.8973 134.39 75.0099 135.558 75.0838C136.725 75.1578 137.601 76.1931 137.528 77.3763C137.455 78.4856 136.579 79.373 135.412 79.373C134.244 79.373 133.296 78.4856 133.296 77.3024C133.223 77.2284 133.296 77.1545 133.296 77.0805ZM82.0041 77.0805V73.5309H80.4719V74.4183C79.9611 73.7527 79.1586 73.383 78.283 73.383C76.2401 73.383 74.635 75.0099 74.635 77.0805C74.635 79.1512 76.2401 80.7781 78.283 80.7781C79.1586 80.7781 79.9611 80.4083 80.4719 79.7428V80.6302H82.0041V77.0805ZM76.386 77.0805C76.459 75.8973 77.4804 75.0099 78.6478 75.0838C79.8152 75.1578 80.6907 76.1931 80.6178 77.3763C80.5448 78.4856 79.6693 79.373 78.5019 79.373C77.3345 79.373 76.386 78.4856 76.386 77.3024C76.386 77.2284 76.386 77.1545 76.386 77.0805Z" fill="white"/>
<path d="M111.992 19.6943H89.0088V61.5509H111.992V19.6943Z" fill="#FF5F00"/>
<path d="M90.467 40.6218C90.467 32.4872 94.1881 24.7223 100.536 19.6936C89.0808 10.5976 72.5915 12.5942 63.6173 24.2046C54.643 35.815 56.613 52.4541 68.0679 61.5501C77.6258 69.1671 90.9778 69.1671 100.536 61.5501C94.1881 56.5214 90.467 48.8304 90.467 40.6218Z" fill="#EB001B"/>
<path d="M143 40.6228C143 55.3391 131.254 67.2453 116.734 67.2453C110.824 67.2453 105.133 65.2486 100.537 61.5511C111.919 52.455 113.889 35.742 104.915 24.2056C103.601 22.5047 102.142 21.0257 100.464 19.6946C111.846 10.5985 128.408 12.5952 137.382 24.2056C141.03 28.8645 143 34.6327 143 40.6228Z" fill="#F79E1B"/>
<path d="M140.52 57.1139V56.2265H140.884V56.0786H140.009V56.2265H140.374V57.1139H140.52ZM142.198 57.1139V56.0786H141.906L141.614 56.8181L141.322 56.0786H141.103V57.1139H141.322V56.3744L141.614 57.04H141.833L142.125 56.3744V57.1879L142.198 57.1139Z" fill="#F79E1B"/>
</g>
<defs>
<clipPath id="clip0">
<rect width="85" height="67" fill="white" transform="translate(58 14)"/>
</clipPath>
</defs>
</svg>
