<svg width="200" height="95" viewBox="0 0 200 95" fill="none" xmlns="http://www.w3.org/2000/svg">
<path d="M126.19 37.6C128.889 37.6 131.111 35.4323 131.111 32.8C131.111 30.1677 128.889 28 126.19 28C123.492 28 121.27 30.1677 121.27 32.8C121.27 35.4323 123.492 37.6 126.19 37.6ZM88.4656 40.1806C88.254 40.7484 86.6667 45.1355 82.7513 49.6774V30.1677L72.4868 32.1806V67.5871H82.8042V56.6452C85.7672 61.0323 87.2487 67.5871 87.2487 67.5871H99.5767C98.3598 62.6323 93.0159 53.4968 93.0159 53.4968C97.8307 47.5613 99.8942 41.2645 100.265 40.1806H88.4656V40.1806ZM115.556 39.8194C106.349 40.129 101.64 44.1548 101.64 52.1548V67.5355H111.693V55.0452C111.693 50.2452 112.328 48.1806 118.201 47.9742V39.9742C117.249 39.7677 115.556 39.8194 115.556 39.8194ZM55.1852 44.1032C53.9153 44 51.0053 43.8452 51.0053 41.2645C51.0053 38.1677 55.2381 38.1677 56.7725 38.1677C59.5238 38.1677 63.1217 38.9935 65.7143 39.7161C65.7143 39.7161 67.1429 40.2323 68.3598 40.6968L68.4656 40.7484V32.2839L68.3069 32.2323C65.291 31.2 61.746 30.2194 55.2381 30.2194C43.9683 30.1677 40 36.5677 40 42.0903C40 45.2387 41.3757 52.671 54.2857 53.5484C55.3968 53.6 58.254 53.7548 58.254 56.4387C58.254 58.6064 55.873 59.8968 51.9048 59.8968C47.5132 59.8968 43.2804 58.8129 40.6878 57.7806V66.5032C44.5503 67.4839 48.8889 68 54.0212 68C65.0265 68 69.9471 61.9613 69.9471 55.9226C69.9471 49.1097 64.4444 44.7226 55.1852 44.1032ZM121.217 67.5871H131.217V40.2323H121.217V67.5871ZM150 31.9226V67.5871H160V30.1677L150 31.9226ZM135.397 31.9226L145.397 30.1677V67.5355H135.397V31.9226Z" fill="white"/>
</svg>
