<svg width="200" height="95" viewBox="0 0 200 95" fill="none" xmlns="http://www.w3.org/2000/svg">
<g clip-path="url(#clip0)">
<path d="M102.012 40.5125C101.892 45.9529 106.817 48.9753 110.54 50.7887C114.264 52.6022 115.585 53.8112 115.585 55.5037C115.585 58.0426 112.582 59.1306 109.82 59.2515C104.895 59.3724 102.133 57.9217 99.8504 56.8336L98.0487 65.0546C100.331 66.1427 104.535 66.989 108.859 67.1099C119.069 67.1099 125.675 62.0322 125.795 54.1739C125.795 44.2603 112.102 43.6558 112.222 39.1826C112.222 37.8527 113.543 36.402 116.306 36.0393C117.747 35.7975 121.471 35.6766 125.915 37.7318L127.596 29.7526C125.314 28.9064 122.312 28.0601 118.468 28.0601C108.859 28.0601 102.133 33.1378 102.012 40.5125ZM143.932 28.6646C142.13 28.6646 140.449 29.7526 139.848 31.4452L125.314 66.3845H135.524L137.566 60.7023H150.058L151.259 66.3845H160.267L152.46 28.6646H143.932V28.6646ZM145.373 38.9408L148.256 53.0858H140.208L145.373 38.9408ZM89.7609 28.6646L81.7134 66.3845H91.4425L99.4901 28.6646H89.7609ZM75.3474 28.6646L65.2579 54.2948L61.1741 32.4124C60.6936 29.9944 58.7718 28.5437 56.7299 28.5437H40.2744L40.0342 29.6317C43.3973 30.3571 47.241 31.5661 49.6432 32.896C51.0846 33.6213 51.4449 34.3467 51.9254 36.1602L59.6126 66.2636H69.8222L85.557 28.5437L75.3474 28.6646Z" fill="white"/>
</g>
<defs>
<clipPath id="clip0">
<rect width="120" height="39" fill="white" transform="translate(40 28)"/>
</clipPath>
</defs>
</svg>
