<svg width="200" height="95" viewBox="0 0 200 95" fill="none" xmlns="http://www.w3.org/2000/svg">
<path d="M58.0134 34.1947C59.7754 34.1947 61.422 32.8181 61.7108 31.0974C61.9708 29.3766 60.7865 28 58.9955 28C57.2334 28 55.5869 29.3766 55.298 31.0974C55.038 32.7894 56.2513 34.1947 58.0134 34.1947Z" fill="white"/>
<path d="M172 35.944C169.054 35.8006 165.212 39.3568 165.212 39.3568L163.998 36.3168H160.648L159.03 45.4081C158.914 46.0391 158.568 46.584 158.077 46.9855L153.657 50.4557C153.657 50.4557 151.837 51.8323 149.324 53.4383C148.169 53.9832 147.244 54.2413 146.291 54.2413C144.24 54.2413 142.998 53.467 142.391 52.1191C142.305 51.8609 142.218 51.6315 142.16 51.3447L153.541 43.716C155.159 42.5689 155.159 41.0202 154.928 40.2459C154.206 37.8081 151.982 35.9726 148.342 35.9726C141.525 35.9726 136.845 41.7372 136.845 49.9394C136.845 50.4843 136.874 51.0292 136.96 51.5455L133.754 53.8111C133.119 54.184 132.223 54.5281 131.645 54.5281C130.692 54.5281 130.259 53.7825 130.548 52.1477L134.765 28.7168H129.479L127.37 40.3606C127.283 40.8481 127.052 41.307 126.706 41.6798L120.9 47.7598C121.044 46.756 121.131 45.6949 121.131 44.5764C121.131 39.6436 118.82 36.0013 114.949 36.0013C111.222 36.0013 108.42 39.1274 108.42 39.1274L106.947 36.3168H103.654L101.834 46.584C101.748 47.0428 101.545 47.4443 101.257 47.8172L97.9057 51.7749C96.9813 52.7787 95.9992 54.0119 95.5081 54.0406C94.6126 54.184 94.2371 53.8685 94.526 52.2338L95.8837 44.7772C96.9236 38.8979 95.1326 35.9153 90.0485 35.9153C87.0154 35.9153 83.4335 39.2994 83.4335 39.2994C82.6824 37.0911 80.8337 35.9153 78.0028 35.9153C74.9119 35.9153 71.59 39.4715 71.59 39.4715L70.1745 36.3168H66.8237L65.0905 46.0391C65.0038 46.4979 64.8016 46.8994 64.5127 47.2723L60.6708 51.7749C59.7464 52.7787 58.7643 54.0119 58.2732 54.0406C57.3777 54.184 57.0022 53.8685 57.2911 52.2338L60.2086 36.3168H54.9224L54.0558 41.0202C53.9402 41.6225 53.6802 42.196 53.2469 42.6836L45.5053 51.5742C43.4832 53.6964 40.9701 54.0119 40.479 54.0693H34.9906L47.4696 40.0451L48.1051 36.2594H32.073L31.322 40.5326H40.6235L28.6066 54.5281L28 58.4859C28 58.4859 39.2658 58.5432 39.4391 58.4859C42.7322 58.4859 45.6786 55.5892 46.863 54.4134L52.8714 47.387L51.7737 53.2949C51.1093 57.1379 52.5825 58.9447 55.7601 58.8874C57.7244 58.8587 59.0532 57.5394 60.4108 56.2202L64.0217 52.0043L62.8084 58.7726H68.1525L70.4634 45.4942C70.7811 43.8594 72.8899 41.0489 75.1141 41.0489C77.4829 41.0489 78.6094 42.196 78.0606 45.3221L75.6919 58.7726H80.9493L83.4913 44.4904C83.6357 43.544 85.3689 40.8768 87.7376 40.8768C90.2219 40.8768 91.0307 42.2247 90.4818 45.3508L89.0086 53.2949C88.3442 57.1379 89.8175 58.9447 92.995 58.8874C94.9593 58.8587 96.2881 57.5394 97.6457 56.2202L100.794 52.5779L99.6967 58.8013L98.4257 65.9998H103.712L105.445 56.1915C106.167 57.1093 107.207 57.8549 108.478 58.2564C108.767 58.3425 109.056 58.4285 109.374 58.4572C112.811 58.6292 115.873 56.9659 118.589 54.1553L118.617 54.1266L126.33 46.2111L125.059 53.1802C124.366 57.0232 125.839 58.7726 129.046 58.7726C131.125 58.7726 133.061 57.7689 135.112 56.3923L137.827 54.4708C137.885 54.5855 137.914 54.6715 137.972 54.7862C139.185 57.1379 141.438 58.6866 144.76 58.744C144.76 58.744 144.76 58.744 144.789 58.744C148.284 58.744 151.722 55.4745 153.686 54.0979C154.206 53.7538 156.112 52.2051 158.163 50.5417L156.69 58.8013H161.976L164.287 45.5228C164.605 43.8881 166.714 41.0776 168.938 41.0776C169.805 41.0776 170.498 41.2209 170.989 41.5651L172 35.944ZM106.138 52.0617L107.381 45.064C107.929 43.4006 109.865 41.1923 111.916 41.0776C112.696 41.0202 113.62 41.0489 114.516 41.7659C115.267 42.6262 115.671 43.8881 115.671 45.4655C115.671 50.427 113.245 53.8972 109.778 53.8972C108.045 53.8972 106.687 53.0081 106.138 52.0617ZM142.391 45.5802C142.969 42.827 145.222 40.4753 147.735 40.4753C149.151 40.4753 150.191 41.5364 149.815 42.6836L142.016 47.9892C142.102 46.6413 142.391 45.5802 142.391 45.5802Z" fill="white"/>
</svg>
